<svg width="41" height="53" viewBox="0 0 41 53" fill="none" xmlns="http://www.w3.org/2000/svg">
<path d="M37.8212 29.6698C34.9912 26.2998 30.8912 24.3598 27.6312 23.0398C26.4312 22.5498 25.2012 22.0998 24.0012 21.6498C21.4212 20.6898 18.7512 19.6998 16.3012 18.3798C13.5912 16.9198 11.1512 15.0698 9.04121 12.8898C8.40121 12.2198 7.68121 11.4098 7.23121 10.4798C6.76121 9.49983 6.66121 8.48983 6.95121 7.63983C7.49121 6.04983 9.30121 5.20984 10.8112 4.94984C12.2712 4.69984 13.8612 4.63983 15.8312 4.74984C16.2912 5.65983 17.1812 6.37983 18.3012 6.72983C19.2812 7.03983 20.3912 7.07983 21.7812 6.83984C23.1812 6.59984 26.5212 5.18984 26.8812 5.03984H30.7512L29.3512 4.21983L30.7512 3.39983H26.9012C25.0012 1.75983 23.0912 0.939836 21.8312 0.539836C20.4412 0.109836 19.5212 0.0698344 19.4912 0.0598344C18.4912 0.00983439 17.1612 0.359834 16.3912 1.22983C14.1212 0.839834 11.4512 0.529835 8.84121 1.09984C6.07121 1.70984 3.83121 3.32984 2.83121 5.41984C2.23121 6.66984 2.07121 8.09983 2.36121 9.43983C2.58121 10.4398 2.87121 11.2798 3.26121 12.0098C4.32121 13.9998 5.81121 15.8298 7.66121 17.4498C9.03121 18.6498 10.6112 19.7298 12.4812 20.7598C14.0012 21.5998 15.7012 22.3898 17.8212 23.2598C19.0412 23.7598 20.3012 24.2398 21.5112 24.6998C23.8912 25.6098 26.3612 26.5498 28.6912 27.6798C30.2512 28.4398 32.2412 29.5098 33.7612 31.0698C35.2912 32.6398 36.1512 34.5798 36.1212 36.3798C36.0812 38.4498 34.9812 40.5398 32.7412 42.7798C29.6812 45.8398 24.4212 49.4798 18.6612 52.3198C21.5612 51.4298 24.4312 50.4698 25.7212 49.9298C26.6612 49.5298 27.6312 49.1198 28.5712 48.6598C30.9012 47.5298 33.0812 46.1198 35.0612 44.4798C37.5512 42.4098 39.0912 40.3698 39.7512 38.2398C40.6312 35.4198 39.8912 32.1398 37.8212 29.6698Z" fill="#D00000"/>
<path d="M14.9006 51.99C13.3406 50.33 12.1906 48.77 10.8906 46.93C9.4506 44.9 8.4206 42.84 7.5906 40.55C6.7606 38.26 6.6006 35.69 7.7306 33.51C8.0906 32.81 8.6106 32.14 9.3806 31.8C10.7006 31.2 12.3006 31.71 13.5706 32.39C14.7406 33.02 15.8206 33.79 16.7606 34.68C18.9506 33.63 21.8506 33.94 23.7006 35.42C24.0706 35.71 24.3906 36.05 24.6106 36.44C24.9506 37.04 25.0106 37.74 24.9406 38.41C24.7206 40.49 23.3206 42.79 21.9706 44.49C21.1306 45.55 20.2406 46.34 19.4006 47.39C31.5706 40.2 30.7406 33.9 30.7406 33.9C30.7106 32.37 29.7306 30.92 28.3406 30.01C26.9506 29.1 25.2006 28.65 23.4806 28.68C20.3106 28.75 17.4706 30.56 17.4706 30.56C17.4006 30.32 16.4206 28.83 16.4206 28.83C16.1206 28.4 15.7706 27.99 15.3906 27.61C14.6306 26.85 13.7306 26.2 12.7306 25.71C10.6006 24.66 8.0306 24.33 5.6506 24.8C3.8206 25.16 2.0506 26.04 1.1006 27.48C0.580602 28.26 0.330601 29.17 0.210601 30.07C-0.199399 33.11 0.760602 36.19 2.1706 38.98C4.9506 44.47 9.2206 48.75 14.9006 51.99Z" fill="white"/>
</svg>
