<svg width="162" height="218" viewBox="0 0 162 218" fill="none" xmlns="http://www.w3.org/2000/svg">
<path d="M136.499 94.93C127.529 84.25 114.519 78.0801 104.179 73.8901C100.379 72.3501 96.4593 70.9001 92.6793 69.4901C84.4893 66.4501 76.0193 63.3001 68.2393 59.1201C59.6593 54.5001 51.9093 48.6301 45.1993 41.6901C43.1493 39.5701 40.8693 37 39.4593 34.0401C37.9693 30.9201 37.6593 27.7101 38.5793 25.0101C40.2993 19.9501 46.0293 17.2901 50.8093 16.4801C55.4293 15.7001 60.4993 15.5001 66.7393 15.8601C68.1993 18.7401 71.0393 21.0201 74.5693 22.1401C77.6793 23.1301 81.1993 23.2401 85.6193 22.4801C90.0693 21.7101 100.659 17.2501 101.819 16.7601H114.109L109.649 14.1601L114.109 11.5601H101.899C95.8593 6.34005 89.8193 3.74006 85.7993 2.48006C81.3993 1.10006 78.4793 0.980058 78.3693 0.970058C75.1993 0.820058 70.9693 1.91006 68.5193 4.67006C61.3093 3.44006 52.8593 2.45005 44.5793 4.27005C35.7993 6.21005 28.6693 11.3301 25.4993 17.9801C23.6093 21.9401 23.0793 26.4801 23.9993 30.7501C24.6893 33.9301 25.6193 36.6001 26.8593 38.9101C30.2393 45.2101 34.9393 51.0201 40.8293 56.1601C45.1793 59.9601 50.1793 63.3901 56.1293 66.6601C60.9593 69.3201 66.3393 71.8301 73.0693 74.5801C76.9493 76.1601 80.9393 77.6901 84.7893 79.1601C92.3493 82.0501 100.179 85.04 107.559 88.62C112.519 91.0201 118.819 94.41 123.639 99.37C128.489 104.35 131.209 110.49 131.109 116.22C130.999 122.78 127.489 129.43 120.389 136.53C110.679 146.24 93.9693 157.78 75.7093 166.81C84.9093 163.98 94.0293 160.95 98.0993 159.21C101.079 157.94 104.159 156.63 107.129 155.19C114.519 151.61 121.449 147.15 127.719 141.93C135.629 135.35 140.499 128.88 142.619 122.14C145.419 113.2 143.079 102.77 136.499 94.93Z" fill="#D00000"/>
<path d="M63.7894 165.77C58.8294 160.52 55.1894 155.56 51.0594 149.73C46.4894 143.28 43.2294 136.74 40.5894 129.49C37.9494 122.23 37.4394 114.06 41.0494 107.14C42.1994 104.93 43.8494 102.81 46.2794 101.7C50.4594 99.8001 55.5594 101.42 59.5794 103.58C63.3094 105.58 66.7294 108.03 69.7194 110.85C76.6494 107.52 85.8894 108.5 91.7394 113.19C92.8994 114.12 93.9494 115.19 94.6394 116.44C95.7094 118.35 95.9094 120.56 95.6894 122.68C94.9994 129.27 90.5594 136.57 86.2694 141.98C83.6094 145.33 80.7894 147.84 78.1294 151.19C116.689 128.36 114.069 108.38 114.069 108.38C113.989 103.51 110.849 98.9201 106.439 96.0401C102.029 93.1701 96.4794 91.7201 91.0194 91.8301C80.9594 92.0401 71.9494 97.8101 71.9494 97.8101C71.7094 97.0401 68.6094 92.3201 68.6094 92.3201C67.6494 90.9501 66.5594 89.6501 65.3594 88.4501C62.9594 86.0401 60.0994 83.9701 56.9294 82.4101C50.1594 79.0701 42.0094 78.0201 34.4494 79.5101C28.6594 80.6501 23.0294 83.4501 20.0094 88.0001C18.3594 90.4801 17.5794 93.3501 17.1894 96.2101C15.8794 105.86 18.9194 115.62 23.4094 124.48C32.1894 141.89 45.7394 155.47 63.7894 165.77Z" fill="white"/>
<path d="M55.9601 213.01L54.8301 212.36C54.4001 212.12 54.0901 211.88 53.8901 211.66C53.6901 211.44 53.5901 211.18 53.5901 210.87C53.5901 210.53 53.7201 210.26 53.9801 210.06C54.2401 209.87 54.5501 209.77 54.9001 209.77C55.3601 209.77 55.8101 209.92 56.2801 210.23C56.7501 210.54 57.0801 211.07 57.2901 211.84H57.6001L57.3201 209.28H57.0501C57.0201 209.41 56.9701 209.51 56.9101 209.58C56.8501 209.65 56.7401 209.69 56.5801 209.69C56.5201 209.69 56.2801 209.62 55.8701 209.49C55.4601 209.35 55.1001 209.29 54.8101 209.29C54.0901 209.29 53.5201 209.49 53.0901 209.89C52.6601 210.29 52.4401 210.8 52.4401 211.4C52.4401 211.86 52.6201 212.28 52.9901 212.66C53.1901 212.86 53.4501 213.06 53.7801 213.25L54.8801 213.89C55.5101 214.26 55.9301 214.53 56.1301 214.72C56.4301 215.01 56.5801 215.35 56.5801 215.74C56.5801 216.18 56.4301 216.51 56.1301 216.76C55.8301 217 55.4701 217.12 55.0601 217.12C54.3001 217.12 53.6601 216.84 53.1501 216.28C52.8601 215.96 52.6001 215.53 52.3801 214.99H52.0801L52.4601 217.55H52.7401C52.7601 217.45 52.7901 217.36 52.8401 217.27C52.8901 217.18 53.0001 217.14 53.1501 217.14C53.2101 217.14 53.4601 217.21 53.9001 217.35C54.3401 217.49 54.7501 217.56 55.1501 217.56C55.9401 217.56 56.6001 217.35 57.1101 216.93C57.6201 216.51 57.8801 215.98 57.8801 215.35C57.8801 214.88 57.7401 214.47 57.4501 214.13C57.1701 213.79 56.6701 213.41 55.9601 213.01Z" fill="white"/>
<path d="M64.9494 216.66C64.5294 216.84 63.8894 216.93 63.0094 216.93C62.1994 216.93 61.7194 216.91 61.5494 216.87C61.3894 216.83 61.3094 216.69 61.3094 216.45V213.47H63.2994C63.8494 213.47 64.1994 213.55 64.3494 213.7C64.4994 213.85 64.6294 214.16 64.7194 214.63H65.0194V211.85H64.7194C64.6294 212.31 64.4994 212.62 64.3494 212.77C64.1994 212.92 63.8494 213 63.2994 213H61.3094V210.32C61.3094 210.16 61.3294 210.06 61.3794 210C61.4194 209.94 61.5394 209.92 61.7294 209.92H63.4894C64.2494 209.92 64.7394 210 64.9494 210.15C65.1694 210.31 65.3294 210.65 65.4394 211.18H65.7694L65.7294 209.46H58.8594V209.68C59.3394 209.71 59.6494 209.79 59.7894 209.92C59.9294 210.05 59.9994 210.33 59.9994 210.76V216.11C59.9994 216.56 59.9294 216.84 59.7894 216.95C59.6494 217.06 59.3394 217.14 58.8594 217.19V217.41H65.8494L66.4394 215.38H66.0794C65.7394 216.06 65.3694 216.49 64.9494 216.66Z" fill="white"/>
<path d="M63.9098 206.89C63.8098 206.96 63.7298 207.02 63.6598 207.08L61.7598 208.86H62.2798L64.2697 207.69C64.3997 207.61 64.4998 207.53 64.5698 207.46C64.6398 207.39 64.6698 207.29 64.6698 207.18C64.6698 207.06 64.6198 206.97 64.5298 206.9C64.4398 206.83 64.3398 206.79 64.2298 206.79C64.1198 206.79 64.0098 206.82 63.9098 206.89Z" fill="white"/>
<path d="M72.6905 209.67C73.1705 209.71 73.4704 209.79 73.6104 209.92C73.8204 210.12 73.9305 210.55 73.9305 211.2V215.19L68.9405 209.44H66.7305V209.66C67.0005 209.67 67.1904 209.7 67.3304 209.75C67.4604 209.8 67.6205 209.93 67.8105 210.13L67.9904 210.32V215.62C67.9904 216.25 67.9105 216.66 67.7605 216.83C67.6105 217 67.2705 217.12 66.7305 217.17V217.39H69.7704V217.17C69.3004 217.12 69.0005 217.03 68.8705 216.91C68.6605 216.71 68.5605 216.28 68.5605 215.63V210.95L74.2805 217.54H74.5005V211.21C74.5005 210.58 74.5805 210.18 74.7505 210C74.9105 209.82 75.2405 209.71 75.7305 209.67V209.45H72.6905V209.67Z" fill="white"/>
<path d="M82.131 216.66C81.711 216.84 81.071 216.93 80.191 216.93C79.381 216.93 78.901 216.91 78.731 216.87C78.571 216.83 78.491 216.69 78.491 216.45V213.47H80.481C81.031 213.47 81.381 213.55 81.531 213.7C81.681 213.85 81.811 214.16 81.901 214.63H82.201V211.85H81.901C81.811 212.31 81.691 212.62 81.531 212.77C81.381 212.92 81.031 213 80.481 213H78.491V210.32C78.491 210.16 78.511 210.06 78.561 210C78.601 209.94 78.721 209.92 78.911 209.92H80.671C81.431 209.92 81.921 210 82.131 210.15C82.351 210.31 82.511 210.65 82.621 211.18H82.951L82.911 209.46H76.041V209.68C76.521 209.71 76.831 209.79 76.971 209.92C77.111 210.05 77.181 210.33 77.181 210.76V216.11C77.181 216.56 77.111 216.84 76.971 216.95C76.831 217.06 76.521 217.14 76.051 217.19V217.41H83.041L83.631 215.38H83.271C82.921 216.06 82.541 216.49 82.131 216.66Z" fill="white"/>
<path d="M81.0894 206.89C80.9894 206.96 80.9094 207.02 80.8394 207.08L78.9395 208.86H79.4594L81.4495 207.69C81.5795 207.61 81.6795 207.53 81.7495 207.46C81.8195 207.39 81.8495 207.29 81.8495 207.18C81.8495 207.06 81.7994 206.97 81.7094 206.9C81.6194 206.83 81.5195 206.79 81.4095 206.79C81.2895 206.79 81.1894 206.82 81.0894 206.89Z" fill="white"/>
<path d="M89.5596 213.37C90.0396 213.4 90.3396 213.47 90.4896 213.58C90.6296 213.7 90.6996 213.98 90.6996 214.45V216.36C90.6996 216.49 90.6596 216.59 90.5896 216.66C90.5096 216.73 90.3196 216.81 90.0196 216.9C89.8296 216.96 89.6296 217 89.4196 217.03C89.2096 217.06 89.0296 217.07 88.8696 217.07C87.9496 217.07 87.1796 216.76 86.5496 216.14C85.9196 215.52 85.6096 214.65 85.6096 213.54C85.6096 212.2 85.9196 211.23 86.5496 210.65C87.1796 210.07 87.9096 209.77 88.7396 209.77C89.5596 209.77 90.2196 210.02 90.7296 210.52C91.0096 210.81 91.2896 211.24 91.5496 211.82H91.8496L91.7496 209.29H91.4696C91.4096 209.42 91.3496 209.51 91.2696 209.58C91.1896 209.65 91.0596 209.68 90.8796 209.68C90.8096 209.68 90.5296 209.62 90.0496 209.49C89.5696 209.36 89.0696 209.3 88.5696 209.3C87.1896 209.3 86.0696 209.74 85.2396 210.62C84.4796 211.42 84.0996 212.38 84.0996 213.5C84.0996 214.77 84.5796 215.79 85.5296 216.54C86.3996 217.23 87.4596 217.57 88.7196 217.57C89.4096 217.57 90.1196 217.45 90.8596 217.22C91.5996 216.99 91.9696 216.8 91.9696 216.66V214.29C91.9696 213.9 92.0596 213.64 92.2296 213.52C92.3396 213.44 92.5496 213.39 92.8696 213.37V213.15H89.5796V213.37H89.5596Z" fill="white"/>
<path d="M101.03 216.12L97.8098 209.3H97.5497L94.8597 215.2C94.4597 216.08 94.1698 216.63 94.0098 216.82C93.8398 217.02 93.5898 217.13 93.2598 217.17V217.39H95.8198V217.17C95.5198 217.15 95.3098 217.11 95.1998 217.07C95.0198 216.99 94.9398 216.85 94.9398 216.65C94.9398 216.55 94.9698 216.41 95.0398 216.24C95.1098 216.07 95.3098 215.59 95.6398 214.8H99.0497L99.5698 215.96C99.6498 216.12 99.6998 216.28 99.7498 216.43C99.7898 216.58 99.8098 216.68 99.8098 216.74C99.8098 216.92 99.7597 217.03 99.6497 217.07C99.5397 217.11 99.2998 217.15 98.9198 217.18V217.4H102.21V217.18C101.91 217.14 101.69 217.07 101.56 216.96C101.43 216.85 101.25 216.57 101.03 216.12ZM95.8597 214.31L97.3498 211L98.8297 214.31H95.8597Z" fill="white"/>
<path d="M108.609 216.67C108.209 216.85 107.429 216.93 106.279 216.93C105.989 216.93 105.779 216.93 105.679 216.92C105.569 216.92 105.469 216.91 105.369 216.9C105.209 216.88 105.099 216.83 105.049 216.76C104.999 216.68 104.979 216.58 104.979 216.45V210.67C104.979 210.27 105.059 210.01 105.219 209.89C105.379 209.77 105.699 209.7 106.179 209.67V209.45H102.529V209.67C103.009 209.7 103.319 209.78 103.459 209.91C103.599 210.04 103.669 210.32 103.669 210.75V216.1C103.669 216.55 103.599 216.83 103.459 216.94C103.319 217.05 103.009 217.13 102.539 217.18V217.4H109.489L110.119 215.32H109.789C109.399 216.04 109.009 216.49 108.609 216.67Z" fill="white"/>
<path d="M44.3502 212.48H0.910156V214.35H44.3502V212.48Z" fill="white"/>
<path d="M161.29 212.48H117.85V214.35H161.29V212.48Z" fill="white"/>
<path d="M3.97015 186.37C3.50015 186.32 3.20015 186.23 3.06015 186.1C2.85015 185.9 2.75015 185.47 2.75015 184.81V179.98L6.03015 186.59H6.21014L9.55014 179.69V185.13C9.55014 185.64 9.49014 185.97 9.36014 186.1C9.23014 186.24 8.90016 186.32 8.38016 186.36V186.59H12.0201V186.36C11.5401 186.32 11.2301 186.24 11.0901 186.12C10.9501 186 10.8802 185.71 10.8802 185.27V179.89C10.8802 179.46 10.9501 179.18 11.0901 179.05C11.2301 178.92 11.5401 178.84 12.0201 178.8V178.58H9.43015L6.51016 184.61L3.52014 178.58H0.950165V178.8C1.48016 178.82 1.81014 178.9 1.96014 179.03C2.11014 179.16 2.18015 179.45 2.18015 179.88V184.8C2.18015 185.44 2.10016 185.84 1.95016 186.02C1.80016 186.2 1.45016 186.31 0.910156 186.36V186.59H3.97015V186.37Z" fill="white"/>
<path d="M16.7602 186.37C16.2302 186.34 15.8902 186.26 15.7302 186.15C15.5702 186.04 15.4901 185.75 15.4901 185.28V179.89C15.4901 179.45 15.5702 179.16 15.7302 179.03C15.8902 178.9 16.2302 178.83 16.7602 178.8V178.58H12.9102V178.8C13.4402 178.82 13.7802 178.9 13.9402 179.03C14.1002 179.16 14.1801 179.45 14.1801 179.89V185.28C14.1801 185.75 14.1002 186.04 13.9402 186.15C13.7802 186.26 13.4402 186.34 12.9102 186.37V186.6H16.7602V186.37Z" fill="white"/>
<path d="M18.5693 186.03C18.4193 186.21 18.0693 186.32 17.5293 186.37V186.6H20.5893V186.37C20.1193 186.32 19.8193 186.23 19.6793 186.1C19.4693 185.9 19.3693 185.47 19.3693 184.81V180.09L25.1293 186.73H25.3493V180.35C25.3493 179.72 25.4293 179.31 25.5993 179.13C25.7693 178.95 26.0993 178.84 26.5893 178.79V178.57H23.5293V178.79C24.0093 178.83 24.3193 178.91 24.4593 179.04C24.6693 179.24 24.7793 179.67 24.7793 180.33V184.36L19.7493 178.56H17.5293V178.78C17.7993 178.79 17.9993 178.82 18.1293 178.87C18.2593 178.92 18.4293 179.05 18.6193 179.26L18.7993 179.45V184.79C18.7993 185.45 18.7193 185.86 18.5693 186.03Z" fill="white"/>
<path d="M31.2094 186.37C30.6794 186.34 30.3394 186.26 30.1794 186.15C30.0194 186.04 29.9394 185.75 29.9394 185.28V179.89C29.9394 179.45 30.0194 179.16 30.1794 179.03C30.3394 178.9 30.6794 178.83 31.2094 178.8V178.58H27.3594V178.8C27.8894 178.82 28.2294 178.9 28.3894 179.03C28.5494 179.16 28.6294 179.45 28.6294 179.89V185.28C28.6294 185.75 28.5494 186.04 28.3894 186.15C28.2294 186.26 27.8894 186.34 27.3594 186.37V186.6H31.2094V186.37Z" fill="white"/>
<path d="M38.2304 184.53C38.2304 184.06 38.0904 183.65 37.8004 183.3C37.5104 182.96 37.0004 182.58 36.2904 182.17L35.1504 181.51C34.7204 181.27 34.4104 181.03 34.2004 180.81C34.0004 180.59 33.9004 180.32 33.9004 180.01C33.9004 179.66 34.0304 179.39 34.3004 179.2C34.5604 179.01 34.8804 178.91 35.2304 178.91C35.6904 178.91 36.1504 179.06 36.6204 179.37C37.0904 179.68 37.4304 180.22 37.6404 181H37.9504L37.6604 178.42H37.3904C37.3604 178.55 37.3104 178.65 37.2504 178.72C37.1904 178.79 37.0804 178.83 36.9204 178.83C36.8604 178.83 36.6204 178.76 36.2004 178.63C35.7804 178.49 35.4204 178.43 35.1304 178.43C34.4104 178.43 33.8304 178.63 33.3904 179.04C32.9504 179.45 32.7404 179.95 32.7404 180.57C32.7404 181.03 32.9204 181.45 33.2904 181.84C33.4904 182.04 33.7604 182.24 34.0904 182.44L35.2004 183.08C35.8404 183.45 36.2604 183.73 36.4604 183.91C36.7604 184.2 36.9204 184.54 36.9204 184.94C36.9204 185.38 36.7704 185.72 36.4704 185.96C36.1704 186.21 35.8104 186.33 35.3904 186.33C34.6204 186.33 33.9804 186.05 33.4704 185.48C33.1704 185.16 32.9204 184.72 32.7004 184.18H32.4004L32.7904 186.76H33.0804C33.1004 186.66 33.1304 186.57 33.1904 186.48C33.2404 186.39 33.3504 186.35 33.5004 186.35C33.5604 186.35 33.8104 186.42 34.2504 186.56C34.6904 186.7 35.1104 186.77 35.5104 186.77C36.3104 186.77 36.9704 186.56 37.4804 186.13C37.9704 185.69 38.2304 185.16 38.2304 184.53Z" fill="white"/>
<path d="M44.9193 179.09C45.6693 179.09 46.1693 179.19 46.4093 179.38C46.6493 179.58 46.8393 180 46.9893 180.64H47.2993L47.2293 178.58H39.8593L39.7793 180.64H40.0993C40.2293 179.99 40.4293 179.57 40.6893 179.37C40.9493 179.18 41.4393 179.08 42.1593 179.08H42.8893V185.14C42.8893 185.66 42.8193 185.99 42.6893 186.12C42.5493 186.25 42.2093 186.33 41.6593 186.37V186.59H45.4593V186.37C44.9293 186.33 44.5893 186.26 44.4293 186.15C44.2693 186.04 44.1893 185.75 44.1893 185.28V179.08H44.9193V179.09Z" fill="white"/>
<path d="M52.5894 177.99H53.1194L51.2094 176.2C51.1194 176.12 51.0395 176.05 50.9395 176C50.8495 175.94 50.7395 175.91 50.6295 175.91C50.5195 175.91 50.4095 175.95 50.3195 176.02C50.2295 176.09 50.1895 176.19 50.1895 176.3C50.1895 176.4 50.2194 176.49 50.2794 176.57C50.3394 176.65 50.4394 176.73 50.5794 176.81L52.5894 177.99Z" fill="white"/>
<path d="M49.18 186.13C49.04 186.24 48.73 186.32 48.25 186.37V186.6H55.29L55.88 184.55H55.52C55.19 185.24 54.81 185.68 54.39 185.86C53.97 186.04 53.32 186.13 52.43 186.13C51.61 186.13 51.12 186.11 50.96 186.06C50.8 186.02 50.71 185.87 50.71 185.63V182.63H52.72C53.27 182.63 53.62 182.71 53.78 182.86C53.93 183.01 54.06 183.32 54.15 183.79H54.46V181H54.15C54.06 181.47 53.93 181.78 53.78 181.93C53.63 182.08 53.27 182.16 52.72 182.16H50.71V179.46C50.71 179.3 50.73 179.19 50.78 179.14C50.83 179.08 50.94 179.05 51.13 179.05H52.9C53.66 179.05 54.15 179.13 54.38 179.28C54.6 179.44 54.76 179.78 54.88 180.32H55.21L55.17 178.59H48.25V178.81C48.73 178.84 49.05 178.92 49.19 179.06C49.33 179.19 49.4 179.47 49.4 179.9V185.29C49.39 185.74 49.32 186.02 49.18 186.13Z" fill="white"/>
<path d="M59.7505 182.86L63.0105 186.59H65.1104V186.36C64.8504 186.34 64.6405 186.28 64.4705 186.2C64.3005 186.11 64.1405 185.98 63.9705 185.79L61.2905 182.72C62.0105 182.62 62.5905 182.41 63.0105 182.08C63.4305 181.76 63.6405 181.29 63.6405 180.69C63.6405 179.79 63.1705 179.18 62.2205 178.84C61.7205 178.66 61.0905 178.57 60.3405 178.57H56.7305V178.79C57.2005 178.83 57.5005 178.91 57.6405 179.04C57.7805 179.17 57.8505 179.45 57.8505 179.88V185.13C57.8505 185.63 57.7905 185.95 57.6705 186.09C57.5505 186.23 57.2405 186.32 56.7305 186.36V186.59H60.3505V186.36C59.8605 186.32 59.5405 186.24 59.3905 186.12C59.2405 186 59.1705 185.72 59.1705 185.27V182.88L59.7505 182.86ZM59.1805 179.46C59.1805 179.28 59.2204 179.16 59.3004 179.11C59.3804 179.06 59.6105 179.04 59.9805 179.04C60.5305 179.04 60.9704 179.11 61.3004 179.25C61.9204 179.51 62.2305 179.98 62.2305 180.68C62.2305 181.41 61.8905 181.9 61.1905 182.17C60.7905 182.32 60.1205 182.41 59.1805 182.44V179.46Z" fill="white"/>
<path d="M73.5907 184.55H73.2307C72.8907 185.24 72.5207 185.68 72.1007 185.85C71.6807 186.03 71.0307 186.12 70.1407 186.12C69.3307 186.12 68.8407 186.1 68.6707 186.05C68.5107 186.01 68.4207 185.86 68.4207 185.62V182.62H70.4307C70.9807 182.62 71.3307 182.7 71.4907 182.85C71.6407 183 71.7707 183.31 71.8707 183.78H72.1707V181H71.8707C71.7807 181.47 71.6507 181.78 71.5007 181.93C71.3507 182.08 70.9907 182.16 70.4407 182.16H68.4307V179.46C68.4307 179.3 68.4507 179.19 68.5007 179.14C68.5407 179.08 68.6607 179.05 68.8507 179.05H70.6207C71.3807 179.05 71.8707 179.13 72.1007 179.29C72.3207 179.45 72.4907 179.79 72.6007 180.33H72.9307L72.8907 178.6H65.9707V178.82C66.4507 178.85 66.7607 178.93 66.9107 179.07C67.0507 179.2 67.1207 179.48 67.1207 179.91V185.3C67.1207 185.76 67.0507 186.04 66.9107 186.15C66.7707 186.26 66.4607 186.34 65.9807 186.39V186.62H73.0007L73.5907 184.55Z" fill="white"/>
<path d="M85.4406 185.72C85.9706 185.35 86.3706 184.89 86.6406 184.34C86.9006 183.8 87.0406 183.22 87.0406 182.62C87.0406 180.94 86.3005 179.78 84.8305 179.13C84.0105 178.77 83.0105 178.59 81.8305 178.59H78.3206V178.81C78.8006 178.84 79.1105 178.92 79.2505 179.05C79.3905 179.18 79.4605 179.46 79.4605 179.9V185.29C79.4605 185.75 79.3905 186.03 79.2405 186.14C79.1005 186.25 78.7905 186.33 78.3105 186.38V186.61H81.9305C82.9005 186.61 83.7206 186.5 84.3806 186.27C84.7406 186.13 85.1006 185.95 85.4406 185.72ZM81.5805 186.15C81.2505 186.15 81.0405 186.12 80.9305 186.05C80.8305 185.99 80.7705 185.86 80.7705 185.66V179.5C80.7705 179.3 80.8205 179.17 80.9305 179.11C81.0305 179.05 81.2305 179.02 81.5205 179.02C82.6905 179.02 83.6406 179.29 84.3506 179.82C85.1806 180.45 85.6006 181.38 85.6006 182.63C85.6006 184.02 85.1005 185.01 84.0905 185.58C83.4305 185.96 82.5905 186.15 81.5805 186.15Z" fill="white"/>
<path d="M88.93 186.13C88.79 186.24 88.48 186.32 88 186.37V186.6H95.04L95.63 184.55H95.27C94.94 185.24 94.56 185.68 94.14 185.85C93.72 186.03 93.07 186.12 92.18 186.12C91.37 186.12 90.88 186.1 90.71 186.05C90.55 186.01 90.46 185.86 90.46 185.62V182.62H92.47C93.02 182.62 93.37 182.7 93.53 182.85C93.68 183 93.81 183.31 93.91 183.78H94.21V181H93.91C93.82 181.47 93.69 181.78 93.54 181.93C93.39 182.08 93.03 182.16 92.48 182.16H90.47V179.46C90.47 179.3 90.49 179.19 90.54 179.14C90.58 179.08 90.7 179.05 90.89 179.05H92.66C93.42 179.05 93.91 179.13 94.14 179.29C94.36 179.45 94.53 179.79 94.64 180.33H94.97L94.93 178.6H88V178.82C88.48 178.85 88.79 178.93 88.94 179.07C89.08 179.2 89.15 179.48 89.15 179.91V185.3C89.15 185.74 89.07 186.02 88.93 186.13Z" fill="white"/>
<path d="M100.85 186.13C100.71 186.24 100.4 186.32 99.9199 186.37V186.6H106.93L107.57 184.5H107.24C106.86 185.23 106.46 185.68 106.06 185.86C105.65 186.04 104.87 186.13 103.71 186.13C103.41 186.13 103.21 186.13 103.1 186.12C102.99 186.12 102.89 186.11 102.79 186.1C102.62 186.08 102.52 186.03 102.47 185.96C102.42 185.88 102.4 185.78 102.4 185.64V179.82C102.4 179.42 102.48 179.16 102.64 179.03C102.8 178.91 103.13 178.83 103.6 178.81V178.59H99.9199V178.81C100.4 178.84 100.71 178.92 100.86 179.06C101 179.19 101.07 179.47 101.07 179.9V185.29C101.06 185.74 100.99 186.02 100.85 186.13Z" fill="white"/>
<path d="M112.22 178.44L109.51 184.38C109.1 185.27 108.82 185.82 108.65 186.02C108.48 186.22 108.23 186.34 107.9 186.37V186.6H110.48V186.37C110.18 186.35 109.97 186.31 109.86 186.26C109.68 186.18 109.59 186.04 109.59 185.84C109.59 185.74 109.62 185.6 109.69 185.42C109.76 185.25 109.96 184.76 110.3 183.97H113.73L114.25 185.14C114.33 185.3 114.39 185.46 114.43 185.61C114.47 185.76 114.49 185.86 114.49 185.92C114.49 186.1 114.43 186.21 114.32 186.25C114.21 186.3 113.96 186.33 113.58 186.36V186.59H116.89V186.36C116.58 186.32 116.37 186.25 116.24 186.14C116.11 186.03 115.94 185.75 115.72 185.3L112.47 178.43H112.22V178.44ZM110.51 183.49L112.01 180.15L113.5 183.49H110.51Z" fill="white"/>
<path d="M120.811 186.74C120.831 186.64 120.861 186.55 120.921 186.46C120.971 186.37 121.081 186.33 121.231 186.33C121.291 186.33 121.541 186.4 121.981 186.54C122.421 186.68 122.841 186.75 123.241 186.75C124.041 186.75 124.701 186.54 125.211 186.11C125.721 185.68 125.981 185.15 125.981 184.52C125.981 184.05 125.841 183.64 125.551 183.29C125.261 182.95 124.751 182.57 124.041 182.16L122.901 181.5C122.471 181.26 122.161 181.02 121.951 180.8C121.751 180.58 121.651 180.31 121.651 180C121.651 179.65 121.781 179.38 122.051 179.19C122.311 179 122.631 178.9 122.981 178.9C123.441 178.9 123.901 179.05 124.371 179.36C124.841 179.67 125.181 180.21 125.391 180.99H125.701L125.411 178.41H125.141C125.111 178.54 125.061 178.64 125.001 178.71C124.941 178.78 124.831 178.82 124.671 178.82C124.611 178.82 124.371 178.75 123.951 178.62C123.531 178.48 123.181 178.42 122.881 178.42C122.161 178.42 121.581 178.62 121.141 179.03C120.701 179.44 120.491 179.94 120.491 180.56C120.491 181.02 120.671 181.44 121.041 181.83C121.241 182.03 121.511 182.23 121.841 182.43L122.951 183.07C123.591 183.44 124.011 183.72 124.211 183.9C124.511 184.19 124.671 184.53 124.671 184.93C124.671 185.37 124.521 185.71 124.211 185.95C123.911 186.2 123.551 186.32 123.131 186.32C122.361 186.32 121.721 186.04 121.211 185.47C120.911 185.15 120.661 184.71 120.441 184.17H120.141L120.531 186.75H120.811V186.74Z" fill="white"/>
<path d="M129.59 186.37C129.29 186.35 129.08 186.31 128.97 186.26C128.79 186.18 128.7 186.04 128.7 185.84C128.7 185.74 128.73 185.6 128.8 185.42C128.87 185.25 129.07 184.76 129.41 183.97H132.84L133.36 185.14C133.44 185.3 133.5 185.46 133.54 185.61C133.58 185.76 133.6 185.86 133.6 185.92C133.6 186.1 133.55 186.21 133.44 186.25C133.33 186.3 133.08 186.33 132.7 186.36V186.59H136.01V186.36C135.7 186.32 135.49 186.25 135.36 186.14C135.23 186.03 135.06 185.75 134.84 185.3L131.6 178.43H131.34L128.63 184.37C128.22 185.26 127.94 185.81 127.77 186.01C127.6 186.21 127.35 186.33 127.02 186.36V186.59H129.6V186.37H129.59ZM131.13 180.15L132.62 183.49H129.63L131.13 180.15Z" fill="white"/>
<path d="M139.4 186.37C138.93 186.32 138.63 186.23 138.49 186.1C138.28 185.9 138.18 185.47 138.18 184.81V180.09L143.94 186.73H144.16V180.35C144.16 179.72 144.24 179.31 144.41 179.13C144.58 178.95 144.91 178.84 145.4 178.79V178.57H142.34V178.79C142.82 178.83 143.13 178.91 143.27 179.04C143.48 179.24 143.59 179.67 143.59 180.33V184.36L138.56 178.56H136.34V178.78C136.61 178.79 136.81 178.82 136.94 178.87C137.07 178.92 137.24 179.05 137.43 179.26L137.61 179.45V184.79C137.61 185.43 137.53 185.83 137.38 186.01C137.23 186.19 136.88 186.3 136.34 186.35V186.58H139.4V186.37Z" fill="white"/>
<path d="M146.66 179.37C146.92 179.18 147.41 179.08 148.13 179.08H148.86V185.14C148.86 185.66 148.79 185.99 148.66 186.12C148.52 186.25 148.18 186.33 147.63 186.37V186.59H151.43V186.37C150.9 186.33 150.56 186.26 150.4 186.15C150.24 186.04 150.16 185.75 150.16 185.28V179.08H150.88C151.63 179.08 152.13 179.18 152.37 179.37C152.61 179.57 152.8 179.99 152.95 180.63H153.26L153.19 178.57H145.82L145.74 180.63H146.06C146.21 179.99 146.4 179.57 146.66 179.37Z" fill="white"/>
<path d="M161.29 184.55H160.93C160.6 185.24 160.22 185.68 159.8 185.85C159.38 186.03 158.73 186.12 157.84 186.12C157.03 186.12 156.54 186.1 156.37 186.05C156.21 186.01 156.12 185.87 156.12 185.62V182.62H158.13C158.68 182.62 159.03 182.7 159.19 182.85C159.34 183 159.47 183.31 159.57 183.78H159.87V181H159.57C159.48 181.47 159.35 181.78 159.2 181.93C159.05 182.08 158.69 182.16 158.14 182.16H156.13V179.46C156.13 179.3 156.15 179.2 156.2 179.14C156.24 179.08 156.36 179.05 156.55 179.05H158.32C159.08 179.05 159.57 179.13 159.8 179.28C160.02 179.44 160.19 179.78 160.3 180.32H160.63L160.58 178.59H153.66V178.81C154.14 178.84 154.45 178.92 154.6 179.06C154.74 179.19 154.81 179.47 154.81 179.9V185.29C154.81 185.74 154.74 186.03 154.6 186.14C154.46 186.25 154.15 186.33 153.67 186.38V186.6H160.71L161.29 184.55Z" fill="white"/>
<path d="M159.11 176.81C159.24 176.73 159.34 176.65 159.41 176.58C159.48 176.51 159.51 176.41 159.51 176.3C159.51 176.18 159.46 176.09 159.37 176.01C159.28 175.94 159.18 175.9 159.07 175.9C158.96 175.9 158.85 175.93 158.75 176C158.65 176.07 158.56 176.13 158.5 176.19L156.59 177.98H157.12L159.11 176.81Z" fill="white"/>
<path d="M8.48016 199.01H8.12015C7.79015 199.69 7.41015 200.13 7.00015 200.3C6.58015 200.48 5.94015 200.57 5.06015 200.57C4.25015 200.57 3.77016 200.55 3.60016 200.5C3.44016 200.46 3.36014 200.32 3.36014 200.08V197.1H5.35016C5.90016 197.1 6.25015 197.18 6.40015 197.33C6.55015 197.48 6.68014 197.79 6.77014 198.25H7.07016V195.47H6.77014C6.68014 195.93 6.56015 196.24 6.40015 196.39C6.25015 196.54 5.90016 196.62 5.35016 196.62H3.36014V193.94C3.36014 193.78 3.38015 193.68 3.43015 193.62C3.48015 193.56 3.59015 193.53 3.78015 193.53H5.54016C6.30016 193.53 6.79015 193.61 7.00015 193.76C7.22015 193.92 7.38014 194.26 7.49014 194.79H7.82016L7.78015 193.07H0.910156V193.29C1.39016 193.32 1.70015 193.4 1.84015 193.53C1.98015 193.66 2.05014 193.94 2.05014 194.37V199.72C2.05014 200.17 1.98015 200.45 1.84015 200.56C1.70015 200.67 1.39017 200.75 0.920166 200.8V201.02H7.91016L8.48016 199.01Z" fill="white"/>
<path d="M14.1097 193.58C14.8597 193.58 15.3497 193.68 15.5797 193.87C15.8097 194.06 16.0098 194.48 16.1598 195.12H16.4698L16.3997 193.08H9.08975L9.00977 195.12H9.32974C9.45974 194.48 9.65976 194.06 9.90976 193.86C10.1698 193.67 10.6598 193.57 11.3698 193.57H12.0998V199.58C12.0998 200.1 12.0297 200.42 11.8997 200.55C11.7697 200.68 11.4198 200.76 10.8798 200.8V201.02H14.6497V200.8C14.1198 200.76 13.7798 200.69 13.6298 200.58C13.4698 200.47 13.3997 200.18 13.3997 199.72V193.57H14.1097V193.58Z" fill="white"/>
<path d="M26.3405 200.7C26.7005 200.58 27.0506 200.4 27.3906 200.17C27.9206 199.8 28.3205 199.34 28.5805 198.8C28.8405 198.26 28.9706 197.69 28.9706 197.09C28.9706 195.43 28.2405 194.27 26.7705 193.63C25.9605 193.27 24.9606 193.09 23.7906 193.09H20.3105V193.31C20.7905 193.34 21.1005 193.42 21.2405 193.55C21.3805 193.68 21.4506 193.96 21.4506 194.4V199.75C21.4506 200.2 21.3805 200.48 21.2405 200.59C21.1005 200.7 20.7906 200.78 20.3206 200.83V201.05H23.9106C24.8706 201.04 25.6805 200.93 26.3405 200.7ZM22.9106 200.5C22.8106 200.44 22.7606 200.31 22.7606 200.11V194C22.7606 193.8 22.8106 193.67 22.9106 193.61C23.0106 193.55 23.2105 193.52 23.5005 193.52C24.6705 193.52 25.6005 193.79 26.3105 194.32C27.1305 194.94 27.5505 195.87 27.5505 197.1C27.5505 198.48 27.0505 199.46 26.0505 200.03C25.4005 200.4 24.5705 200.59 23.5605 200.59C23.2305 200.59 23.0206 200.56 22.9106 200.5Z" fill="white"/>
<path d="M37.3395 199.01H36.9796C36.6496 199.69 36.2695 200.13 35.8595 200.3C35.4395 200.48 34.7996 200.57 33.9196 200.57C33.1096 200.57 32.6295 200.55 32.4595 200.5C32.2995 200.46 32.2195 200.32 32.2195 200.08V197.1H34.2095C34.7595 197.1 35.1096 197.18 35.2596 197.33C35.4096 197.48 35.5395 197.79 35.6295 198.25H35.9295V195.47H35.6295C35.5395 195.93 35.4196 196.24 35.2596 196.39C35.1096 196.54 34.7595 196.62 34.2095 196.62H32.2195V193.94C32.2195 193.78 32.2396 193.68 32.2896 193.62C32.3296 193.56 32.4496 193.53 32.6396 193.53H34.3995C35.1595 193.53 35.6495 193.61 35.8595 193.76C36.0795 193.92 36.2395 194.26 36.3495 194.79H36.6795L36.6396 193.07H29.7695V193.29C30.2495 193.32 30.5596 193.4 30.6996 193.53C30.8396 193.66 30.9095 193.94 30.9095 194.37V199.72C30.9095 200.17 30.8396 200.45 30.6996 200.56C30.5596 200.67 30.2495 200.75 29.7795 200.8V201.02H36.7695L37.3395 199.01Z" fill="white"/>
<path d="M47.33 200.31C46.93 200.49 46.15 200.57 45 200.57C44.71 200.57 44.5 200.57 44.4 200.56C44.29 200.56 44.19 200.55 44.09 200.54C43.93 200.52 43.82 200.47 43.77 200.4C43.72 200.32 43.7 200.22 43.7 200.09V194.31C43.7 193.91 43.78 193.65 43.94 193.53C44.1 193.41 44.42 193.34 44.9 193.31V193.09H41.25V193.31C41.73 193.34 42.04 193.42 42.18 193.55C42.32 193.68 42.39 193.96 42.39 194.39V199.74C42.39 200.19 42.32 200.47 42.18 200.58C42.04 200.69 41.73 200.77 41.26 200.82V201.04H48.21L48.84 198.96H48.51C48.13 199.68 47.74 200.13 47.33 200.31Z" fill="white"/>
<path d="M49.9909 192.92C49.7109 192.92 49.511 193 49.391 193.14C49.271 193.29 49.2109 193.44 49.2109 193.6C49.2109 193.81 49.2909 193.96 49.4409 194.07C49.5909 194.18 49.7509 194.23 49.9109 194.23C49.9509 194.23 50.1009 194.22 50.3409 194.19C50.3909 194.19 50.4309 194.2 50.4609 194.23C50.4909 194.25 50.511 194.29 50.511 194.35C50.511 194.59 50.411 194.82 50.201 195.05C49.991 195.28 49.741 195.47 49.451 195.63L49.571 195.86C49.931 195.71 50.261 195.47 50.571 195.13C50.871 194.79 51.0309 194.41 51.0309 194C51.0309 193.69 50.931 193.44 50.731 193.23C50.521 193.02 50.2809 192.92 49.9909 192.92Z" fill="white"/>
<path d="M59.0497 200.7C58.9397 200.75 58.6997 200.78 58.3197 200.81V201.03H61.6097V200.81C61.3097 200.77 61.0897 200.7 60.9597 200.59C60.8297 200.48 60.6597 200.2 60.4497 199.75L57.2297 192.94H56.9697L54.2797 198.84C53.8797 199.72 53.5897 200.27 53.4297 200.46C53.2597 200.66 53.0097 200.77 52.6797 200.81V201.03H55.2397V200.81C54.9397 200.79 54.7297 200.75 54.6197 200.7C54.4397 200.62 54.3597 200.48 54.3597 200.28C54.3597 200.18 54.3897 200.04 54.4597 199.87C54.5297 199.7 54.7297 199.22 55.0597 198.43H58.4697L58.9897 199.59C59.0697 199.75 59.1197 199.91 59.1697 200.06C59.2097 200.21 59.2297 200.31 59.2297 200.37C59.2097 200.55 59.1597 200.66 59.0497 200.7ZM55.2697 197.95L56.7597 194.64L58.2397 197.95H55.2697Z" fill="white"/>
<path d="M69.1105 200.59C69.5405 200.34 69.8905 200.04 70.1805 199.7L69.9406 199.48C69.5506 199.82 69.2005 200.08 68.8705 200.24C68.3105 200.54 67.6905 200.69 67.0205 200.69C66.0905 200.69 65.3306 200.37 64.7306 199.73C64.1306 199.09 63.8206 198.23 63.8206 197.16C63.8206 195.99 64.1105 195.08 64.6805 194.41C65.2505 193.74 65.9905 193.41 66.9005 193.41C67.8005 193.41 68.5106 193.72 69.0406 194.34C69.3206 194.67 69.5405 195.1 69.7105 195.64H70.0106L69.8906 192.94H69.6205C69.5805 193.07 69.5006 193.17 69.3906 193.23C69.2806 193.29 69.1706 193.32 69.0406 193.32C68.9806 193.32 68.7105 193.26 68.2105 193.13C67.7205 193 67.2405 192.94 66.7705 192.94C65.4305 192.94 64.3405 193.36 63.5005 194.19C62.7005 194.98 62.3105 195.97 62.3105 197.14C62.3105 198.28 62.6906 199.24 63.4406 200C64.2606 200.83 65.3605 201.24 66.7505 201.24C67.6005 201.24 68.3905 201.02 69.1105 200.59Z" fill="white"/>
<path d="M76.0707 193.58C76.8207 193.58 77.3107 193.68 77.5407 193.87C77.7707 194.06 77.9707 194.48 78.1207 195.12H78.4307L78.3607 193.08H71.0507L70.9707 195.12H71.2907C71.4207 194.48 71.6207 194.06 71.8707 193.86C72.1307 193.67 72.6207 193.57 73.3307 193.57H74.0607V199.58C74.0607 200.1 73.9907 200.42 73.8607 200.55C73.7307 200.68 73.3807 200.76 72.8407 200.8V201.02H76.6107V200.8C76.0807 200.76 75.7407 200.69 75.5907 200.58C75.4307 200.47 75.3607 200.18 75.3607 199.72V193.57H76.0707V193.58Z" fill="white"/>
<path d="M81.8899 193.53C82.0499 193.4 82.3899 193.33 82.9099 193.3V193.08H79.0898V193.3C79.6198 193.32 79.9598 193.4 80.1098 193.53C80.2698 193.66 80.3398 193.94 80.3398 194.39V199.74C80.3398 200.2 80.2598 200.49 80.1098 200.6C79.9498 200.71 79.6098 200.78 79.0898 200.82V201.04H82.9099V200.82C82.3799 200.79 82.0399 200.71 81.8899 200.6C81.7299 200.49 81.6599 200.2 81.6599 199.74V194.39C81.6499 193.95 81.7299 193.66 81.8899 193.53Z" fill="white"/>
<path d="M87.9798 201.21C89.1098 201.21 90.0798 200.87 90.8798 200.18C91.7698 199.41 92.2198 198.37 92.2198 197.07C92.2198 195.79 91.7897 194.76 90.9297 193.99C90.1297 193.28 89.1497 192.92 87.9897 192.92C86.8297 192.92 85.8498 193.27 85.0598 193.98C84.1898 194.76 83.7598 195.78 83.7598 197.07C83.7598 198.29 84.1698 199.29 84.9798 200.07C85.7598 200.83 86.7698 201.21 87.9798 201.21ZM86.0197 194.26C86.5597 193.66 87.2097 193.35 87.9897 193.35C88.7397 193.35 89.3898 193.64 89.9398 194.23C90.4898 194.81 90.7598 195.76 90.7598 197.07C90.7598 198.37 90.4898 199.31 89.9498 199.9C89.4098 200.49 88.7598 200.78 87.9998 200.78C87.2198 200.78 86.5598 200.48 86.0298 199.87C85.4898 199.27 85.2298 198.33 85.2298 197.07C85.2098 195.8 85.4797 194.86 86.0197 194.26Z" fill="white"/>
<path d="M96.0593 200.82C95.5893 200.77 95.2893 200.68 95.1593 200.56C94.9493 200.36 94.8493 199.93 94.8493 199.28V194.6L100.569 201.19H100.789V194.86C100.789 194.23 100.869 193.83 101.039 193.65C101.199 193.47 101.529 193.36 102.029 193.31V193.09H98.9893V193.31C99.4693 193.35 99.7693 193.43 99.9093 193.56C100.119 193.76 100.229 194.19 100.229 194.84V198.83L95.2393 193.08H93.0293V193.3C93.2993 193.31 93.4893 193.34 93.6293 193.39C93.7593 193.44 93.9193 193.57 94.1093 193.77L94.2893 193.96V199.26C94.2893 199.89 94.2093 200.3 94.0593 200.47C93.9093 200.64 93.5593 200.76 93.0293 200.81V201.03H96.0693V200.82H96.0593Z" fill="white"/>
<path d="M110.21 196.64L109.07 195.99C108.65 195.75 108.33 195.51 108.13 195.29C107.93 195.07 107.83 194.81 107.83 194.5C107.83 194.16 107.96 193.89 108.22 193.69C108.48 193.5 108.79 193.4 109.14 193.4C109.6 193.4 110.05 193.55 110.52 193.86C110.99 194.17 111.32 194.7 111.53 195.47H111.84L111.56 192.91H111.29C111.26 193.04 111.21 193.14 111.15 193.21C111.09 193.28 110.98 193.32 110.82 193.32C110.76 193.32 110.52 193.25 110.11 193.12C109.7 192.98 109.34 192.92 109.05 192.92C108.33 192.92 107.76 193.12 107.33 193.52C106.9 193.92 106.68 194.43 106.68 195.03C106.68 195.49 106.86 195.91 107.23 196.29C107.43 196.49 107.69 196.69 108.02 196.88L109.12 197.52C109.75 197.89 110.17 198.16 110.37 198.35C110.67 198.64 110.82 198.98 110.82 199.37C110.82 199.8 110.67 200.14 110.37 200.39C110.07 200.63 109.71 200.75 109.3 200.75C108.54 200.75 107.9 200.47 107.39 199.91C107.1 199.59 106.84 199.16 106.62 198.62H106.32L106.7 201.18H106.98C107 201.08 107.03 200.99 107.09 200.9C107.14 200.81 107.24 200.77 107.4 200.77C107.46 200.77 107.71 200.84 108.15 200.98C108.59 201.12 109 201.19 109.4 201.19C110.19 201.19 110.85 200.98 111.36 200.56C111.87 200.14 112.13 199.61 112.13 198.98C112.13 198.51 111.99 198.1 111.7 197.76C111.42 197.42 110.92 197.05 110.21 196.64Z" fill="white"/>
<path d="M122.03 197.07C122.03 195.79 121.6 194.76 120.74 193.99C119.94 193.28 118.96 192.92 117.8 192.92C116.64 192.92 115.66 193.27 114.87 193.98C114 194.76 113.57 195.78 113.57 197.07C113.57 198.29 113.98 199.29 114.79 200.07C115.59 200.83 116.6 201.21 117.81 201.21C118.94 201.21 119.91 200.87 120.71 200.18C121.58 199.41 122.03 198.37 122.03 197.07ZM119.75 199.89C119.21 200.48 118.56 200.77 117.79 200.77C117.01 200.77 116.35 200.47 115.82 199.86C115.28 199.26 115.02 198.32 115.02 197.06C115.02 195.79 115.29 194.86 115.82 194.25C116.36 193.65 117.01 193.34 117.79 193.34C118.54 193.34 119.19 193.63 119.74 194.22C120.29 194.8 120.56 195.75 120.56 197.06C120.56 198.36 120.29 199.3 119.75 199.89Z" fill="white"/>
<path d="M127.59 193.42C128.49 193.42 129.2 193.73 129.73 194.35C130.01 194.68 130.23 195.11 130.4 195.65H130.7L130.58 192.95H130.31C130.27 193.08 130.19 193.18 130.08 193.24C129.97 193.3 129.86 193.33 129.73 193.33C129.67 193.33 129.4 193.27 128.9 193.14C128.41 193.01 127.93 192.95 127.46 192.95C126.12 192.95 125.03 193.37 124.19 194.2C123.39 194.99 123 195.98 123 197.15C123 198.29 123.38 199.25 124.13 200.01C124.95 200.84 126.05 201.25 127.44 201.25C128.29 201.25 129.07 201.03 129.79 200.6C130.22 200.35 130.57 200.05 130.86 199.71L130.62 199.49C130.23 199.83 129.88 200.09 129.55 200.25C128.99 200.55 128.37 200.7 127.7 200.7C126.77 200.7 126.01 200.38 125.41 199.74C124.81 199.1 124.5 198.24 124.5 197.17C124.5 196 124.79 195.09 125.36 194.42C125.95 193.75 126.69 193.42 127.59 193.42Z" fill="white"/>
<path d="M134.499 193.53C134.659 193.4 134.999 193.33 135.519 193.3V193.08H131.699V193.3C132.229 193.32 132.569 193.4 132.719 193.53C132.879 193.66 132.949 193.94 132.949 194.39V199.74C132.949 200.2 132.869 200.49 132.719 200.6C132.559 200.71 132.219 200.78 131.699 200.82V201.04H135.519V200.82C134.989 200.79 134.649 200.71 134.499 200.6C134.339 200.49 134.269 200.2 134.269 199.74V194.39C134.269 193.95 134.349 193.66 134.499 193.53Z" fill="white"/>
<path d="M138.729 200.82C138.429 200.8 138.219 200.76 138.109 200.71C137.929 200.63 137.849 200.49 137.849 200.29C137.849 200.19 137.879 200.05 137.949 199.88C138.019 199.71 138.219 199.23 138.549 198.44H141.959L142.479 199.6C142.559 199.76 142.609 199.92 142.659 200.07C142.699 200.22 142.719 200.32 142.719 200.38C142.719 200.56 142.669 200.66 142.559 200.71C142.449 200.76 142.209 200.79 141.829 200.82V201.04H145.119V200.82C144.819 200.78 144.599 200.71 144.469 200.6C144.339 200.49 144.169 200.21 143.959 199.76L140.739 192.95H140.479L137.789 198.85C137.389 199.73 137.099 200.28 136.939 200.47C136.769 200.67 136.519 200.78 136.189 200.82V201.04H138.749V200.82H138.729ZM140.249 194.64L141.729 197.95H138.759L140.249 194.64Z" fill="white"/>
<path d="M153.221 198.96H152.891C152.511 199.68 152.121 200.13 151.721 200.31C151.321 200.49 150.541 200.57 149.391 200.57C149.091 200.57 148.891 200.57 148.791 200.56C148.681 200.56 148.581 200.55 148.481 200.54C148.321 200.52 148.211 200.47 148.161 200.4C148.111 200.32 148.091 200.22 148.091 200.09V194.31C148.091 193.91 148.171 193.65 148.331 193.53C148.491 193.41 148.811 193.34 149.291 193.31V193.09H145.641V193.31C146.121 193.34 146.431 193.42 146.571 193.55C146.711 193.68 146.781 193.96 146.781 194.39V199.74C146.781 200.19 146.711 200.47 146.571 200.58C146.431 200.69 146.121 200.77 145.651 200.82V201.04H152.601L153.221 198.96Z" fill="white"/>
<path d="M154.641 200.58C154.501 200.69 154.191 200.77 153.721 200.82V201.04H160.711L161.301 199.01H160.941C160.611 199.69 160.231 200.13 159.821 200.3C159.401 200.48 158.761 200.57 157.881 200.57C157.071 200.57 156.581 200.55 156.421 200.5C156.261 200.46 156.181 200.32 156.181 200.08V197.1H158.171C158.721 197.1 159.071 197.18 159.221 197.33C159.371 197.48 159.501 197.79 159.591 198.25H159.891V195.47H159.591C159.501 195.93 159.381 196.24 159.221 196.39C159.071 196.54 158.721 196.62 158.171 196.62H156.181V193.94C156.181 193.78 156.201 193.68 156.251 193.62C156.291 193.56 156.411 193.53 156.601 193.53H158.361C159.121 193.53 159.611 193.61 159.821 193.76C160.041 193.92 160.201 194.26 160.311 194.79H160.641L160.601 193.07H153.731V193.29C154.211 193.32 154.521 193.4 154.661 193.53C154.801 193.66 154.871 193.94 154.871 194.37V199.72C154.851 200.19 154.781 200.47 154.641 200.58Z" fill="white"/>
</svg>
