<svg width="206" height="68" viewBox="0 0 206 68" fill="none" xmlns="http://www.w3.org/2000/svg">
<path d="M6.70001 27.34H13.35C14.32 27.34 15.29 27.06 15.71 26.61L18.83 23.2L23.89 36.99C24.22 37.61 25.29 38.11 26.49 38.11H26.6C27.89 38.11 28.96 37.61 29.08 36.94L33.49 19.08L37.15 30.8C37.37 31.42 38.33 31.86 39.41 31.97C40.6 31.97 41.68 31.64 42.22 31.13L46.09 26.28L50.51 32.92C50.84 33.42 51.69 33.81 52.78 33.81C53.86 33.87 54.83 33.59 55.35 33.08L57.88 30.58H66.6L66.79 30.75C66.79 30.69 66.79 30.64 66.79 30.58C66.75 22.74 63.84 15.95 58.06 10.23C51.44 3.73001 43.43 0.480011 34.02 0.480011C24.61 0.480011 16.72 3.73001 10.08 10.23C3.45002 16.73 0.130005 24.6 0.130005 33.85C0.130005 43.09 3.45002 50.84 10.08 57.37C16.72 63.89 24.7 67.15 34.02 67.15C43.33 67.15 51.44 63.88 58.06 57.33C60.29 55.18 61.77 53.53 62.46 52.39L56.52 50.33C55.69 51.34 54.8 52.3 53.86 53.21C48.36 58.61 41.75 61.31 34.02 61.31C26.28 61.31 19.68 58.63 14.21 53.28C8.74002 47.92 6 41.45 6 33.85C6 32.75 6.07002 31.72 6.21002 30.76C6.30002 29.46 6.50001 28.28 6.70001 27.34ZM14.18 14.35C19.68 8.95001 26.3 6.25 34.03 6.25C41.76 6.25 48.38 8.95001 53.88 14.35C56.76 17.19 58.86 20.5 60.19 24.28L58.44 24.81C57.96 24.93 57.55 25.13 57.3 25.39L53.52 29.07L48.89 21.98C48.46 21.48 47.6 21.09 46.42 21.09C45.33 21.04 44.37 21.42 43.94 21.93L40.71 25.84L35.75 10.21C35.42 9.53999 34.35 9.04 33.06 9.09C31.77 9.09 30.7 9.53999 30.58 10.21L26.06 28.35L22.5 18.63C22.28 18.02 21.41 17.63 20.23 17.52C19.15 17.46 18.08 17.74 17.54 18.3L11.62 24.67H7.45001C8.83001 20.89 11.06 17.45 14.18 14.35Z" fill="white"/>
<path d="M119.89 14.86C119.19 14.05 118.33 13.42 117.3 12.98C116.26 12.54 115.08 12.32 113.75 12.32C112.38 12.32 111.16 12.56 110.06 13.03C108.97 13.49 108.04 14.16 107.28 15.03C106.52 15.9 105.94 16.93 105.54 18.11C105.13 19.29 104.93 20.6 104.93 22.03V22.73C104.93 23.98 105.14 25.17 105.58 26.28C106.01 27.38 106.63 28.35 107.43 29.19C108.24 30.03 109.22 30.68 110.38 31.16C111.54 31.62 112.85 31.85 114.31 31.85C115.54 31.85 116.62 31.69 117.57 31.36C118.52 31.02 119.33 30.59 120 30.07C120.69 29.55 121.23 29 121.63 28.43L119.19 25.79C118.62 26.51 117.94 27.05 117.15 27.41C116.37 27.76 115.54 27.93 114.62 27.93C113.9 27.93 113.24 27.8 112.66 27.55C112.09 27.29 111.6 26.94 111.2 26.47C110.8 26.01 110.5 25.46 110.28 24.82C110.16 24.45 110.08 24.05 110.03 23.64H122.04V21.55C122.04 20.17 121.86 18.92 121.51 17.79C121.13 16.65 120.59 15.67 119.89 14.86ZM117.11 20.29H110.08C110.11 20.1 110.12 19.91 110.16 19.73C110.32 19.02 110.54 18.41 110.83 17.88C111.13 17.36 111.52 16.95 112 16.66C112.47 16.37 113.04 16.22 113.7 16.22C114.47 16.22 115.11 16.38 115.62 16.71C116.11 17.04 116.49 17.48 116.73 18.03C116.98 18.57 117.11 19.2 117.11 19.89V20.29Z" fill="white"/>
<path d="M137.43 21.32C136.37 20.87 135.16 20.5 133.8 20.22C133.13 20.09 132.57 19.95 132.13 19.8C131.68 19.64 131.33 19.46 131.05 19.28C130.77 19.1 130.57 18.89 130.44 18.67C130.33 18.44 130.27 18.18 130.27 17.89C130.27 17.51 130.37 17.16 130.58 16.85C130.8 16.52 131.11 16.27 131.52 16.08C131.93 15.88 132.41 15.78 132.97 15.78C133.64 15.78 134.18 15.9 134.61 16.13C135.03 16.35 135.34 16.66 135.55 17.05C135.76 17.43 135.86 17.87 135.86 18.36H140.87C140.87 17.2 140.56 16.17 139.91 15.26C139.29 14.34 138.38 13.62 137.2 13.1C136.02 12.58 134.62 12.32 132.98 12.32C131.81 12.32 130.75 12.48 129.82 12.79C128.9 13.09 128.11 13.51 127.46 14.06C126.81 14.59 126.32 15.21 125.98 15.9C125.65 16.6 125.47 17.34 125.47 18.13C125.47 18.93 125.65 19.64 125.98 20.27C126.31 20.88 126.78 21.42 127.37 21.87C127.97 22.32 128.67 22.71 129.49 23.04C130.31 23.35 131.2 23.61 132.15 23.82C133.21 24.03 134.02 24.26 134.58 24.52C135.15 24.76 135.54 25.03 135.74 25.32C135.95 25.61 136.05 25.93 136.05 26.29C136.05 26.7 135.94 27.06 135.7 27.37C135.48 27.67 135.15 27.91 134.73 28.1C134.3 28.27 133.76 28.36 133.1 28.36C132.5 28.36 131.94 28.27 131.42 28.08C130.91 27.89 130.48 27.59 130.15 27.17C129.83 26.75 129.65 26.2 129.63 25.52H124.88C124.88 26.54 125.19 27.54 125.8 28.51C126.42 29.47 127.35 30.27 128.55 30.89C129.76 31.52 131.26 31.83 133 31.83C134.2 31.83 135.29 31.69 136.25 31.41C137.23 31.12 138.07 30.72 138.76 30.21C139.46 29.69 140 29.08 140.36 28.38C140.73 27.68 140.92 26.92 140.92 26.08C140.92 24.85 140.61 23.86 139.98 23.1C139.34 22.36 138.5 21.76 137.43 21.32Z" fill="white"/>
<path d="M90.77 21.98H95.55V26.47C95.36 26.66 95.09 26.85 94.75 27.06C94.4 27.26 93.96 27.43 93.4 27.56C92.85 27.7 92.17 27.77 91.35 27.77C90.36 27.77 89.5 27.6 88.76 27.25C88.01 26.9 87.39 26.38 86.88 25.7C86.39 25 86.01 24.15 85.76 23.14C85.5 22.12 85.37 20.95 85.37 19.63V18.01C85.37 16.68 85.49 15.5 85.74 14.49C85.99 13.48 86.34 12.63 86.81 11.95C87.27 11.27 87.83 10.75 88.51 10.4C89.19 10.04 89.97 9.85999 90.84 9.85999C91.9 9.85999 92.76 10.04 93.41 10.4C94.09 10.76 94.6 11.26 94.96 11.9C95.33 12.54 95.57 13.29 95.7 14.14H100.77C100.59 12.52 100.12 11.08 99.38 9.82001C98.63 8.56001 97.55 7.56999 96.14 6.85999C94.73 6.13999 92.91 5.78 90.72 5.78C89.13 5.78 87.68 6.05001 86.38 6.60001C85.09 7.15001 83.96 7.94001 83.03 8.98001C82.09 10.02 81.36 11.31 80.86 12.83C80.36 14.35 80.1 16.08 80.1 18.03V19.61C80.1 21.56 80.37 23.29 80.89 24.81C81.41 26.32 82.15 27.59 83.12 28.64C84.09 29.68 85.25 30.48 86.59 31.02C87.94 31.55 89.43 31.82 91.07 31.82C92.91 31.82 94.49 31.62 95.78 31.23C97.08 30.84 98.14 30.37 98.96 29.82C99.78 29.26 100.4 28.75 100.79 28.27V18.23H90.8V21.98H90.77Z" fill="white"/>
<path d="M160.97 5.23999C160.11 5.23999 159.42 5.48001 158.92 5.95001C158.41 6.43001 158.15 7.03001 158.15 7.76001C158.15 8.49001 158.41 9.09001 158.92 9.57001C159.42 10.05 160.11 10.28 160.97 10.28C161.82 10.28 162.5 10.04 163.01 9.57001C163.53 9.09001 163.79 8.49001 163.79 7.76001C163.79 7.03001 163.53 6.43001 163.01 5.95001C162.49 5.48001 161.82 5.23999 160.97 5.23999Z" fill="white"/>
<path d="M153.93 27.81C153.68 27.83 153.41 27.84 153.09 27.84C152.66 27.84 152.29 27.79 152 27.68C151.71 27.56 151.49 27.36 151.33 27.07C151.2 26.78 151.13 26.36 151.13 25.82V16.22H154.36V12.67H151.13V8.01999H146.12V12.67H143.4V16.22H146.12V26.33C146.12 27.65 146.33 28.72 146.78 29.53C147.23 30.34 147.85 30.93 148.66 31.31C149.48 31.67 150.44 31.85 151.54 31.85C152.14 31.85 152.7 31.81 153.2 31.73C153.69 31.65 154.16 31.54 154.59 31.4L154.57 27.71C154.4 27.74 154.19 27.77 153.93 27.81Z" fill="white"/>
<path d="M205.43 16.13C205.15 15.21 204.75 14.48 204.22 13.92C203.7 13.36 203.07 12.96 202.34 12.7C201.6 12.44 200.8 12.32 199.92 12.32C198.81 12.32 197.79 12.53 196.89 12.96C196 13.38 195.22 13.99 194.57 14.79C194.53 14.83 194.5 14.88 194.47 14.93L194.29 12.67H189.59V31.5H194.6V18.19C194.68 18.05 194.74 17.9 194.83 17.77C195.15 17.29 195.55 16.92 196.04 16.66C196.54 16.39 197.12 16.26 197.8 16.26C198.45 16.26 198.99 16.36 199.44 16.56C199.89 16.75 200.23 17.07 200.46 17.53C200.69 17.99 200.81 18.64 200.81 19.48V31.5H205.85V19.49C205.87 18.17 205.72 17.05 205.43 16.13Z" fill="white"/>
<path d="M183.32 15.05C182.56 14.19 181.63 13.53 180.51 13.05C179.4 12.56 178.13 12.32 176.7 12.32C175.27 12.32 174.01 12.56 172.9 13.05C171.8 13.53 170.87 14.19 170.12 15.05C169.37 15.91 168.79 16.92 168.41 18.1C168.01 19.26 167.82 20.53 167.82 21.91V22.28C167.82 23.65 168.01 24.92 168.41 26.09C168.8 27.25 169.38 28.26 170.12 29.13C170.89 29.99 171.82 30.66 172.93 31.13C174.04 31.61 175.31 31.84 176.74 31.84C178.17 31.84 179.43 31.6 180.54 31.13C181.64 30.65 182.57 29.99 183.32 29.13C184.08 28.26 184.67 27.24 185.06 26.09C185.45 24.92 185.65 23.65 185.65 22.28V21.91C185.65 20.53 185.45 19.26 185.06 18.1C184.67 16.93 184.08 15.91 183.32 15.05ZM180.62 22.27C180.62 23.06 180.54 23.8 180.39 24.48C180.26 25.16 180.03 25.77 179.73 26.29C179.43 26.8 179.03 27.2 178.53 27.49C178.03 27.78 177.44 27.93 176.74 27.93C176.02 27.93 175.41 27.79 174.91 27.49C174.41 27.2 174.01 26.8 173.7 26.29C173.4 25.77 173.18 25.17 173.03 24.48C172.9 23.8 172.83 23.06 172.83 22.27V21.9C172.83 21.13 172.9 20.41 173.03 19.74C173.17 19.06 173.4 18.45 173.7 17.93C174.01 17.4 174.41 16.98 174.89 16.68C175.39 16.38 175.99 16.23 176.7 16.23C177.4 16.23 178.01 16.38 178.5 16.68C179 16.98 179.4 17.4 179.7 17.93C180.01 18.45 180.25 19.06 180.38 19.74C180.54 20.41 180.61 21.13 180.61 21.9V22.27H180.62Z" fill="white"/>
<path d="M163.48 12.67H158.46V31.5H163.48V12.67Z" fill="white"/>
<path d="M120.2 47.2C119.59 46.47 118.81 45.91 117.89 45.52C116.96 45.13 115.9 44.93 114.72 44.93C113.49 44.93 112.39 45.14 111.42 45.57C110.44 45.99 109.61 46.58 108.93 47.36C108.26 48.14 107.74 49.06 107.37 50.11C107.01 51.17 106.82 52.33 106.82 53.61V54.23C106.82 55.35 107.01 56.41 107.4 57.4C107.79 58.39 108.33 59.25 109.05 60C109.78 60.75 110.65 61.33 111.69 61.76C112.74 62.17 113.91 62.38 115.21 62.38C116.3 62.38 117.27 62.24 118.12 61.95C118.97 61.65 119.7 61.27 120.29 60.8C120.9 60.33 121.39 59.85 121.75 59.34L119.57 56.98C119.07 57.62 118.45 58.11 117.75 58.43C117.06 58.74 116.3 58.9 115.5 58.9C114.85 58.9 114.26 58.79 113.74 58.56C113.24 58.33 112.81 58.01 112.44 57.6C112.09 57.18 111.81 56.69 111.61 56.12C111.5 55.79 111.44 55.43 111.39 55.06H122.12V53.19C122.12 51.96 121.96 50.84 121.64 49.83C121.31 48.8 120.84 47.93 120.2 47.2ZM117.71 52.05H111.44C111.46 51.88 111.48 51.71 111.51 51.55C111.65 50.92 111.84 50.37 112.1 49.9C112.37 49.43 112.71 49.07 113.15 48.81C113.57 48.55 114.08 48.42 114.68 48.42C115.37 48.42 115.94 48.56 116.39 48.86C116.83 49.15 117.16 49.54 117.38 50.04C117.61 50.53 117.72 51.08 117.72 51.7V52.05H117.71Z" fill="white"/>
<path d="M102.73 46.39C102.26 45.88 101.69 45.51 101.03 45.29C100.36 45.05 99.63 44.93 98.82 44.93C97.76 44.93 96.83 45.13 96.01 45.54C95.2 45.93 94.53 46.49 93.97 47.2C93.88 47.32 93.82 47.45 93.74 47.58C93.52 47.09 93.26 46.65 92.93 46.32C92.49 45.84 91.95 45.5 91.33 45.28C90.7 45.05 90.02 44.94 89.27 44.94C88.2 44.94 87.24 45.14 86.43 45.55C85.64 45.94 84.98 46.49 84.43 47.19L84.27 45.25H80.06V62.08H84.55V50.18C84.62 50.05 84.68 49.92 84.76 49.8C85.03 49.37 85.39 49.04 85.82 48.8C86.25 48.56 86.76 48.44 87.34 48.44C87.86 48.44 88.32 48.52 88.69 48.69C89.07 48.86 89.36 49.15 89.57 49.56C89.79 49.97 89.89 50.57 89.89 51.33V62.06H94.37V50.83C94.37 50.67 94.35 50.54 94.34 50.39C94.46 50.12 94.59 49.86 94.76 49.63C95.02 49.26 95.36 48.97 95.77 48.76C96.17 48.54 96.65 48.43 97.18 48.43C97.7 48.43 98.15 48.51 98.52 48.68C98.9 48.84 99.19 49.12 99.38 49.54C99.59 49.95 99.7 50.54 99.7 51.31V62.06H104.19V51.31C104.19 50.14 104.05 49.15 103.79 48.34C103.58 47.54 103.21 46.89 102.73 46.39Z" fill="white"/>
<path d="M119.97 38.16H115.1L112.05 42.95H115.69L119.97 38.16Z" fill="white"/>
<path d="M187.23 38.18H182.72V62.07H187.23V38.18Z" fill="white"/>
<path d="M205.37 53.17C205.37 51.94 205.21 50.82 204.88 49.81C204.56 48.79 204.08 47.92 203.46 47.2C202.83 46.47 202.06 45.91 201.14 45.52C200.22 45.13 199.16 44.93 197.97 44.93C196.75 44.93 195.65 45.14 194.67 45.57C193.7 45.99 192.87 46.58 192.18 47.36C191.51 48.14 191 49.06 190.63 50.11C190.27 51.17 190.08 52.33 190.08 53.61V54.23C190.08 55.35 190.27 56.41 190.66 57.4C191.04 58.39 191.59 59.25 192.3 60C193.03 60.75 193.92 61.33 194.95 61.76C195.99 62.17 197.16 62.38 198.47 62.38C199.56 62.38 200.53 62.24 201.38 61.95C202.22 61.65 202.95 61.27 203.55 60.8C204.16 60.33 204.64 59.85 205 59.34L202.83 56.98C202.32 57.62 201.71 58.11 201.01 58.43C200.32 58.74 199.57 58.9 198.75 58.9C198.1 58.9 197.52 58.79 197 58.56C196.49 58.33 196.06 58.01 195.69 57.6C195.34 57.18 195.06 56.69 194.87 56.12C194.76 55.79 194.69 55.43 194.64 55.06H205.38V53.17H205.37ZM200.96 52.05H194.68C194.7 51.88 194.72 51.71 194.75 51.55C194.89 50.92 195.09 50.37 195.34 49.9C195.61 49.43 195.97 49.07 196.39 48.81C196.81 48.55 197.32 48.42 197.91 48.42C198.6 48.42 199.17 48.56 199.62 48.86C200.08 49.15 200.41 49.54 200.62 50.04C200.85 50.53 200.96 51.08 200.96 51.7V52.05Z" fill="white"/>
<path d="M153.15 51.57C153.24 50.97 153.41 50.43 153.64 49.97C153.87 49.49 154.19 49.12 154.6 48.85C155.02 48.57 155.56 48.43 156.2 48.43C156.81 48.43 157.33 48.57 157.74 48.85C158.17 49.12 158.49 49.48 158.71 49.94C158.94 50.4 159.06 50.9 159.07 51.46H163.28C163.27 50.12 162.96 48.97 162.37 47.99C161.78 47 160.96 46.25 159.91 45.72C158.86 45.19 157.66 44.93 156.28 44.93C154.98 44.93 153.86 45.15 152.89 45.58C151.92 46.01 151.13 46.62 150.48 47.4C149.84 48.17 149.35 49.07 149.03 50.11C148.71 51.14 148.54 52.25 148.54 53.44V53.89C148.54 55.07 148.71 56.18 149.03 57.22C149.35 58.25 149.84 59.15 150.48 59.93C151.13 60.7 151.93 61.3 152.89 61.73C153.87 62.17 155.01 62.38 156.32 62.38C157.62 62.38 158.79 62.12 159.84 61.6C160.89 61.07 161.72 60.35 162.34 59.44C162.95 58.52 163.27 57.46 163.28 56.28H159.07C159.06 56.81 158.92 57.27 158.68 57.66C158.44 58.04 158.1 58.34 157.68 58.56C157.26 58.77 156.77 58.87 156.22 58.87C155.55 58.87 155.01 58.74 154.59 58.47C154.18 58.2 153.85 57.83 153.61 57.37C153.38 56.9 153.22 56.37 153.14 55.77C153.06 55.17 153.02 54.54 153.02 53.89V53.44C153.03 52.78 153.07 52.16 153.15 51.57Z" fill="white"/>
<path d="M179.25 58.01V50.81C179.25 49.5 178.95 48.41 178.37 47.54C177.78 46.67 176.98 46.02 175.97 45.58C174.96 45.14 173.8 44.93 172.49 44.93C171.4 44.93 170.41 45.07 169.53 45.35C168.65 45.63 167.9 46.02 167.28 46.52C166.64 47.01 166.17 47.57 165.83 48.22C165.49 48.86 165.33 49.54 165.33 50.26H169.81C169.81 49.84 169.9 49.47 170.11 49.16C170.3 48.84 170.58 48.59 170.94 48.43C171.3 48.25 171.74 48.17 172.24 48.17C172.82 48.17 173.29 48.28 173.65 48.5C174.03 48.72 174.3 49.02 174.48 49.42C174.65 49.8 174.74 50.27 174.74 50.8V51.84H172.74C171.45 51.84 170.32 51.97 169.35 52.21C168.37 52.45 167.55 52.81 166.9 53.28C166.25 53.75 165.77 54.32 165.43 55.01C165.1 55.69 164.94 56.48 164.94 57.36C164.94 58.34 165.19 59.21 165.68 59.97C166.19 60.73 166.87 61.32 167.74 61.76C168.6 62.19 169.58 62.4 170.64 62.4C171.48 62.4 172.21 62.28 172.82 62.03C173.43 61.77 173.96 61.44 174.39 61.05C174.58 60.87 174.75 60.69 174.92 60.5C175.03 61.13 175.18 61.67 175.38 62.1H179.91V61.84C179.69 61.4 179.53 60.9 179.41 60.32C179.31 59.69 179.25 58.93 179.25 58.01ZM173.39 58.63C172.89 58.9 172.31 59.03 171.64 59.03C171.19 59.03 170.8 58.95 170.47 58.78C170.14 58.6 169.88 58.37 169.71 58.06C169.54 57.75 169.45 57.4 169.45 57.02C169.45 56.64 169.51 56.28 169.63 55.96C169.77 55.64 169.97 55.36 170.26 55.12C170.53 54.87 170.9 54.68 171.33 54.54C171.76 54.41 172.29 54.34 172.88 54.34H174.76V57.26C174.7 57.38 174.65 57.5 174.56 57.63C174.27 58.03 173.89 58.36 173.39 58.63Z" fill="white"/>
<path d="M143.53 38.6C142.76 38.6 142.15 38.81 141.69 39.24C141.23 39.66 141.01 40.2 141.01 40.86C141.01 41.51 141.24 42.05 141.69 42.48C142.16 42.91 142.76 43.12 143.53 43.12C144.28 43.12 144.9 42.91 145.35 42.48C145.82 42.06 146.04 41.52 146.04 40.86C146.04 40.21 145.81 39.67 145.35 39.24C144.89 38.81 144.28 38.6 143.53 38.6Z" fill="white"/>
<path d="M134.39 46.77C133.96 46.27 133.47 45.86 132.91 45.55C132.18 45.14 131.32 44.93 130.33 44.93C129.28 44.93 128.35 45.14 127.53 45.55C126.71 45.97 126.03 46.55 125.46 47.31C124.9 48.07 124.48 48.97 124.19 50.03C123.91 51.08 123.76 52.24 123.76 53.53V53.86C123.76 55.08 123.91 56.21 124.19 57.25C124.49 58.29 124.91 59.19 125.45 59.96C126.01 60.73 126.69 61.32 127.51 61.75C128.33 62.18 129.26 62.39 130.31 62.39C131.3 62.39 132.18 62.18 132.92 61.77C133.59 61.4 134.15 60.88 134.63 60.25L134.86 62.08H138.92V38.19H134.4V46.77H134.39ZM133.33 58.34C132.84 58.68 132.2 58.85 131.43 58.85C130.85 58.85 130.34 58.73 129.93 58.48C129.52 58.22 129.19 57.86 128.93 57.41C128.68 56.94 128.51 56.41 128.4 55.81C128.29 55.21 128.24 54.56 128.24 53.87V53.54C128.24 52.82 128.3 52.16 128.41 51.55C128.54 50.93 128.72 50.39 128.97 49.93C129.23 49.47 129.57 49.12 129.98 48.86C130.39 48.59 130.89 48.45 131.47 48.45C132.04 48.45 132.54 48.55 132.95 48.76C133.37 48.97 133.72 49.26 134.01 49.63C134.16 49.82 134.29 50.03 134.4 50.26V57.03C134.13 57.57 133.79 58.01 133.33 58.34Z" fill="white"/>
<path d="M145.77 45.24H141.28V62.07H145.77V45.24Z" fill="white"/>
</svg>
