<svg width="240" height="76" viewBox="0 0 240 76" fill="none" xmlns="http://www.w3.org/2000/svg">
<path d="M17.3 9.84999V0.369995H21.97C22.91 0.369995 23.62 0.459995 24.11 0.619995C24.6 0.789995 24.99 1.09 25.28 1.52C25.57 1.95 25.72 2.43 25.72 2.95C25.72 3.62 25.4801 4.18999 24.9901 4.64999C24.5101 5.10999 23.7601 5.40999 22.7501 5.52999C23.1201 5.68999 23.4 5.84999 23.59 5.99999C24 6.33999 24.3801 6.75999 24.7501 7.25999L26.58 9.84H24.83L23.44 7.87C23.03 7.29999 22.7001 6.87 22.4301 6.56C22.1701 6.26 21.93 6.04999 21.72 5.91999C21.51 5.79999 21.3 5.71999 21.08 5.66999C20.92 5.63999 20.66 5.62 20.3 5.62H18.6801V9.82999H17.3V9.84999ZM18.7 4.55H21.7C22.34 4.55 22.84 4.49 23.2 4.37C23.56 4.25 23.83 4.06 24.02 3.8C24.21 3.54 24.3 3.26 24.3 2.95C24.3 2.5 24.12 2.13 23.76 1.84C23.4 1.55 22.83 1.41 22.05 1.41H18.71V4.55H18.7Z" fill="#044857"/>
<path d="M29.58 9.84999V0.369995H37.2V1.49H30.97V4.38999H36.8V5.49999H30.97V8.73H37.44V9.84999H29.58Z" fill="#044857"/>
<path d="M40.44 9.84999V0.369995H44.42C45.12 0.369995 45.65 0.399991 46.02 0.459991C46.54 0.539991 46.97 0.689994 47.32 0.899994C47.67 1.11999 47.95 1.42 48.16 1.81C48.37 2.2 48.48 2.62999 48.48 3.09999C48.48 3.90999 48.19 4.58999 47.62 5.14999C47.05 5.70999 46.02 5.99 44.53 5.99H41.83V9.84999H40.44ZM41.84 4.87H44.56C45.46 4.87 46.1 4.71999 46.48 4.41999C46.86 4.11999 47.05 3.68999 47.05 3.13999C47.05 2.73999 46.94 2.4 46.72 2.12C46.5 1.84 46.2 1.65 45.84 1.56C45.61 1.5 45.17 1.48 44.54 1.48H41.84V4.87Z" fill="#044857"/>
<path d="M58.37 0.369995H59.7599V5.84999C59.7599 6.79999 59.64 7.56 59.4 8.12C59.16 8.68 58.73 9.14 58.1 9.49C57.47 9.84 56.65 10.02 55.64 10.02C54.65 10.02 53.84 9.87 53.22 9.56C52.59 9.25 52.1399 8.81 51.8799 8.23C51.6099 7.65 51.48 6.85999 51.48 5.84999V0.369995H52.87V5.84C52.87 6.67 52.9599 7.27 53.1299 7.66C53.2999 8.05 53.5899 8.35 54.0099 8.56C54.4199 8.77 54.93 8.88 55.53 8.88C56.56 8.88 57.29 8.66999 57.72 8.24999C58.16 7.82999 58.37 7.03 58.37 5.84V0.369995Z" fill="#044857"/>
<path d="M62.7599 9.84999V0.369995H66.7099C67.5099 0.369995 68.1599 0.469996 68.6499 0.659996C69.1399 0.849996 69.5199 1.15 69.7899 1.55C70.0699 1.95 70.1999 2.37 70.1999 2.8C70.1999 3.21 70.0799 3.59 69.8299 3.95C69.5899 4.31 69.2199 4.59999 68.7199 4.81999C69.3599 4.98999 69.8499 5.26999 70.1899 5.67999C70.5299 6.07999 70.6999 6.56 70.6999 7.12C70.6999 7.56 70.5999 7.97999 70.3899 8.35999C70.1799 8.73999 69.9199 9.04 69.6199 9.24C69.3099 9.45 68.9299 9.59999 68.4699 9.70999C68.0099 9.81999 67.4399 9.87 66.7699 9.87H62.7599V9.84999ZM64.1499 4.34999H66.4299C67.0499 4.34999 67.4899 4.31 67.7599 4.24C68.1099 4.14 68.3799 3.99 68.5599 3.77C68.7399 3.55 68.8299 3.26999 68.8299 2.93999C68.8299 2.61999 68.7499 2.34999 68.5799 2.10999C68.4099 1.86999 68.1699 1.71 67.8599 1.62C67.5499 1.53 67.0099 1.49 66.2599 1.49H64.1499V4.34999ZM64.1499 8.73H66.7699C67.2199 8.73 67.5399 8.71999 67.7199 8.67999C68.0399 8.62999 68.3099 8.53999 68.5299 8.41999C68.7499 8.29999 68.9199 8.11999 69.0599 7.88999C69.1999 7.65999 69.2699 7.39 69.2699 7.09C69.2699 6.74 69.1699 6.42999 68.9699 6.16999C68.7699 5.90999 68.4899 5.73 68.1299 5.62C67.7699 5.52 67.2599 5.45999 66.5899 5.45999H64.1499V8.73Z" fill="#044857"/>
<path d="M73.6999 9.84999V0.369995H75.0899V8.74H80.2799V9.85999H73.6999V9.84999Z" fill="#044857"/>
<path d="M83.2799 9.84999V0.369995H84.6699V9.84999H83.2799Z" fill="#044857"/>
<path d="M96.1599 8.99999C96.8099 9.39999 97.3999 9.69999 97.9499 9.87999L97.5399 10.75C96.7799 10.5 96.0299 10.11 95.2799 9.58999C94.4999 9.97999 93.6399 10.18 92.6899 10.18C91.7399 10.18 90.8699 9.96999 90.0899 9.55999C89.3099 9.14999 88.7199 8.55999 88.2999 7.80999C87.8799 7.05999 87.6699 6.20999 87.6699 5.26999C87.6699 4.32999 87.8799 3.47999 88.2999 2.71999C88.7199 1.94999 89.3199 1.36999 90.0999 0.969994C90.8799 0.569994 91.7499 0.369995 92.7099 0.369995C93.6799 0.369995 94.5599 0.579992 95.3399 0.999992C96.1199 1.41999 96.7199 1.99999 97.1299 2.74999C97.5399 3.49999 97.7399 4.33999 97.7399 5.27999C97.7399 6.05999 97.6099 6.75999 97.3399 7.38999C97.0899 7.99999 96.6999 8.53999 96.1599 8.99999ZM93.0999 7.39999C93.9099 7.59999 94.5699 7.89999 95.0899 8.30999C95.9099 7.63999 96.3199 6.62999 96.3199 5.27999C96.3199 4.50999 96.1799 3.83999 95.8899 3.26999C95.5999 2.69999 95.1799 2.24999 94.6199 1.92999C94.0599 1.60999 93.4399 1.44999 92.7399 1.44999C91.6999 1.44999 90.8399 1.77 90.1499 2.41C89.4599 3.05 89.1199 4.00999 89.1199 5.27999C89.1199 6.50999 89.4599 7.46 90.1399 8.12C90.8199 8.77999 91.6799 9.10999 92.7399 9.10999C93.2399 9.10999 93.7099 9.02999 94.1499 8.85999C93.7099 8.60999 93.2499 8.41999 92.7699 8.31999L93.0999 7.39999Z" fill="#044857"/>
<path d="M107.84 0.369995H109.23V5.84999C109.23 6.79999 109.11 7.56 108.87 8.12C108.63 8.68 108.2 9.14 107.57 9.49C106.94 9.84 106.12 10.02 105.11 10.02C104.12 10.02 103.32 9.87 102.69 9.56C102.06 9.25 101.61 8.81 101.35 8.23C101.08 7.65 100.95 6.85999 100.95 5.84999V0.369995H102.34V5.84C102.34 6.67 102.43 7.27 102.6 7.66C102.77 8.05 103.06 8.35 103.48 8.56C103.89 8.77 104.4 8.88 105 8.88C106.03 8.88 106.76 8.66999 107.19 8.24999C107.63 7.82999 107.84 7.03 107.84 5.84V0.369995Z" fill="#044857"/>
<path d="M112.23 9.84999V0.369995H119.85V1.49H113.62V4.38999H119.45V5.49999H113.62V8.73H120.09V9.84999H112.23Z" fill="#044857"/>
<path d="M123.09 9.84999V0.369995H126.72C127.54 0.369995 128.17 0.409995 128.6 0.509995C129.2 0.639995 129.72 0.859995 130.15 1.18999C130.71 1.60999 131.12 2.15 131.4 2.81C131.68 3.47 131.81 4.22 131.81 5.06C131.81 5.78 131.72 6.41999 131.53 6.96999C131.34 7.52999 131.1 7.98999 130.81 8.34999C130.52 8.70999 130.2 8.99999 129.85 9.20999C129.5 9.41999 129.08 9.58 128.59 9.68999C128.1 9.79999 127.53 9.84999 126.9 9.84999H123.09ZM124.48 8.73H126.73C127.42 8.73 127.97 8.67 128.37 8.55C128.77 8.43 129.08 8.27 129.32 8.06C129.65 7.76 129.91 7.35999 130.09 6.85999C130.27 6.35999 130.37 5.74999 130.37 5.02999C130.37 4.03999 130.19 3.28 129.83 2.74C129.47 2.21 129.03 1.84999 128.51 1.66999C128.14 1.53999 127.53 1.48 126.71 1.48H124.5V8.73H124.48Z" fill="#044857"/>
<path d="M141.7 0.369995H143.09V5.84999C143.09 6.79999 142.97 7.56 142.73 8.12C142.49 8.68 142.06 9.14 141.43 9.49C140.8 9.84 139.98 10.02 138.97 10.02C137.98 10.02 137.18 9.87 136.55 9.56C135.92 9.25 135.47 8.81 135.21 8.23C134.94 7.65 134.81 6.85999 134.81 5.84999V0.369995H136.2V5.84C136.2 6.67 136.29 7.27 136.46 7.66C136.63 8.05 136.92 8.35 137.34 8.56C137.75 8.77 138.26 8.88 138.86 8.88C139.89 8.88 140.62 8.66999 141.05 8.24999C141.49 7.82999 141.7 7.03 141.7 5.84V0.369995Z" fill="#044857"/>
<path d="M146.09 6.95L147.41 6.85C147.47 7.32 147.62 7.71 147.84 8.02C148.07 8.32 148.42 8.56999 148.9 8.75999C149.38 8.94999 149.92 9.03999 150.52 9.03999C151.05 9.03999 151.52 8.96999 151.93 8.82999C152.34 8.68999 152.64 8.49 152.84 8.24C153.04 7.99 153.14 7.71999 153.14 7.42999C153.14 7.12999 153.04 6.86999 152.85 6.64999C152.66 6.42999 152.34 6.24 151.9 6.09C151.62 5.99 150.99 5.84 150.02 5.63C149.05 5.42 148.37 5.21999 147.99 5.03999C147.49 4.79999 147.11 4.51 146.86 4.16C146.61 3.81 146.49 3.41 146.49 2.98C146.49 2.5 146.64 2.05 146.94 1.64C147.24 1.22 147.68 0.909995 148.26 0.689995C148.84 0.469995 149.48 0.369995 150.19 0.369995C150.97 0.369995 151.66 0.479999 152.26 0.709999C152.86 0.939999 153.32 1.27 153.64 1.71C153.96 2.15 154.13 2.65 154.16 3.21L152.82 3.3C152.75 2.7 152.5 2.24999 152.09 1.93999C151.68 1.62999 151.06 1.48 150.25 1.48C149.41 1.48 148.79 1.61999 148.41 1.89999C148.02 2.17999 147.83 2.51 147.83 2.91C147.83 3.25 147.97 3.52999 148.24 3.74999C148.51 3.96999 149.21 4.19999 150.34 4.42999C151.47 4.65999 152.25 4.85999 152.67 5.03999C153.28 5.28999 153.74 5.61999 154.03 6.00999C154.32 6.39999 154.47 6.84999 154.47 7.35999C154.47 7.85999 154.31 8.33999 153.99 8.78999C153.67 9.23999 153.21 9.57999 152.61 9.82999C152.01 10.08 151.33 10.2 150.58 10.2C149.63 10.2 148.83 10.07 148.18 9.81999C147.54 9.56999 147.03 9.18999 146.66 8.68999C146.3 8.16 146.11 7.59 146.09 6.95Z" fill="#044857"/>
<path d="M157.47 9.84999V0.369995H165.09V1.49H158.86V4.38999H164.69V5.49999H158.86V8.73H165.33V9.84999H157.47Z" fill="#044857"/>
<path d="M168.33 9.84999V0.369995H169.76L175.3 7.81999V0.369995H176.64V9.84999H175.21L169.67 2.39999V9.84999H168.33Z" fill="#044857"/>
<path d="M179.64 9.84999V0.369995H187.26V1.49H181.03V4.38999H186.86V5.49999H181.03V8.73H187.5V9.84999H179.64Z" fill="#044857"/>
<path d="M195.79 6.29V5.18L200.25 5.17V8.68999C199.56 9.17999 198.86 9.55 198.13 9.8C197.4 10.05 196.65 10.17 195.89 10.17C194.85 10.17 193.91 9.97 193.07 9.57C192.22 9.17 191.59 8.59 191.15 7.84C190.72 7.09 190.5 6.24 190.5 5.31C190.5 4.39 190.71 3.53 191.14 2.73C191.57 1.93 192.19 1.34 192.99 0.949997C193.8 0.559997 194.72 0.369995 195.77 0.369995C196.53 0.369995 197.22 0.479997 197.84 0.699997C198.46 0.919997 198.94 1.23 199.29 1.63C199.64 2.03 199.91 2.54 200.09 3.18L198.83 3.49C198.67 3.01 198.48 2.63 198.24 2.35C198.01 2.07 197.67 1.84999 197.23 1.68999C196.79 1.51999 196.31 1.43999 195.78 1.43999C195.14 1.43999 194.59 1.53 194.13 1.7C193.67 1.88 193.29 2.1 193.01 2.39C192.72 2.67 192.5 2.98999 192.34 3.32999C192.07 3.91999 191.94 4.55 191.94 5.24C191.94 6.09 192.1 6.79 192.43 7.36C192.75 7.93 193.22 8.35 193.84 8.63C194.46 8.91 195.11 9.04 195.81 9.04C196.41 9.04 197 8.94 197.58 8.73C198.16 8.52 198.59 8.3 198.89 8.06V6.29H195.79Z" fill="#044857"/>
<path d="M203.25 9.84999L207.3 0.369995H208.8L213.11 9.84999H211.52L210.29 6.98H205.88L204.72 9.84999H203.25ZM206.29 5.95999H209.86L208.76 3.32999C208.42 2.52999 208.18 1.87999 208.01 1.35999C207.88 1.96999 207.69 2.56999 207.44 3.16999L206.29 5.95999Z" fill="#044857"/>
<path d="M216.11 9.84999V0.369995H217.5V8.74H222.69V9.85999H216.11V9.84999Z" fill="#044857"/>
<path d="M0.950012 55.3V44.42H4.59998L6.78998 51.84L8.96002 44.42H12.62V55.3H10.35V46.74L7.95001 55.3H5.59998L3.21002 46.74V55.3H0.950012Z" fill="#044857"/>
<path d="M15.82 55.3V44.42H18.26V55.3H15.82Z" fill="#044857"/>
<path d="M21.46 55.3V44.42H23.84L28.79 51.69V44.42H31.06V55.3H28.61L23.74 48.21V55.3H21.46Z" fill="#044857"/>
<path d="M34.4 55.3V44.42H36.84V55.3H34.4Z" fill="#044857"/>
<path d="M39.39 51.76L41.77 51.55C41.91 52.27 42.2 52.79 42.64 53.13C43.08 53.47 43.67 53.64 44.41 53.64C45.2 53.64 45.79 53.49 46.19 53.19C46.59 52.89 46.79 52.54 46.79 52.14C46.79 51.88 46.71 51.66 46.54 51.48C46.37 51.3 46.08 51.14 45.66 51.01C45.37 50.92 44.72 50.76 43.71 50.53C42.4 50.24 41.48 49.88 40.96 49.45C40.22 48.85 39.85 48.12 39.85 47.26C39.85 46.71 40.02 46.19 40.37 45.71C40.72 45.23 41.22 44.86 41.88 44.61C42.54 44.36 43.33 44.23 44.26 44.23C45.78 44.23 46.92 44.53 47.69 45.13C48.46 45.73 48.86 46.53 48.9 47.53L46.46 47.63C46.36 47.07 46.13 46.67 45.79 46.42C45.45 46.18 44.93 46.05 44.24 46.05C43.53 46.05 42.98 46.18 42.57 46.44C42.31 46.61 42.18 46.83 42.18 47.12C42.18 47.38 42.3 47.6 42.54 47.78C42.85 48.01 43.6 48.26 44.78 48.51C45.97 48.76 46.85 49.02 47.41 49.29C47.98 49.56 48.42 49.93 48.75 50.4C49.07 50.87 49.23 51.45 49.23 52.13C49.23 52.75 49.04 53.34 48.65 53.88C48.26 54.42 47.72 54.83 47.02 55.09C46.32 55.35 45.44 55.49 44.39 55.49C42.86 55.49 41.69 55.17 40.87 54.54C40.04 53.9 39.55 52.97 39.39 51.76Z" fill="#044857"/>
<path d="M54.84 55.3V46.26H51.25V44.42H60.86V46.26H57.28V55.3H54.84Z" fill="#044857"/>
<path d="M63.28 55.3V44.42H72.24V46.26H65.72V48.67H71.79V50.5H65.72V53.46H72.47V55.29H63.28V55.3Z" fill="#044857"/>
<path d="M75.4 55.3V44.42H80.54C81.83 44.42 82.77 44.52 83.36 44.71C83.95 44.91 84.41 45.25 84.77 45.75C85.12 46.25 85.3 46.82 85.3 47.46C85.3 48.28 85.03 48.95 84.5 49.48C83.97 50.01 83.17 50.35 82.11 50.49C82.64 50.77 83.07 51.07 83.42 51.4C83.76 51.73 84.23 52.32 84.81 53.17L86.29 55.29H83.37L81.61 52.92C80.98 52.07 80.55 51.54 80.32 51.32C80.09 51.1 79.84 50.95 79.59 50.87C79.33 50.79 78.92 50.75 78.36 50.75H77.87V55.29H75.4V55.3ZM77.84 49.02H79.65C80.82 49.02 81.55 48.98 81.84 48.89C82.13 48.8 82.36 48.65 82.52 48.43C82.68 48.21 82.77 47.94 82.77 47.61C82.77 47.24 82.66 46.95 82.44 46.72C82.22 46.49 81.92 46.35 81.52 46.29C81.32 46.27 80.73 46.25 79.74 46.25H77.84V49.02Z" fill="#044857"/>
<path d="M88.43 55.3V44.42H97.39V46.26H90.87V48.67H96.94V50.5H90.87V53.46H97.62V55.29H88.43V55.3Z" fill="#044857"/>
<path d="M106.07 44.42H110.53C111.54 44.42 112.3 44.49 112.83 44.63C113.54 44.82 114.15 45.15 114.65 45.63C115.16 46.11 115.54 46.7 115.8 47.39C116.06 48.09 116.2 48.94 116.2 49.96C116.2 50.86 116.08 51.63 115.83 52.27C115.53 53.06 115.1 53.7 114.54 54.19C114.12 54.56 113.54 54.85 112.82 55.06C112.28 55.21 111.56 55.29 110.66 55.29H106.07V44.42ZM108.51 46.26V53.47H110.33C111.01 53.47 111.5 53.43 111.81 53.37C112.21 53.28 112.53 53.13 112.8 52.92C113.06 52.71 113.27 52.36 113.44 51.87C113.6 51.38 113.69 50.72 113.69 49.88C113.69 49.04 113.61 48.39 113.44 47.94C113.28 47.49 113.04 47.14 112.75 46.89C112.45 46.64 112.08 46.47 111.62 46.38C111.28 46.31 110.61 46.28 109.62 46.28H108.51V46.26Z" fill="#044857"/>
<path d="M119.12 55.3V44.42H128.08V46.26H121.56V48.67H127.63V50.5H121.56V53.46H128.31V55.29H119.12V55.3Z" fill="#044857"/>
<path d="M130.61 51.76L132.99 51.55C133.13 52.27 133.42 52.79 133.86 53.13C134.3 53.47 134.89 53.64 135.63 53.64C136.42 53.64 137.01 53.49 137.41 53.19C137.81 52.89 138.01 52.54 138.01 52.14C138.01 51.88 137.93 51.66 137.76 51.48C137.59 51.3 137.3 51.14 136.88 51.01C136.59 50.92 135.94 50.76 134.93 50.53C133.62 50.24 132.7 49.88 132.18 49.45C131.44 48.85 131.07 48.12 131.07 47.26C131.07 46.71 131.24 46.19 131.59 45.71C131.94 45.23 132.44 44.86 133.1 44.61C133.76 44.36 134.55 44.23 135.48 44.23C137 44.23 138.14 44.53 138.91 45.13C139.68 45.73 140.08 46.53 140.12 47.53L137.68 47.63C137.58 47.07 137.35 46.67 137.01 46.42C136.67 46.18 136.15 46.05 135.46 46.05C134.75 46.05 134.2 46.18 133.79 46.44C133.53 46.61 133.4 46.83 133.4 47.12C133.4 47.38 133.52 47.6 133.76 47.78C134.07 48.01 134.82 48.26 136 48.51C137.19 48.76 138.07 49.02 138.63 49.29C139.2 49.56 139.64 49.93 139.97 50.4C140.29 50.87 140.45 51.45 140.45 52.13C140.45 52.75 140.26 53.34 139.87 53.88C139.48 54.42 138.94 54.83 138.24 55.09C137.54 55.35 136.66 55.49 135.61 55.49C134.08 55.49 132.91 55.17 132.09 54.54C131.25 53.9 130.76 52.97 130.61 51.76Z" fill="#044857"/>
<path d="M148.89 55.3V44.42H157.18V46.26H151.33V48.84H156.38V50.68H151.33V55.3H148.89Z" fill="#044857"/>
<path d="M159.96 55.3V44.42H162.4V55.3H159.96Z" fill="#044857"/>
<path d="M165.59 55.3V44.42H167.97L172.92 51.69V44.42H175.19V55.3H172.74L167.87 48.21V55.3H165.59Z" fill="#044857"/>
<path d="M189.51 55.3H186.85L185.79 52.83H180.96L179.96 55.3H177.37L182.08 44.42H184.66L189.51 55.3ZM185.01 50.99L183.34 46.95L181.71 50.99H185.01Z" fill="#044857"/>
<path d="M191.67 55.3V44.42H194.05L199 51.69V44.42H201.27V55.3H198.82L193.95 48.21V55.3H191.67Z" fill="#044857"/>
<path d="M212.42 51.3L214.79 51.98C214.43 53.17 213.82 54.05 212.98 54.63C212.14 55.21 211.07 55.49 209.77 55.49C208.16 55.49 206.85 55 205.81 54.01C204.78 53.02 204.26 51.67 204.26 49.96C204.26 48.15 204.78 46.74 205.82 45.74C206.86 44.74 208.23 44.24 209.92 44.24C211.4 44.24 212.6 44.63 213.52 45.42C214.07 45.89 214.48 46.55 214.76 47.42L212.34 47.94C212.2 47.38 211.9 46.93 211.45 46.6C211 46.27 210.45 46.11 209.8 46.11C208.9 46.11 208.18 46.4 207.62 46.98C207.06 47.56 206.78 48.5 206.78 49.79C206.78 51.17 207.05 52.14 207.6 52.73C208.15 53.31 208.86 53.61 209.74 53.61C210.39 53.61 210.95 53.42 211.41 53.05C211.88 52.68 212.22 52.09 212.42 51.3Z" fill="#044857"/>
<path d="M217.73 55.3V44.42H226.69V46.26H220.17V48.67H226.24V50.5H220.17V53.46H226.92V55.29H217.73V55.3Z" fill="#044857"/>
<path d="M229.22 51.76L231.6 51.55C231.74 52.27 232.03 52.79 232.47 53.13C232.91 53.47 233.5 53.64 234.24 53.64C235.03 53.64 235.62 53.49 236.02 53.19C236.42 52.89 236.62 52.54 236.62 52.14C236.62 51.88 236.54 51.66 236.37 51.48C236.2 51.3 235.91 51.14 235.49 51.01C235.2 50.92 234.55 50.76 233.54 50.53C232.23 50.24 231.31 49.88 230.79 49.45C230.05 48.85 229.68 48.12 229.68 47.26C229.68 46.71 229.85 46.19 230.2 45.71C230.55 45.23 231.05 44.86 231.71 44.61C232.37 44.36 233.16 44.23 234.09 44.23C235.61 44.23 236.75 44.53 237.52 45.13C238.29 45.73 238.69 46.53 238.73 47.53L236.29 47.63C236.19 47.07 235.96 46.67 235.62 46.42C235.28 46.18 234.76 46.05 234.07 46.05C233.36 46.05 232.81 46.18 232.4 46.44C232.14 46.61 232.01 46.83 232.01 47.12C232.01 47.38 232.13 47.6 232.37 47.78C232.68 48.01 233.43 48.26 234.61 48.51C235.8 48.76 236.68 49.02 237.24 49.29C237.81 49.56 238.25 49.93 238.58 50.4C238.9 50.87 239.06 51.45 239.06 52.13C239.06 52.75 238.87 53.34 238.48 53.88C238.09 54.42 237.55 54.83 236.85 55.09C236.15 55.35 235.27 55.49 234.22 55.49C232.69 55.49 231.52 55.17 230.7 54.54C229.87 53.9 229.38 52.97 229.22 51.76Z" fill="#044857"/>
<path d="M53.07 75.56V64.68H62.03V66.52H55.51V68.93H61.58V70.76H55.51V73.72H62.26V75.55H53.07V75.56Z" fill="#044857"/>
<path d="M67.9 75.56V66.52H64.31V64.68H73.92V66.52H70.34V75.56H67.9Z" fill="#044857"/>
<path d="M81.87 64.68H86.33C87.34 64.68 88.1 64.75 88.63 64.89C89.34 65.08 89.95 65.41 90.45 65.89C90.96 66.37 91.34 66.96 91.6 67.65C91.86 68.35 92 69.2 92 70.22C92 71.12 91.88 71.89 91.63 72.53C91.33 73.32 90.9 73.96 90.34 74.45C89.92 74.82 89.34 75.11 88.62 75.32C88.08 75.47 87.36 75.55 86.46 75.55H81.87V64.68ZM84.31 66.52V73.73H86.13C86.81 73.73 87.3 73.69 87.61 73.63C88.01 73.54 88.33 73.39 88.6 73.18C88.86 72.97 89.07 72.62 89.24 72.13C89.41 71.64 89.49 70.98 89.49 70.14C89.49 69.3 89.41 68.65 89.24 68.2C89.08 67.75 88.84 67.4 88.55 67.15C88.25 66.9 87.88 66.73 87.42 66.64C87.08 66.57 86.41 66.54 85.42 66.54H84.31V66.52Z" fill="#044857"/>
<path d="M94.9 64.68H97.34V70.57C97.34 71.51 97.37 72.11 97.43 72.39C97.53 72.84 97.78 73.19 98.18 73.46C98.57 73.73 99.11 73.86 99.79 73.86C100.48 73.86 101 73.73 101.36 73.48C101.71 73.22 101.92 72.91 102 72.54C102.07 72.17 102.11 71.55 102.11 70.69V64.67H104.55V70.39C104.55 71.7 104.48 72.62 104.35 73.16C104.22 73.7 103.97 74.15 103.62 74.53C103.27 74.9 102.79 75.2 102.2 75.42C101.61 75.64 100.83 75.75 99.87 75.75C98.72 75.75 97.84 75.63 97.24 75.39C96.64 75.15 96.17 74.84 95.83 74.46C95.48 74.08 95.26 73.67 95.15 73.25C94.99 72.63 94.91 71.71 94.91 70.49V64.68H94.9Z" fill="#044857"/>
<path d="M113.5 64.68H118.33C119.29 64.68 120 64.72 120.47 64.79C120.94 64.86 121.36 65.01 121.73 65.24C122.1 65.47 122.41 65.77 122.66 66.15C122.91 66.53 123.03 66.95 123.03 67.42C123.03 67.93 122.88 68.4 122.57 68.82C122.26 69.25 121.85 69.56 121.33 69.78C122.07 69.97 122.63 70.3 123.03 70.77C123.43 71.23 123.62 71.78 123.62 72.41C123.62 72.91 123.49 73.39 123.24 73.85C122.98 74.32 122.64 74.69 122.19 74.97C121.75 75.25 121.2 75.42 120.55 75.49C120.14 75.53 119.16 75.55 117.61 75.56H113.5V64.68ZM115.94 66.49V69.01H117.54C118.49 69.01 119.08 69 119.31 68.97C119.73 68.93 120.06 68.79 120.3 68.58C120.54 68.37 120.66 68.08 120.66 67.73C120.66 67.39 120.56 67.12 120.35 66.91C120.14 66.7 119.84 66.57 119.43 66.53C119.19 66.51 118.49 66.49 117.34 66.49H115.94ZM115.94 70.82V73.73H118.2C119.08 73.73 119.64 73.71 119.87 73.66C120.23 73.6 120.53 73.46 120.76 73.23C120.99 73 121.1 72.69 121.1 72.31C121.1 71.98 121.01 71.71 120.84 71.48C120.66 71.25 120.41 71.09 120.08 70.98C119.75 70.88 119.03 70.82 117.92 70.82H115.94Z" fill="#044857"/>
<path d="M126.52 64.68H128.96V70.57C128.96 71.51 128.99 72.11 129.05 72.39C129.15 72.84 129.4 73.19 129.8 73.46C130.19 73.73 130.73 73.86 131.41 73.86C132.1 73.86 132.62 73.73 132.98 73.48C133.33 73.22 133.54 72.91 133.62 72.54C133.69 72.17 133.73 71.55 133.73 70.69V64.67H136.17V70.39C136.17 71.7 136.1 72.62 135.97 73.16C135.84 73.7 135.59 74.15 135.24 74.53C134.89 74.9 134.41 75.2 133.82 75.42C133.23 75.64 132.45 75.75 131.49 75.75C130.34 75.75 129.46 75.63 128.86 75.39C128.26 75.15 127.79 74.84 127.45 74.46C127.1 74.08 126.88 73.67 126.77 73.25C126.61 72.63 126.53 71.71 126.53 70.49V64.68H126.52Z" fill="#044857"/>
<path d="M139.56 64.68H144.02C145.03 64.68 145.79 64.75 146.32 64.89C147.03 65.08 147.64 65.41 148.14 65.89C148.65 66.37 149.03 66.96 149.29 67.65C149.55 68.35 149.69 69.2 149.69 70.22C149.69 71.12 149.57 71.89 149.32 72.53C149.02 73.32 148.59 73.96 148.03 74.45C147.61 74.82 147.03 75.11 146.31 75.32C145.77 75.47 145.05 75.55 144.15 75.55H139.56V64.68ZM142 66.52V73.73H143.82C144.5 73.73 144.99 73.69 145.3 73.63C145.7 73.54 146.02 73.39 146.29 73.18C146.55 72.97 146.76 72.62 146.93 72.13C147.1 71.64 147.18 70.98 147.18 70.14C147.18 69.3 147.1 68.65 146.93 68.2C146.77 67.75 146.53 67.4 146.24 67.15C145.94 66.9 145.57 66.73 145.11 66.64C144.77 66.57 144.1 66.54 143.11 66.54H142V66.52Z" fill="#044857"/>
<path d="M158.24 71.56V69.73H163.5V74.06C162.99 74.5 162.25 74.9 161.28 75.24C160.31 75.58 159.33 75.75 158.33 75.75C157.07 75.75 155.96 75.51 155.02 75.03C154.08 74.55 153.37 73.87 152.9 72.98C152.43 72.09 152.19 71.13 152.19 70.08C152.19 68.95 152.45 67.94 152.98 67.06C153.51 66.18 154.28 65.5 155.3 65.03C156.08 64.67 157.04 64.49 158.19 64.49C159.69 64.49 160.86 64.77 161.71 65.34C162.55 65.91 163.1 66.69 163.34 67.69L160.92 68.1C160.75 67.57 160.43 67.14 159.96 66.84C159.49 66.53 158.9 66.38 158.2 66.38C157.13 66.38 156.29 66.68 155.66 67.29C155.03 67.9 154.72 68.8 154.72 70C154.72 71.29 155.04 72.26 155.68 72.91C156.32 73.56 157.15 73.88 158.19 73.88C158.7 73.88 159.21 73.79 159.73 73.61C160.24 73.43 160.69 73.21 161.05 72.95V71.57H158.24V71.56Z" fill="#044857"/>
<path d="M166.59 75.56V64.68H175.55V66.52H169.03V68.93H175.1V70.76H169.03V73.72H175.78V75.55H166.59V75.56Z" fill="#044857"/>
<path d="M181.42 75.56V66.52H177.83V64.68H187.44V66.52H183.86V75.56H181.42Z" fill="#044857"/>
<path d="M93.52 23.26H39.89V30.67H93.52V23.26Z" fill="#008835"/>
<path d="M146.81 23.26H93.18V30.67H146.81V23.26Z" fill="#FFEF00"/>
<path d="M121.07 27.34L122.81 26.08H120.66L120 24.04L119.34 26.08H117.19L118.93 27.34L118.26 29.3801L120 28.12L121.74 29.3801L121.07 27.34Z" fill="#008835"/>
<path d="M200.11 23.26H146.48V30.67H200.11V23.26Z" fill="#D00000"/>
</svg>
