<svg width="122" height="110" viewBox="0 0 122 110" fill="none" xmlns="http://www.w3.org/2000/svg">
<path d="M9.03003 20.64C9.28003 23.18 10.43 26.6 12.5 27.94C15.86 26.3 12.05 20.37 9.03003 20.64Z" fill="#C4860E"/>
<path d="M4.92999 27.44C5.62999 30.02 7.67001 34.03 10.95 34.58C11.82 31.19 8.51999 27.49 4.92999 27.44Z" fill="#C4860E"/>
<path d="M16.19 28.55C18.36 29.14 22.69 28.06 24.26 26.75C22.03 25.25 16.17 25.38 16.19 28.55Z" fill="#C4860E"/>
<path d="M12.6 41.67C16.21 41.84 17.92 39.84 20.67 38.77C18.24 36.14 11.63 38.66 12.6 41.67Z" fill="#C4860E"/>
<path d="M14.54 35.35C18.13 35.7 20.05 33.8 22.9 32.88C20.77 30.12 13.88 32.29 14.54 35.35Z" fill="#C4860E"/>
<path d="M12.38 48.4C15.68 48.4 19.1299 46.19 19.9099 43.95C15.4899 43.5 11.98 45.56 12.38 48.4Z" fill="#C4860E"/>
<path d="M14.05 64.07C12.63 59.3 8.08999 58.7 3.10999 58.68C5.78999 61.67 9.25999 63.71 14.05 64.07Z" fill="#C4860E"/>
<path d="M11.08 55.68C9.59002 50.75 5.40998 50.16 0.849976 50.16C3.45998 53.25 6.70002 55.34 11.08 55.68Z" fill="#C4860E"/>
<path d="M9.40997 47.83C9.26997 42.9 5.30001 41.71 0.76001 41.07C2.49001 44.38 5.14997 46.85 9.40997 47.83Z" fill="#C4860E"/>
<path d="M8.44 41.49C9.91 36.78 6.4 34.9 2.19 33.46C2.76 36.94 4.56 39.76 8.44 41.49Z" fill="#C4860E"/>
<path d="M6.27002 67.66C8.13002 69.22 13.41 73.33 17.95 71.5C15.6 68.17 11.96 66.63 6.27002 67.66Z" fill="#C4860E"/>
<path d="M23.89 77.44C26.86 75.78 27.96 71.57 27.83 69.01C23.64 70.11 20.69 73.01 23.89 77.44Z" fill="#C4860E"/>
<path d="M10.09 76.04C13.56 78.17 18.01 80.44 22.84 79.34C20.94 75.35 15.04 74.49 10.09 76.04Z" fill="#C4860E"/>
<path d="M30.56 83.81C32.11 81.96 33.45 76.91 31.34 74.64C28.37 75.74 25.62 81.25 30.56 83.81Z" fill="#C4860E"/>
<path d="M37.34 89.34C38.14 87.13 37.96 81.08 36.16 79.06C32.89 80.53 31.73 87.57 37.34 89.34Z" fill="#C4860E"/>
<path d="M44.67 94.01C45.58 91.06 43.85 84.63 41.7 83.17C38.91 85.08 39.63 92.83 44.67 94.01Z" fill="#C4860E"/>
<path d="M22.12 92.04C25.9 93.06 32.6 94.52 35.39 92.08C32.29 87.8 23.99 89.09 22.12 92.04Z" fill="#C4860E"/>
<path d="M30.23 99.39C33.41 99.59 40.96 99.95 42.9 97.68C39.26 93.19 30.33 95.44 30.23 99.39Z" fill="#C4860E"/>
<path d="M50.74 101.86C46.08 98.02 39.21 101.48 38.75 105L40.15 105.49C44.85 105.51 49.17 104.48 50.74 101.86Z" fill="#C4860E"/>
<path d="M20.55 7.69998C20.08 9.90998 20.41 14.2 22.06 15.63C23.99 13.8 24.18 8.68998 20.55 7.69998Z" fill="#C4860E"/>
<path d="M17.18 21.54C19.47 19.04 16.75 14.77 14.68 13.25C13.33 15.24 14.61 20.22 17.18 21.54Z" fill="#C4860E"/>
<path d="M18.57 69.64C21.67 70.19 23.91 65.66 24.37 62.84C19.54 63.52 17.91 65.94 18.04 69.34C17.19 66.93 15.85 65.18 15.21 62.52C21.36 60.33 19.6 60.25 22.06 56.26C15.97 56.42 14.94 59.26 14.8 62.57C10.55 50.63 8.78001 28.95 26.11 12.35C20.99 15.68 17.75 20.85 15.24 25.91C6.76002 42.28 11.53 57.94 15.16 66.07C23.79 85.67 47.3901 101.11 68.0901 109.08L72.5301 109.21C42.7901 98.6 24.76 81.9 18.57 69.64Z" fill="#C4860E"/>
<path d="M19.14 22.15C20.61 23.23 28.01 22.5 27 20.96C25.64 20.67 20.16 19 19.14 22.15Z" fill="#C4860E"/>
<path d="M23.66 16.36C25.13 17.43 32.49 16.56 31.48 15.02C30.12 14.75 24.65 13.15 23.66 16.36Z" fill="#C4860E"/>
<path d="M13.64 55.63C17.4 54.6 18.86 52.31 20.84 50.29C15.62 50.13 12.07 51.49 13.64 55.63Z" fill="#C4860E"/>
<path d="M15.64 84.49C18.49 85.47 23.27 87.74 28.66 86.21C27.09 81.82 17.93 81.87 15.64 84.49Z" fill="#C4860E"/>
<path d="M26.41 11.91C30.1 12.24 33.12 8.39999 31.96 6.60999C29.67 8.19999 26.57 9.41999 26.41 11.91Z" fill="#C4860E"/>
<path d="M52.47 98.17C54.37 96.01 50.24 89.67 48.26 87.07C45.06 89.69 48.36 98.04 52.47 98.17Z" fill="#C4860E"/>
<path d="M40.15 105.48L38.75 104.99C38.73 105.14 38.71 105.28 38.71 105.43C39.2 105.46 39.68 105.48 40.15 105.48Z" fill="#C4860E"/>
<path d="M112.97 20.64C112.74 23.18 111.59 26.6 109.5 27.94C106.14 26.3 109.95 20.37 112.97 20.64Z" fill="#C4860E"/>
<path d="M117.07 27.44C116.37 30.02 114.33 34.03 111.05 34.58C110.18 31.19 113.48 27.49 117.07 27.44Z" fill="#C4860E"/>
<path d="M105.81 28.55C103.64 29.14 99.31 28.06 97.76 26.75C99.97 25.25 105.83 25.38 105.81 28.55Z" fill="#C4860E"/>
<path d="M109.4 41.67C105.79 41.84 104.08 39.84 101.33 38.77C103.76 36.14 110.39 38.66 109.4 41.67Z" fill="#C4860E"/>
<path d="M107.46 35.35C103.89 35.7 101.97 33.8 99.1 32.88C101.25 30.12 108.12 32.29 107.46 35.35Z" fill="#C4860E"/>
<path d="M109.62 48.4C106.32 48.4 102.87 46.19 102.11 43.95C106.51 43.5 110.02 45.56 109.62 48.4Z" fill="#C4860E"/>
<path d="M107.95 64.07C109.37 59.3 113.91 58.7 118.91 58.68C116.21 61.67 112.74 63.71 107.95 64.07Z" fill="#C4860E"/>
<path d="M110.92 55.68C112.41 50.75 116.59 50.16 121.15 50.16C118.56 53.25 115.3 55.34 110.92 55.68Z" fill="#C4860E"/>
<path d="M112.59 47.83C112.73 42.9 116.7 41.71 121.24 41.07C119.51 44.38 116.85 46.85 112.59 47.83Z" fill="#C4860E"/>
<path d="M113.56 41.49C112.09 36.78 115.6 34.9 119.81 33.46C119.24 36.94 117.44 39.76 113.56 41.49Z" fill="#C4860E"/>
<path d="M115.73 67.66C113.87 69.22 108.59 73.33 104.07 71.5C106.4 68.17 110.04 66.63 115.73 67.66Z" fill="#C4860E"/>
<path d="M98.11 77.44C95.14 75.78 94.04 71.57 94.17 69.01C98.36 70.11 101.33 73.01 98.11 77.44Z" fill="#C4860E"/>
<path d="M111.91 76.04C108.44 78.17 103.99 80.44 99.16 79.34C101.08 75.35 106.96 74.49 111.91 76.04Z" fill="#C4860E"/>
<path d="M91.44 83.81C89.89 81.96 88.57 76.91 90.68 74.64C93.65 75.74 96.38 81.25 91.44 83.81Z" fill="#C4860E"/>
<path d="M84.66 89.34C83.86 87.13 84.06 81.08 85.84 79.06C89.11 80.53 90.27 87.57 84.66 89.34Z" fill="#C4860E"/>
<path d="M77.33 94.01C76.42 91.06 78.15 84.63 80.3 83.17C83.09 85.08 82.37 92.83 77.33 94.01Z" fill="#C4860E"/>
<path d="M99.88 92.04C96.1 93.06 89.4 94.52 86.61 92.08C89.71 87.8 98.03 89.09 99.88 92.04Z" fill="#C4860E"/>
<path d="M91.78 99.39C88.58 99.59 81.03 99.95 79.11 97.68C82.74 93.19 91.67 95.44 91.78 99.39Z" fill="#C4860E"/>
<path d="M71.25 101.86C75.93 98.02 82.78 101.48 83.24 105L81.84 105.49C77.15 105.51 72.83 104.48 71.25 101.86Z" fill="#C4860E"/>
<path d="M101.45 7.69998C101.94 9.90998 101.59 14.2 99.94 15.63C98.01 13.8 97.82 8.68998 101.45 7.69998Z" fill="#C4860E"/>
<path d="M104.82 21.54C102.53 19.04 105.27 14.77 107.32 13.25C108.67 15.24 107.4 20.22 104.82 21.54Z" fill="#C4860E"/>
<path d="M103.43 69.64C100.33 70.19 98.09 65.66 97.63 62.84C102.46 63.52 104.09 65.94 103.96 69.34C104.81 66.93 106.15 65.18 106.79 62.52C100.64 60.33 102.4 60.25 99.94 56.26C106.03 56.42 107.06 59.26 107.2 62.57C111.45 50.63 113.22 28.95 95.89 12.35C101.01 15.68 104.25 20.85 106.76 25.91C115.26 42.28 110.47 57.94 106.84 66.07C98.21 85.67 74.61 101.11 53.91 109.08L49.47 109.21C79.21 98.6 97.24 81.9 103.43 69.64Z" fill="#C4860E"/>
<path d="M102.86 22.15C101.39 23.23 93.99 22.5 95 20.96C96.36 20.67 101.86 19 102.86 22.15Z" fill="#C4860E"/>
<path d="M98.34 16.36C96.88 17.43 89.53 16.56 90.54 15.02C91.88 14.75 97.35 13.15 98.34 16.36Z" fill="#C4860E"/>
<path d="M108.36 55.63C104.6 54.6 103.16 52.31 101.16 50.29C106.38 50.13 109.93 51.49 108.36 55.63Z" fill="#C4860E"/>
<path d="M106.38 84.49C103.51 85.47 98.73 87.74 93.34 86.21C94.93 81.82 104.07 81.87 106.38 84.49Z" fill="#C4860E"/>
<path d="M95.59 11.91C91.9 12.24 88.8799 8.39999 90.0399 6.60999C92.3299 8.19999 95.43 9.41999 95.59 11.91Z" fill="#C4860E"/>
<path d="M69.53 98.17C67.63 96.01 71.76 89.67 73.74 87.07C76.94 89.69 73.64 98.04 69.53 98.17Z" fill="#C4860E"/>
<path d="M81.85 105.48L83.25 104.99C83.27 105.14 83.29 105.28 83.29 105.43C82.8 105.46 82.32 105.48 81.85 105.48Z" fill="#C4860E"/>
<path d="M60.99 0.549988C62.17 3.09999 63.47 5.67998 64.77 8.22998C67.58 8.67998 70.42 9.15999 73.27 9.62999C71.29 11.4 69.21 13.34 67.12 15.32C67.55 18.06 67.88 20.78 68.05 23.46C65.82 22.39 63.45 21.14 60.99 19.82C58.55 21.14 56.16 22.39 53.95 23.46C54.12 20.78 54.45 18.06 54.86 15.32C52.78 13.33 50.69 11.4 48.73 9.62999C51.56 9.15999 54.4 8.67998 57.21 8.22998C58.53 5.67998 59.83 3.09999 60.99 0.549988Z" fill="#C4860E"/>
<path d="M27.23 38.15V37.75H94.78V38.15H27.23Z" fill="#C4860E"/>
<path d="M27.23 64.39V63.99H94.78V64.39H27.23Z" fill="#C4860E"/>
<path d="M34.43 41.83C34.02 41.53 33.56 41.3 33.03 41.14C32.49 40.98 31.92 40.9 31.34 40.9C31.07 40.9 30.82 40.9 30.62 40.91C30.41 40.92 30.15 40.93 29.86 40.94C29.61 40.96 29.39 40.97 29.22 40.97C29.06 40.98 28.87 40.98 28.68 40.98C28.51 40.98 28.27 40.98 28.02 40.96C27.75 40.95 27.5 40.93 27.22 40.91V41.01C27.72 41.31 28 41.63 28.02 41.98C28.04 42.41 28.06 42.87 28.08 43.33C28.1 43.8 28.1 44.25 28.1 44.7V45.95C28.1 46.49 28.1 46.9 28.08 47.2C28.08 47.38 28 47.56 27.85 47.73C27.69 47.9 27.54 48.03 27.36 48.11V48.24C27.61 48.22 27.85 48.2 28.08 48.19C28.31 48.18 28.53 48.18 28.7 48.18C28.93 48.18 29.28 48.2 29.77 48.22C30.27 48.25 30.64 48.26 30.86 48.26C31.58 48.25 32.24 48.15 32.84 47.95C33.42 47.75 33.95 47.46 34.37 47.09C34.8 46.72 35.13 46.29 35.36 45.8C35.59 45.31 35.71 44.78 35.71 44.22C35.71 43.74 35.59 43.29 35.36 42.88C35.14 42.48 34.81 42.13 34.43 41.83ZM34.1 45.81C33.94 46.2 33.73 46.54 33.44 46.82C33.17 47.11 32.86 47.33 32.49 47.49C32.12 47.65 31.75 47.73 31.34 47.73C30.8 47.73 30.39 47.71 30.1 47.67C29.81 47.63 29.58 47.56 29.44 47.45V47.36C29.42 47.32 29.42 47.29 29.42 47.28C29.36 46.36 29.34 45.49 29.34 44.67V43.62C29.34 43.25 29.34 42.94 29.34 42.7C29.34 42.46 29.36 42.23 29.38 42C29.38 41.97 29.38 41.93 29.38 41.88C29.4 41.73 29.4 41.61 29.42 41.53C29.5 41.48 29.71 41.45 30.06 41.43H30.04C30.39 41.41 30.82 41.4 31.34 41.4C31.77 41.4 32.16 41.46 32.5 41.57C32.83 41.68 33.16 41.88 33.43 42.15C33.7 42.42 33.92 42.77 34.07 43.21C34.23 43.65 34.3 44.12 34.3 44.56C34.31 45.01 34.23 45.42 34.1 45.81Z" fill="#044857"/>
<path d="M46.17 41.98C45.8 41.64 45.36 41.37 44.81 41.18C44.29 40.98 43.68 40.89 43.02 40.89C42.44 40.89 41.89 40.99 41.37 41.18C40.85 41.37 40.4 41.64 40.01 41.99C39.62 42.34 39.31 42.74 39.1 43.2C38.87 43.65 38.77 44.13 38.77 44.62C38.77 45.12 38.87 45.59 39.1 46.04C39.31 46.49 39.62 46.89 40.01 47.24C40.4 47.59 40.84 47.86 41.37 48.05C41.89 48.24 42.44 48.34 43.02 48.34C43.6 48.34 44.15 48.25 44.67 48.06C45.17 47.88 45.64 47.62 46.03 47.27C46.42 46.93 46.73 46.53 46.94 46.07C47.17 45.61 47.27 45.11 47.27 44.59C47.27 44.08 47.17 43.6 46.98 43.15C46.81 42.71 46.53 42.32 46.17 41.98ZM45.74 46.13C45.58 46.49 45.39 46.8 45.12 47.05C44.85 47.3 44.54 47.5 44.19 47.63C43.82 47.76 43.45 47.83 43.03 47.83C42.64 47.83 42.25 47.74 41.9 47.56C41.55 47.38 41.26 47.13 40.99 46.8C40.74 46.47 40.52 46.11 40.39 45.69C40.25 45.27 40.18 44.85 40.18 44.4C40.18 43.95 40.24 43.54 40.39 43.18C40.53 42.81 40.72 42.5 40.97 42.24C41.24 41.98 41.53 41.78 41.88 41.64C42.23 41.5 42.62 41.43 43.02 41.43C43.43 41.43 43.82 41.51 44.18 41.66C44.53 41.82 44.84 42.05 45.11 42.35C45.38 42.65 45.58 43.03 45.73 43.46C45.89 43.9 45.94 44.39 45.94 44.95C45.95 45.37 45.89 45.77 45.74 46.13Z" fill="#044857"/>
<path d="M56.28 40.97C56.22 40.97 56.11 40.96 55.93 40.95C55.72 40.93 55.52 40.92 55.35 40.91V41.02C55.62 41.14 55.78 41.27 55.85 41.4C55.93 41.53 55.97 41.74 55.99 42.01C55.99 42.25 56.01 42.61 56.01 43.1V43.94C56.01 44.39 55.99 44.66 55.99 44.74V45.16C55.99 45.39 55.99 45.59 55.99 45.76C55.97 46.21 55.91 46.58 55.83 46.85C55.73 47.13 55.62 47.34 55.46 47.48C55.3 47.62 55.09 47.71 54.88 47.76C54.65 47.81 54.34 47.83 53.97 47.83C53.72 47.83 53.48 47.81 53.29 47.77C53.1 47.73 52.92 47.65 52.77 47.52C52.61 47.39 52.48 47.21 52.38 46.96C52.28 46.71 52.22 46.38 52.22 45.98C52.2 45.68 52.18 45.43 52.18 45.25C52.18 45.07 52.18 44.89 52.18 44.72V43.67C52.18 43.3 52.18 42.99 52.18 42.75C52.18 42.51 52.2 42.28 52.22 42.05C52.24 41.82 52.3 41.61 52.38 41.43C52.46 41.24 52.57 41.11 52.75 41.03V40.93C52.63 40.94 52.44 40.95 52.17 40.97C51.88 40.99 51.67 41 51.55 41C51.38 41 51.22 41 51.03 40.98C50.86 40.97 50.62 40.95 50.31 40.93V41.04C50.52 41.17 50.68 41.32 50.76 41.48C50.82 41.64 50.88 41.83 50.88 42.05C50.9 42.39 50.9 42.66 50.9 42.85C50.9 43.1 50.9 43.44 50.9 43.86C50.88 44.32 50.88 44.63 50.88 44.8C50.88 44.92 50.88 45.17 50.9 45.55V46.17C50.92 46.65 51.02 47.04 51.21 47.34C51.38 47.64 51.64 47.87 51.93 48.02C52.22 48.17 52.53 48.27 52.86 48.31V48.32C53.19 48.36 53.54 48.39 53.89 48.39C54.39 48.39 54.8 48.36 55.15 48.3C55.5 48.24 55.81 48.12 56.08 47.93C56.35 47.74 56.57 47.45 56.7 47.06C56.86 46.67 56.93 46.15 56.93 45.51C56.93 45.46 56.93 45.33 56.95 45.12V44.74C56.95 44.16 56.95 43.67 56.95 43.25C56.95 42.83 56.97 42.44 56.99 42.07C56.99 41.76 57.03 41.53 57.11 41.39C57.19 41.25 57.32 41.14 57.52 41.04V40.93C57.38 40.94 57.19 40.95 56.94 40.97C56.6 40.96 56.41 40.97 56.28 40.97Z" fill="#044857"/>
<path d="M66.66 47.26L64.33 42L63.84 40.95H63.43C63.02 40.95 62.56 40.93 62.05 40.89L62.09 40.99C62.32 41.13 62.5 41.29 62.63 41.46C62.77 41.63 62.82 41.81 62.82 41.98C62.82 42.04 62.82 42.08 62.8 42.1L60.47 47.2C60.35 47.45 60.2 47.65 60.04 47.8C59.87 47.95 59.65 48.06 59.42 48.13L59.28 48.27C59.55 48.24 59.75 48.21 59.92 48.2C60.08 48.19 60.23 48.18 60.39 48.18C60.53 48.18 60.66 48.19 60.82 48.2C60.98 48.21 61.15 48.23 61.36 48.26V48.16C61.24 48.06 61.2 47.94 61.2 47.8C61.2 47.74 61.2 47.68 61.22 47.63C61.22 47.58 61.26 47.51 61.3 47.41V47.4L62.15 45.39C62.48 45.36 62.87 45.35 63.31 45.35C63.62 45.35 63.99 45.37 64.4 45.39L65.16 47.24C65.18 47.27 65.2 47.31 65.2 47.38C65.22 47.45 65.24 47.51 65.24 47.57C65.24 47.66 65.16 47.77 65.05 47.92C64.97 48.02 64.93 48.09 64.93 48.13V48.25C65.2 48.21 65.45 48.18 65.65 48.17C65.86 48.16 66.06 48.15 66.27 48.15C66.43 48.15 66.62 48.16 66.81 48.18C67 48.2 67.26 48.23 67.51 48.27V48.13C67.32 48.05 67.14 47.94 66.99 47.8C66.87 47.67 66.75 47.49 66.66 47.26ZM64.21 44.93C63.8 44.94 63.51 44.95 63.32 44.95C63.13 44.95 62.83 44.94 62.43 44.93V44.9L63.36 42.85L64.21 44.9V44.93Z" fill="#044857"/>
<path d="M76.57 40.94C76.53 40.94 76.43 40.93 76.3 40.91C76.09 40.88 75.89 40.85 75.72 40.84V40.95C75.93 41.07 76.07 41.21 76.13 41.37C76.19 41.52 76.23 41.72 76.23 41.95V41.96C76.27 42.4 76.29 42.85 76.31 43.31C76.31 43.77 76.33 44.23 76.33 44.67V46.32L71.25 40.9C71.08 40.89 70.9 40.89 70.75 40.88C70.59 40.87 70.36 40.85 70.07 40.82C70.01 40.81 69.97 40.81 69.93 40.81L69.97 40.93C70.18 41.06 70.32 41.2 70.42 41.35C70.5 41.51 70.56 41.68 70.58 41.87V41.93C70.58 42.12 70.6 42.42 70.6 42.83C70.6 43.04 70.58 43.36 70.58 43.77C70.58 44.18 70.58 44.47 70.58 44.66C70.58 45.84 70.56 46.72 70.56 47.3C70.54 47.49 70.5 47.65 70.39 47.78C70.29 47.91 70.18 48.01 70 48.09V48.22C70.29 48.2 70.47 48.18 70.56 48.18C70.66 48.17 70.75 48.17 70.85 48.17C71.02 48.17 71.2 48.17 71.39 48.18C71.58 48.19 71.84 48.2 72.13 48.23V48.11C71.76 47.96 71.57 47.69 71.57 47.27C71.51 46.35 71.49 45.47 71.49 44.66V42.84L76.55 48.12C76.61 48.19 76.67 48.25 76.74 48.31C76.84 48.37 76.91 48.4 76.97 48.4C77.09 48.4 77.14 48.38 77.18 48.33C77.24 48.29 77.24 48.21 77.24 48.1C77.24 48.06 77.24 47.98 77.24 47.86L77.22 47.76C77.22 47.57 77.2 47.23 77.2 46.76C77.2 46.54 77.22 46.15 77.22 45.6C77.22 45.18 77.22 44.87 77.22 44.65V43.6C77.22 43.23 77.24 42.92 77.24 42.68C77.24 42.44 77.24 42.21 77.26 41.98C77.28 41.75 77.34 41.54 77.42 41.36C77.5 41.17 77.61 41.04 77.81 40.96V40.86C77.65 40.87 77.46 40.88 77.21 40.9C76.9 40.93 76.69 40.94 76.57 40.94Z" fill="#044857"/>
<path d="M87.38 46.72C87.32 46.69 87.26 46.67 87.19 46.67C87.09 46.67 87.02 46.7 86.94 46.77C86.86 46.84 86.77 46.93 86.63 47.07C86.46 47.26 86.32 47.39 86.22 47.46C86.05 47.59 85.87 47.67 85.68 47.71C85.51 47.74 85.27 47.76 85 47.76C84.81 47.76 84.63 47.75 84.46 47.73C84.3 47.71 84.15 47.68 83.99 47.63C83.85 47.58 83.74 47.5 83.64 47.4C83.54 47.3 83.48 47.18 83.48 47.03C83.44 46.54 83.42 46.13 83.42 45.8C83.4 45.47 83.4 45.09 83.4 44.68C84.02 44.68 84.49 44.69 84.78 44.72C85.01 44.74 85.21 44.78 85.38 44.84C85.54 44.91 85.67 45.02 85.77 45.19H86.2C86.18 45 86.18 44.88 86.18 44.82V44.49C86.18 44.34 86.18 44.17 86.22 43.98C86.22 43.88 86.24 43.79 86.24 43.71H85.83C85.67 43.92 85.54 44.05 85.4 44.11C85.24 44.17 85.07 44.2 84.86 44.21C84.76 44.22 84.63 44.22 84.43 44.22C84.22 44.22 83.87 44.21 83.4 44.2V43.57C83.4 42.85 83.42 42.33 83.44 42C83.44 41.94 83.46 41.87 83.46 41.8C83.46 41.61 83.48 41.49 83.5 41.42L83.81 41.39C84.14 41.37 84.37 41.36 84.51 41.36C84.98 41.36 85.31 41.4 85.52 41.47C85.73 41.55 85.89 41.65 86.01 41.8C86.01 41.81 86.03 41.83 86.05 41.85C86.09 41.92 86.11 41.96 86.17 42C86.21 42.03 86.27 42.05 86.36 42.05C86.44 42.05 86.52 42.03 86.55 42.01C86.59 41.98 86.61 41.96 86.61 41.94C86.61 41.87 86.61 41.76 86.59 41.62C86.55 41.44 86.53 41.27 86.53 41.13C86.53 41.08 86.49 41.03 86.41 41C86.33 40.97 86.24 40.94 86.12 40.93C86 40.92 85.89 40.91 85.77 40.9C85.67 40.9 85.54 40.9 85.38 40.9C85.19 40.9 84.84 40.92 84.37 40.94C84.29 40.95 84.2 40.95 84.08 40.96C83.83 40.97 83.61 40.98 83.42 40.99C83.25 41 83.11 41 82.99 41C82.85 41 82.66 40.99 82.41 40.97C82.16 40.95 81.85 40.93 81.46 40.89L81.3 40.88L81.34 41.03C81.59 41.14 81.77 41.28 81.88 41.44C82 41.6 82.05 41.78 82.07 41.97C82.09 42.4 82.11 42.85 82.13 43.32C82.15 43.79 82.15 44.24 82.15 44.69V45.93C82.15 46.22 82.15 46.59 82.13 47.04C82.13 47.22 82.03 47.42 81.88 47.64C81.82 47.74 81.74 47.82 81.67 47.9C81.57 47.98 81.5 48.03 81.42 48.07V48.26C81.5 48.25 81.56 48.25 81.58 48.25C81.89 48.22 82.12 48.2 82.3 48.19L82.32 48.18C82.49 48.17 82.65 48.16 82.79 48.16H83.66C83.97 48.17 84.32 48.17 84.73 48.17H86.19C86.48 48.17 86.68 48.14 86.75 48.07C86.85 48 86.91 47.91 86.94 47.8V47.78C86.98 47.65 87.1 47.45 87.25 47.2C87.39 46.98 87.46 46.84 87.46 46.77C87.46 46.78 87.42 46.75 87.38 46.72Z" fill="#044857"/>
<path d="M94.62 45.54C94.5 45.33 94.37 45.14 94.19 44.96C94.02 44.79 93.82 44.63 93.65 44.49C93.46 44.35 93.2 44.19 92.91 44C92.39 43.66 92 43.38 91.75 43.14C91.5 42.9 91.38 42.63 91.38 42.32C91.38 42.07 91.48 41.84 91.69 41.66C91.9 41.47 92.14 41.38 92.39 41.38C92.58 41.38 92.8 41.41 93.01 41.48C93.22 41.55 93.42 41.65 93.61 41.79C93.65 41.83 93.71 41.91 93.8 42.06C93.88 42.21 93.97 42.32 94.03 42.4C94.11 42.48 94.19 42.52 94.28 42.52C94.38 42.52 94.45 42.49 94.49 42.45C94.53 42.4 94.55 42.36 94.55 42.33C94.55 42.2 94.53 42.01 94.51 41.75C94.47 41.47 94.45 41.26 94.45 41.11C94.45 41.09 94.43 41.06 94.39 41.03C94.37 41 94.29 40.99 94.22 40.99C94.1 40.99 94.01 41 93.95 41.01C93.89 41.02 93.83 41.04 93.78 41.07C93.76 41.08 93.76 41.09 93.74 41.09C93.64 41.09 93.47 41.07 93.22 41.02C92.91 40.97 92.68 40.94 92.5 40.94C92.13 40.94 91.8 41 91.51 41.11C91.22 41.22 90.99 41.37 90.79 41.55C90.62 41.73 90.48 41.93 90.38 42.15C90.28 42.37 90.24 42.59 90.24 42.81C90.24 43.03 90.28 43.24 90.38 43.43C90.48 43.62 90.61 43.8 90.77 43.96C90.93 44.12 91.1 44.26 91.27 44.39C91.46 44.52 91.7 44.67 91.97 44.85C92.24 45.02 92.47 45.16 92.63 45.27C92.8 45.39 92.96 45.52 93.12 45.65C93.26 45.79 93.37 45.94 93.47 46.1C93.55 46.26 93.59 46.44 93.59 46.64C93.59 46.84 93.55 47.02 93.47 47.18C93.39 47.34 93.28 47.47 93.14 47.57C93 47.67 92.85 47.75 92.71 47.8C92.55 47.85 92.4 47.87 92.24 47.87C92.05 47.87 91.81 47.81 91.54 47.69C91.27 47.57 91.05 47.42 90.88 47.25C90.8 47.17 90.72 47.03 90.63 46.83C90.55 46.7 90.51 46.61 90.47 46.55C90.41 46.5 90.37 46.47 90.31 46.47C90.17 46.47 90.08 46.51 90.02 46.58C89.96 46.66 89.94 46.74 89.94 46.81C89.94 46.91 89.94 47.01 89.96 47.11C89.98 47.22 90 47.32 90.02 47.4C90.02 47.45 90.02 47.48 90.02 47.49C90.02 47.65 90.06 47.77 90.1 47.86C90.16 47.95 90.27 48.02 90.45 48.07C90.51 48.08 90.59 48.1 90.68 48.13C90.97 48.21 91.2 48.26 91.4 48.3V48.31C91.59 48.34 91.83 48.36 92.06 48.36C92.51 48.36 92.89 48.3 93.24 48.18C93.57 48.06 93.86 47.9 94.09 47.7C94.3 47.5 94.48 47.28 94.59 47.02C94.69 46.77 94.75 46.51 94.75 46.25C94.77 45.97 94.71 45.75 94.62 45.54Z" fill="#044857"/>
<path d="M29.82 58.47C29.72 58.36 29.59 58.25 29.47 58.15C29.33 58.06 29.18 57.95 28.98 57.82C28.8 57.7 28.67 57.6 28.57 57.54C28.47 57.47 28.39 57.39 28.3 57.3C28.22 57.21 28.16 57.13 28.1 57.03C28.06 56.94 28.02 56.85 28.02 56.75C28.02 56.68 28.04 56.62 28.1 56.54C28.14 56.47 28.18 56.41 28.26 56.35C28.32 56.3 28.4 56.25 28.47 56.22C28.57 56.18 28.65 56.17 28.72 56.17C28.86 56.17 28.99 56.19 29.15 56.24C29.31 56.28 29.42 56.34 29.54 56.43C29.56 56.46 29.6 56.49 29.62 56.53C29.66 56.58 29.7 56.63 29.72 56.7C29.82 56.83 29.82 56.9 29.95 56.93C30.01 56.93 30.03 56.88 30.05 56.85C30.07 56.81 30.07 56.78 30.07 56.75C30.07 56.66 30.07 56.52 30.05 56.35C30.03 56.17 30.01 56.03 30.01 55.93C30.01 55.88 29.97 55.8 29.89 55.8C29.83 55.8 29.77 55.81 29.71 55.84C29.65 55.86 29.61 55.86 29.59 55.86C29.51 55.86 29.38 55.84 29.2 55.81C29.02 55.78 28.89 55.76 28.79 55.76C28.56 55.76 28.36 55.8 28.19 55.87C28.01 55.95 27.86 56.05 27.74 56.17C27.62 56.3 27.53 56.43 27.47 56.59C27.41 56.74 27.39 56.9 27.39 57.06C27.39 57.22 27.43 57.37 27.49 57.5C27.55 57.63 27.65 57.75 27.74 57.86C27.86 57.97 27.97 58.06 28.07 58.15C28.19 58.24 28.34 58.33 28.54 58.45C28.7 58.56 28.83 58.65 28.95 58.73C29.07 58.81 29.16 58.89 29.24 58.98C29.34 59.07 29.4 59.17 29.45 59.27C29.51 59.37 29.53 59.48 29.53 59.6C29.53 59.72 29.51 59.83 29.45 59.93C29.39 60.03 29.33 60.1 29.24 60.17C29.16 60.24 29.05 60.29 28.95 60.32C28.83 60.36 28.74 60.37 28.64 60.37C28.5 60.37 28.35 60.33 28.15 60.25C27.96 60.17 27.82 60.08 27.74 59.98C27.68 59.93 27.64 59.86 27.6 59.8C27.58 59.73 27.54 59.66 27.52 59.58C27.46 59.51 27.54 59.49 27.38 59.43C27.32 59.43 27.26 59.49 27.24 59.55C27.2 59.61 27.2 59.67 27.2 59.72C27.2 59.78 27.2 59.85 27.22 59.92C27.22 59.99 27.22 60.06 27.24 60.14V60.18C27.24 60.28 27.26 60.37 27.3 60.45C27.32 60.53 27.4 60.59 27.5 60.61C27.52 60.61 27.52 60.61 27.54 60.62C27.58 60.63 27.62 60.64 27.66 60.65C27.84 60.7 27.99 60.74 28.11 60.76C28.25 60.79 28.38 60.8 28.52 60.8C28.79 60.8 29.03 60.76 29.24 60.68C29.45 60.6 29.63 60.49 29.79 60.36C29.93 60.22 30.02 60.06 30.1 59.89C30.18 59.72 30.22 59.54 30.22 59.34C30.2 59.17 30.16 59.01 30.1 58.86C30.04 58.72 29.94 58.59 29.82 58.47Z" fill="#044857"/>
<path d="M36.51 59.6C36.39 59.63 36.39 59.68 36.28 59.78C36.14 59.94 36.03 60.06 35.93 60.13C35.83 60.21 35.72 60.26 35.58 60.28C35.46 60.31 35.31 60.32 35.11 60.32C34.99 60.32 34.88 60.32 34.76 60.3C34.64 60.29 34.53 60.26 34.43 60.23C34.33 60.2 34.25 60.15 34.2 60.09C34.14 60.04 34.12 59.98 34.1 59.89C34.08 59.56 34.08 59.28 34.06 59.06C34.06 58.86 34.06 58.63 34.06 58.38C34.49 58.38 34.78 58.39 34.98 58.4C35.14 58.41 35.29 58.44 35.41 58.48C35.53 58.52 35.61 58.59 35.64 58.67L35.66 58.71H35.85L35.83 58.62C35.83 58.51 35.83 58.43 35.83 58.4V58.18C35.83 58.12 35.83 58.07 35.83 58.03C35.83 57.98 35.83 57.93 35.85 57.86C35.85 57.81 35.87 57.75 35.87 57.69V57.6H35.69L35.67 57.63C35.59 57.75 35.49 57.82 35.4 57.86C35.3 57.9 35.19 57.93 35.03 57.93H34.93C34.87 57.94 34.83 57.94 34.79 57.94C34.71 57.94 34.58 57.94 34.38 57.93C34.24 57.92 34.13 57.92 34.05 57.92C34.05 57.51 34.05 57.22 34.05 57.04C34.05 56.85 34.05 56.68 34.07 56.52V56.41C34.07 56.31 34.09 56.23 34.09 56.18C34.17 56.17 34.28 56.17 34.4 56.16C34.58 56.15 34.71 56.14 34.79 56.14C35.1 56.14 35.34 56.17 35.49 56.22C35.65 56.27 35.74 56.34 35.78 56.41C35.8 56.42 35.8 56.45 35.82 56.47C35.86 56.54 35.9 56.6 35.98 56.61C36.06 56.61 36.1 56.52 36.1 56.47C36.1 56.41 36.1 56.33 36.08 56.24C36.06 56.12 36.04 56.01 36.04 55.94C36.04 55.81 35.92 55.78 35.81 55.76C35.69 55.74 35.54 55.73 35.36 55.73C35.22 55.73 35.01 55.74 34.7 55.76L34.52 55.77C34.36 55.78 34.21 55.78 34.11 55.79C33.99 55.8 33.9 55.8 33.84 55.8C33.76 55.8 33.63 55.8 33.47 55.78C33.29 55.77 33.12 55.75 32.92 55.74L32.88 55.73L32.76 55.71L32.8 55.89L32.82 55.93L32.86 55.95C33 56.02 33.11 56.11 33.17 56.2C33.25 56.3 33.27 56.4 33.29 56.51C33.31 56.8 33.31 57.1 33.33 57.41C33.33 57.72 33.33 58.02 33.33 58.32V59.14C33.33 59.33 33.33 59.58 33.33 59.88C33.33 59.92 33.31 59.98 33.29 60.04C33.25 60.1 33.23 60.17 33.17 60.23C33.13 60.29 33.09 60.35 33.03 60.39C32.99 60.44 32.95 60.47 32.91 60.49L32.85 60.51V60.65V60.66V60.75L33.01 60.73C33.15 60.72 33.28 60.71 33.4 60.7C33.5 60.69 33.59 60.69 33.67 60.69H34.24C34.43 60.69 34.67 60.7 34.92 60.7H35.86C36 60.7 36.11 60.68 36.19 60.62C36.25 60.57 36.29 60.5 36.31 60.42V60.38C36.33 60.34 36.39 60.22 36.49 60.06C36.55 59.98 36.57 59.92 36.61 59.86C36.63 59.81 36.65 59.76 36.65 59.71C36.65 59.66 36.57 59.6 36.51 59.6Z" fill="#044857"/>
<path d="M43.51 55.76C43.32 55.77 43.18 55.78 43.08 55.78C43.02 55.78 42.96 55.77 42.85 55.75C42.77 55.74 42.71 55.73 42.67 55.73L42.57 55.72V55.9L42.61 55.93C42.75 56.01 42.8 56.09 42.84 56.16C42.86 56.25 42.9 56.37 42.9 56.52C42.92 56.81 42.92 57.11 42.94 57.42C42.94 57.73 42.96 58.03 42.96 58.33C42.96 58.81 42.94 59.19 42.94 59.48L39.59 55.77H39.57C39.47 55.77 39.39 55.76 39.3 55.75C39.2 55.74 39.09 55.73 38.95 55.72L38.83 55.71L38.89 55.88V55.91L38.93 55.93C39.05 56.01 39.12 56.09 39.16 56.18C39.22 56.27 39.24 56.38 39.26 56.49V56.52C39.26 56.69 39.26 56.89 39.26 57.12C39.26 57.28 39.26 57.49 39.26 57.74C39.26 58.04 39.26 58.24 39.26 58.33C39.26 59.11 39.26 59.7 39.24 60.09C39.24 60.19 39.22 60.28 39.16 60.35C39.1 60.43 39.02 60.49 38.93 60.53L38.89 60.55V60.74L38.97 60.73C39.03 60.73 39.07 60.72 39.09 60.72C39.15 60.71 39.19 60.71 39.23 60.71C39.25 60.71 39.31 60.71 39.41 60.71C39.6 60.71 39.84 60.72 40.09 60.74L40.19 60.75V60.56L40.13 60.54C40.03 60.5 39.95 60.44 39.92 60.36C39.86 60.28 39.82 60.18 39.82 60.06C39.78 59.44 39.76 58.86 39.76 58.32V57.95C39.76 57.76 39.76 57.62 39.76 57.53C39.76 57.36 39.76 57.21 39.76 57.07L43.09 60.67C43.21 60.79 43.23 60.85 43.34 60.87C43.44 60.86 43.46 60.75 43.46 60.68C43.46 60.65 43.46 60.59 43.46 60.49C43.46 60.46 43.46 60.43 43.46 60.4C43.44 60.23 43.44 60.01 43.44 59.73C43.44 59.56 43.44 59.3 43.46 58.96C43.46 58.65 43.46 58.44 43.46 58.33C43.46 57.74 43.46 57.35 43.46 57.17C43.46 57.01 43.46 56.89 43.46 56.81C43.48 56.73 43.48 56.64 43.48 56.56C43.5 56.41 43.52 56.28 43.58 56.17C43.62 56.06 43.68 56 43.77 55.95L43.83 55.93V55.75H43.73C43.68 55.75 43.61 55.76 43.51 55.76Z" fill="#044857"/>
<path d="M49.81 59.6C49.71 59.62 49.69 59.67 49.6 59.78C49.44 59.94 49.33 60.06 49.23 60.14C49.13 60.21 49.02 60.26 48.9 60.29C48.76 60.32 48.61 60.33 48.43 60.33C48.29 60.33 48.18 60.33 48.06 60.31C47.94 60.29 47.85 60.27 47.73 60.24C47.65 60.21 47.55 60.16 47.5 60.1C47.44 60.05 47.42 59.98 47.42 59.9C47.4 59.57 47.38 59.3 47.38 59.07C47.38 58.87 47.36 58.64 47.36 58.39C47.79 58.39 48.1 58.4 48.3 58.41C48.46 58.42 48.59 58.45 48.73 58.49C48.85 58.53 48.91 58.6 48.96 58.68L48.98 58.72H49.16V58.63C49.14 58.52 49.14 58.45 49.14 58.41V58.19C49.14 58.13 49.14 58.08 49.14 58.03C49.16 57.98 49.16 57.93 49.16 57.87C49.18 57.82 49.18 57.76 49.18 57.71L49.2 57.62H49.02L49 57.65C48.92 57.77 48.82 57.84 48.73 57.88C48.63 57.92 48.5 57.94 48.36 57.95H48.24C48.2 57.96 48.16 57.96 48.12 57.96C48.04 57.96 47.91 57.95 47.71 57.95C47.57 57.94 47.46 57.94 47.36 57.94C47.36 57.53 47.38 57.24 47.38 57.06C47.38 56.87 47.38 56.7 47.4 56.54V56.44C47.4 56.34 47.42 56.26 47.42 56.2C47.5 56.2 47.61 56.19 47.73 56.18C47.92 56.17 48.04 56.16 48.12 56.16C48.43 56.16 48.67 56.19 48.82 56.24C48.98 56.29 49.07 56.36 49.11 56.43C49.13 56.44 49.13 56.47 49.15 56.5C49.19 56.57 49.21 56.62 49.31 56.63C49.39 56.63 49.43 56.54 49.43 56.49C49.43 56.43 49.43 56.35 49.41 56.26C49.39 56.14 49.37 56.03 49.37 55.96C49.37 55.83 49.25 55.8 49.14 55.78C49.02 55.76 48.89 55.76 48.69 55.76C48.55 55.76 48.34 55.77 48.03 55.79L47.85 55.8C47.69 55.81 47.54 55.82 47.44 55.82C47.32 55.83 47.23 55.83 47.17 55.83C47.07 55.83 46.96 55.83 46.8 55.81C46.62 55.8 46.45 55.78 46.25 55.77L46.21 55.76L46.09 55.74L46.13 55.92L46.15 55.96L46.17 55.98C46.33 56.05 46.44 56.14 46.5 56.23C46.56 56.33 46.6 56.43 46.62 56.54C46.62 56.83 46.64 57.13 46.64 57.44C46.66 57.75 46.66 58.05 46.66 58.35V59.17C46.66 59.36 46.66 59.61 46.64 59.91C46.64 59.96 46.64 60.01 46.62 60.08C46.58 60.14 46.54 60.2 46.5 60.27C46.46 60.33 46.42 60.39 46.36 60.43C46.32 60.48 46.26 60.51 46.22 60.52L46.18 60.54V60.69H46.16V60.78L46.32 60.76C46.46 60.75 46.59 60.74 46.71 60.73C46.81 60.72 46.9 60.72 46.98 60.72H47.55C47.74 60.72 47.98 60.73 48.23 60.73H49.17C49.33 60.73 49.42 60.71 49.5 60.65C49.56 60.6 49.6 60.53 49.62 60.45V60.41C49.64 60.37 49.7 60.25 49.8 60.09C49.86 60.01 49.9 59.95 49.92 59.89C49.94 59.85 49.96 59.79 49.96 59.74C49.94 59.67 49.87 59.6 49.81 59.6Z" fill="#044857"/>
<path d="M56.3 58.29C56.14 58.3 56.03 58.31 55.97 58.31C55.79 58.31 55.58 58.3 55.31 58.28L55.21 58.27V58.44L55.25 58.46C55.41 58.55 55.48 58.63 55.5 58.69C55.54 58.75 55.56 58.88 55.58 59.06C55.58 59.17 55.6 59.35 55.6 59.61C55.6 59.69 55.6 59.75 55.6 59.79V59.8C55.6 59.9 55.58 59.98 55.58 60.02C55.56 60.06 55.54 60.08 55.5 60.1C55.25 60.18 55.03 60.25 54.86 60.3C54.67 60.35 54.51 60.38 54.37 60.38C54.12 60.38 53.86 60.32 53.63 60.2C53.38 60.08 53.18 59.92 52.99 59.7C52.81 59.49 52.68 59.25 52.58 58.97C52.48 58.69 52.42 58.42 52.42 58.13C52.42 57.85 52.48 57.58 52.58 57.34C52.68 57.09 52.81 56.88 52.99 56.7C53.19 56.52 53.4 56.38 53.65 56.28C53.92 56.18 54.22 56.13 54.53 56.13C54.88 56.13 55.19 56.19 55.49 56.33C55.59 56.38 55.68 56.44 55.76 56.52C55.84 56.6 55.92 56.7 55.99 56.8C56.05 56.88 56.05 56.93 56.17 56.95C56.27 56.93 56.27 56.86 56.27 56.82C56.29 56.78 56.29 56.73 56.29 56.69C56.29 56.65 56.29 56.58 56.29 56.48C56.27 56.36 56.27 56.28 56.27 56.23C56.27 56.19 56.27 56.15 56.27 56.1V56.04C56.27 56.02 56.27 55.99 56.25 55.96C56.23 55.93 56.19 55.92 56.17 55.92C56.17 55.92 56.13 55.92 56.09 55.93C56.03 55.93 55.99 55.94 55.93 55.94C55.89 55.94 55.81 55.92 55.7 55.87C55.6 55.83 55.54 55.82 55.51 55.81C55.3 55.77 55.12 55.75 54.92 55.73C54.73 55.71 54.57 55.7 54.41 55.7C54 55.7 53.63 55.77 53.3 55.9C52.95 56.04 52.66 56.22 52.4 56.47C52.15 56.71 51.95 56.99 51.81 57.3C51.67 57.62 51.62 57.95 51.62 58.3C51.62 58.64 51.68 58.97 51.83 59.28C51.97 59.59 52.16 59.86 52.4 60.09C52.65 60.33 52.95 60.5 53.28 60.64H53.26C53.59 60.77 53.94 60.83 54.29 60.83C54.58 60.83 54.84 60.81 55.07 60.78C55.28 60.75 55.52 60.69 55.73 60.61C55.77 60.59 55.85 60.57 55.94 60.54C56.08 60.5 56.15 60.48 56.21 60.45C56.27 60.42 56.29 60.37 56.31 60.32C56.31 60.27 56.33 60.23 56.33 60.19C56.33 59.92 56.33 59.73 56.33 59.58C56.33 59.44 56.33 59.29 56.35 59.1V59.02C56.37 58.87 56.39 58.75 56.41 58.65C56.43 58.57 56.49 58.52 56.57 58.47L56.61 58.45L56.63 58.37L56.65 58.27L56.53 58.28C56.48 58.28 56.4 58.28 56.3 58.29Z" fill="#044857"/>
<path d="M62.58 60.03L61.08 56.52L60.79 55.79H60.56C60.44 55.79 60.33 55.79 60.19 55.78C60.03 55.77 59.92 55.77 59.82 55.76L59.72 55.75L59.76 55.9V55.93L59.8 55.95C59.92 56.03 60.03 56.13 60.11 56.24C60.19 56.35 60.23 56.44 60.23 56.53C60.23 56.55 60.23 56.57 60.21 56.6L58.71 60C58.57 60.3 58.38 60.48 58.09 60.57L58.07 60.58L58.01 60.64L57.89 60.8L58.09 60.77C58.27 60.74 58.44 60.73 58.64 60.73C58.8 60.73 58.97 60.74 59.13 60.77L59.23 60.78V60.61L59.19 60.59C59.13 60.53 59.11 60.48 59.11 60.43C59.11 60.39 59.13 60.3 59.19 60.19L59.72 58.89C59.97 58.86 60.23 58.85 60.52 58.85C60.73 58.85 60.99 58.86 61.28 58.89L61.75 60.09C61.77 60.12 61.77 60.15 61.79 60.19C61.79 60.23 61.81 60.26 61.81 60.29C61.81 60.3 61.77 60.37 61.71 60.46C61.65 60.54 61.61 60.59 61.59 60.67V60.8L61.69 60.79C61.92 60.75 62.18 60.74 62.41 60.74C62.64 60.74 62.86 60.75 63.07 60.79L63.17 60.8V60.61L63.13 60.59C62.87 60.48 62.7 60.31 62.58 60.03ZM61.08 58.44C60.89 58.45 60.69 58.46 60.5 58.46C60.29 58.46 60.09 58.45 59.9 58.44L60.52 57.03L61.08 58.44Z" fill="#044857"/>
<path d="M68.43 59.53C68.31 59.55 68.29 59.62 68.22 59.73C68.16 59.81 68.1 59.89 68.06 59.95C68 60.01 67.94 60.06 67.88 60.11C67.78 60.19 67.63 60.25 67.45 60.3C67.27 60.34 67.12 60.36 66.94 60.36C66.84 60.36 66.73 60.35 66.63 60.33C66.53 60.31 66.45 60.29 66.4 60.25C66.32 60.22 66.26 60.17 66.22 60.11C66.18 60.05 66.16 59.98 66.14 59.89C66.14 59.56 66.12 59.29 66.1 59.06C66.1 58.84 66.1 58.59 66.1 58.32C66.1 57.73 66.1 57.34 66.1 57.16C66.1 57 66.1 56.89 66.1 56.8C66.12 56.72 66.12 56.63 66.12 56.55C66.14 56.4 66.16 56.28 66.22 56.16C66.26 56.06 66.32 55.98 66.41 55.94L66.47 55.92V55.73L66.37 55.74C66.33 55.75 66.25 55.75 66.14 55.75C65.96 55.77 65.83 55.78 65.73 55.78C65.55 55.78 65.34 55.77 65.07 55.74L64.99 55.73V55.9L65.01 55.93C65.15 56.01 65.22 56.1 65.26 56.18C65.3 56.28 65.34 56.39 65.34 56.52C65.36 56.81 65.36 57.11 65.38 57.42C65.38 57.73 65.4 58.04 65.4 58.33V59.15C65.4 59.34 65.38 59.59 65.38 59.89C65.38 59.94 65.36 59.99 65.34 60.06C65.32 60.13 65.28 60.19 65.24 60.27C65.2 60.34 65.16 60.39 65.1 60.44C65.06 60.49 65.02 60.52 64.98 60.53L64.92 60.55L64.94 60.68V60.76L65.02 60.75C65.16 60.74 65.27 60.73 65.41 60.72C65.53 60.71 65.64 60.71 65.74 60.71C65.9 60.71 66.11 60.72 66.36 60.73C66.48 60.73 66.61 60.74 66.73 60.75C66.85 60.75 66.96 60.75 67.1 60.75C67.22 60.75 67.41 60.74 67.67 60.73C67.83 60.72 67.9 60.72 67.9 60.72C68 60.72 68.08 60.69 68.13 60.62C68.17 60.57 68.21 60.5 68.23 60.42C68.25 60.36 68.31 60.24 68.39 60.07C68.43 59.98 68.47 59.91 68.49 59.85C68.51 59.79 68.53 59.73 68.53 59.67C68.53 59.64 68.53 59.61 68.51 59.59C68.51 59.56 68.47 59.53 68.43 59.53Z" fill="#044857"/>
<path d="M74.47 60.03L72.97 56.52L72.68 55.79H72.45C72.35 55.79 72.22 55.79 72.08 55.78C71.92 55.78 71.81 55.77 71.73 55.76L71.61 55.75L71.65 55.91V55.94L71.69 55.96C71.81 56.04 71.92 56.14 72 56.25C72.08 56.36 72.12 56.45 72.12 56.54C72.12 56.56 72.12 56.58 72.1 56.61L70.6 60.01C70.48 60.31 70.27 60.49 69.98 60.58L69.96 60.59L69.9 60.65L69.76 60.81L69.97 60.78C70.15 60.75 70.32 60.74 70.52 60.74C70.68 60.74 70.85 60.75 71.01 60.78L71.11 60.79V60.62L71.07 60.6C71.01 60.54 70.99 60.49 70.99 60.44C70.99 60.4 71.01 60.31 71.05 60.2L71.6 58.9C71.83 58.87 72.11 58.86 72.4 58.86C72.61 58.86 72.87 58.87 73.16 58.9L73.63 60.1C73.65 60.13 73.65 60.16 73.65 60.2C73.67 60.24 73.67 60.27 73.67 60.3C73.67 60.31 73.65 60.38 73.57 60.47C73.51 60.55 73.47 60.6 73.47 60.68V60.81L73.57 60.8C73.8 60.76 74.04 60.75 74.29 60.75C74.5 60.75 74.74 60.76 74.95 60.8L75.05 60.81V60.61L74.99 60.59C74.77 60.48 74.59 60.31 74.47 60.03ZM72.97 58.44C72.78 58.45 72.58 58.45 72.39 58.45C72.2 58.45 71.98 58.44 71.8 58.43L72.4 57.03L72.97 58.44Z" fill="#044857"/>
<path d="M78.33 60.37C78.29 60.29 78.25 60.2 78.25 60.08C78.21 59.46 78.19 58.88 78.19 58.34C78.19 57.75 78.19 57.36 78.19 57.18C78.19 57.03 78.21 56.91 78.21 56.82C78.21 56.73 78.21 56.65 78.21 56.57C78.23 56.42 78.27 56.3 78.31 56.18C78.35 56.07 78.41 56.01 78.52 55.96L78.56 55.94V55.76H78.48C78.42 55.76 78.34 55.77 78.25 55.77C78.06 55.79 77.92 55.79 77.82 55.79C77.66 55.79 77.43 55.78 77.16 55.76L77.08 55.75V55.92L77.12 55.95C77.24 56.03 77.32 56.12 77.35 56.2C77.39 56.3 77.43 56.41 77.43 56.54C77.45 56.83 77.47 57.13 77.47 57.44C77.49 57.75 77.49 58.05 77.49 58.35C77.49 59.13 77.49 59.72 77.47 60.11C77.47 60.21 77.43 60.29 77.39 60.37C77.33 60.45 77.25 60.51 77.16 60.56L77.12 60.58V60.68V60.77L77.2 60.76C77.43 60.74 77.65 60.73 77.84 60.73C78.04 60.73 78.25 60.74 78.52 60.76L78.62 60.77V60.58L78.56 60.56C78.47 60.52 78.39 60.46 78.33 60.37Z" fill="#044857"/>
<path d="M83.6 58.47C83.48 58.36 83.37 58.25 83.23 58.15C83.11 58.06 82.96 57.95 82.76 57.82C82.58 57.7 82.45 57.6 82.35 57.53C82.25 57.46 82.16 57.38 82.08 57.29C81.98 57.2 81.92 57.12 81.87 57.02C81.83 56.93 81.81 56.84 81.81 56.74C81.81 56.67 81.83 56.61 81.87 56.53C81.91 56.46 81.97 56.4 82.03 56.34C82.11 56.29 82.17 56.24 82.26 56.21C82.34 56.17 82.42 56.16 82.51 56.16C82.63 56.16 82.78 56.18 82.92 56.23C83.08 56.27 83.19 56.33 83.31 56.42C83.33 56.45 83.37 56.48 83.39 56.52C83.43 56.56 83.47 56.62 83.51 56.69C83.59 56.81 83.61 56.89 83.72 56.91C83.78 56.91 83.82 56.86 83.82 56.83C83.84 56.79 83.86 56.76 83.86 56.73C83.86 56.64 83.84 56.5 83.82 56.33C83.8 56.15 83.8 56.01 83.8 55.91C83.8 55.87 83.76 55.78 83.68 55.78C83.62 55.78 83.56 55.79 83.49 55.82C83.45 55.84 83.41 55.84 83.39 55.84C83.31 55.84 83.18 55.82 83 55.79C82.81 55.76 82.67 55.74 82.59 55.74C82.36 55.74 82.14 55.78 81.97 55.85C81.79 55.93 81.64 56.03 81.52 56.15C81.4 56.27 81.33 56.41 81.27 56.57C81.21 56.72 81.17 56.88 81.17 57.04C81.17 57.19 81.21 57.35 81.27 57.48C81.35 57.61 81.43 57.73 81.54 57.84C81.64 57.95 81.75 58.04 81.87 58.13C81.99 58.22 82.14 58.31 82.32 58.43C82.48 58.54 82.63 58.63 82.73 58.71C82.85 58.79 82.94 58.87 83.04 58.97C83.12 59.06 83.2 59.16 83.23 59.26C83.29 59.36 83.31 59.47 83.31 59.59C83.31 59.72 83.29 59.82 83.23 59.92C83.19 60.01 83.11 60.09 83.02 60.16C82.94 60.23 82.84 60.28 82.73 60.31C82.63 60.35 82.52 60.36 82.42 60.36C82.3 60.36 82.13 60.32 81.93 60.24C81.73 60.16 81.6 60.07 81.52 59.97C81.46 59.92 81.42 59.85 81.4 59.79C81.36 59.72 81.34 59.66 81.3 59.58C81.24 59.5 81.32 59.48 81.18 59.42C81.1 59.42 81.04 59.48 81.02 59.54C81 59.59 80.98 59.66 80.98 59.71C80.98 59.77 80.98 59.84 81 59.91C81 59.98 81.02 60.05 81.02 60.13L81.04 60.18C81.04 60.28 81.04 60.37 81.08 60.44C81.12 60.52 81.2 60.58 81.27 60.6C81.29 60.6 81.35 60.61 81.45 60.64C81.63 60.69 81.78 60.73 81.9 60.75C82.02 60.78 82.15 60.79 82.29 60.79C82.56 60.79 82.82 60.75 83.03 60.67C83.24 60.59 83.42 60.48 83.56 60.35C83.7 60.21 83.81 60.05 83.87 59.87C83.95 59.7 83.99 59.52 83.99 59.32C83.99 59.15 83.95 58.99 83.87 58.84C83.79 58.72 83.72 58.59 83.6 58.47Z" fill="#044857"/>
<path d="M89.9 59.61C89.8 59.63 89.78 59.68 89.69 59.79C89.53 59.95 89.42 60.07 89.32 60.15C89.22 60.22 89.11 60.27 88.99 60.3C88.85 60.33 88.7 60.34 88.5 60.34C88.38 60.34 88.27 60.34 88.15 60.32C88.03 60.3 87.94 60.28 87.82 60.25C87.72 60.22 87.64 60.17 87.59 60.11C87.53 60.06 87.51 59.99 87.49 59.91C87.49 59.58 87.47 59.3 87.45 59.08C87.45 58.88 87.45 58.65 87.45 58.4C87.88 58.4 88.19 58.41 88.39 58.42C88.55 58.43 88.68 58.46 88.8 58.5C88.92 58.54 88.99 58.61 89.05 58.69L89.07 58.73H89.25V58.64C89.23 58.53 89.23 58.46 89.23 58.42V58.2C89.23 58.14 89.23 58.08 89.23 58.05C89.25 58 89.25 57.94 89.25 57.88C89.27 57.82 89.27 57.77 89.27 57.71V57.62H89.11L89.07 57.65C88.99 57.77 88.91 57.84 88.8 57.88C88.7 57.92 88.59 57.94 88.45 57.95H88.33C88.27 57.96 88.23 57.96 88.19 57.96C88.13 57.96 88 57.95 87.8 57.95C87.66 57.94 87.55 57.94 87.45 57.94C87.45 57.53 87.45 57.23 87.45 57.05C87.45 56.86 87.47 56.69 87.47 56.53V56.42C87.49 56.32 87.49 56.24 87.51 56.18C87.59 56.18 87.69 56.17 87.82 56.16C88 56.15 88.13 56.14 88.21 56.14C88.5 56.14 88.74 56.17 88.89 56.22C89.05 56.27 89.14 56.34 89.2 56.41C89.2 56.42 89.22 56.44 89.24 56.48C89.26 56.54 89.3 56.6 89.38 56.61C89.46 56.61 89.5 56.52 89.5 56.47C89.5 56.41 89.5 56.33 89.5 56.24C89.48 56.12 89.46 56.01 89.46 55.94C89.44 55.81 89.34 55.78 89.23 55.76C89.11 55.74 88.96 55.74 88.78 55.74C88.64 55.74 88.41 55.75 88.12 55.77L87.94 55.78C87.76 55.79 87.63 55.8 87.51 55.8C87.39 55.81 87.32 55.81 87.24 55.81C87.16 55.81 87.05 55.81 86.87 55.79C86.71 55.78 86.54 55.76 86.34 55.75L86.3 55.74L86.18 55.72L86.22 55.9V55.94L86.26 55.96C86.42 56.03 86.51 56.12 86.59 56.21C86.65 56.31 86.69 56.41 86.69 56.52C86.71 56.8 86.73 57.1 86.73 57.42C86.75 57.73 86.75 58.03 86.75 58.33V59.15C86.75 59.35 86.75 59.59 86.73 59.89C86.73 59.93 86.73 59.99 86.69 60.06C86.67 60.12 86.63 60.19 86.59 60.25C86.55 60.31 86.49 60.37 86.45 60.41C86.39 60.46 86.35 60.49 86.31 60.5L86.27 60.52V60.67H86.25V60.76L86.41 60.74C86.57 60.73 86.68 60.72 86.8 60.71C86.9 60.7 86.99 60.7 87.07 60.7H87.64C87.83 60.71 88.07 60.71 88.32 60.71H89.26C89.42 60.71 89.51 60.69 89.59 60.63C89.65 60.58 89.69 60.51 89.71 60.43L89.73 60.39C89.73 60.35 89.79 60.23 89.89 60.07C89.95 59.99 89.99 59.93 90.01 59.87C90.03 59.83 90.05 59.78 90.05 59.72C90.03 59.67 89.96 59.61 89.9 59.61ZM86.78 60.65C86.79 60.65 86.79 60.64 86.8 60.64L86.78 60.65Z" fill="#044857"/>
<path d="M94.66 58.87C94.6 58.73 94.5 58.59 94.39 58.47C94.27 58.36 94.16 58.25 94.04 58.15C93.9 58.06 93.75 57.95 93.55 57.82C93.37 57.7 93.24 57.61 93.14 57.53C93.04 57.46 92.96 57.38 92.87 57.29C92.79 57.21 92.71 57.11 92.68 57.02C92.64 56.93 92.6 56.84 92.6 56.74C92.6 56.67 92.62 56.6 92.66 56.53C92.7 56.46 92.76 56.4 92.84 56.34C92.9 56.28 92.98 56.24 93.05 56.21C93.15 56.17 93.23 56.16 93.3 56.16C93.44 56.16 93.57 56.18 93.73 56.23C93.89 56.27 94 56.33 94.1 56.42C94.14 56.45 94.16 56.48 94.2 56.52C94.22 56.56 94.26 56.62 94.3 56.69C94.4 56.82 94.4 56.89 94.51 56.92C94.59 56.92 94.61 56.87 94.63 56.84C94.65 56.81 94.65 56.78 94.65 56.74C94.65 56.65 94.65 56.52 94.63 56.34C94.61 56.16 94.59 56.02 94.59 55.92C94.59 55.88 94.55 55.79 94.47 55.79C94.41 55.79 94.35 55.8 94.28 55.83C94.24 55.85 94.2 55.85 94.18 55.85C94.1 55.85 93.97 55.83 93.79 55.8C93.61 55.77 93.48 55.75 93.38 55.75C93.15 55.75 92.95 55.79 92.76 55.86C92.58 55.94 92.45 56.04 92.33 56.16C92.21 56.29 92.12 56.43 92.06 56.58C92 56.73 91.98 56.89 91.98 57.05C91.98 57.21 92.02 57.36 92.08 57.49C92.14 57.62 92.24 57.74 92.33 57.85C92.43 57.96 92.54 58.05 92.66 58.14C92.78 58.23 92.93 58.32 93.11 58.44C93.29 58.55 93.42 58.64 93.54 58.72C93.64 58.8 93.73 58.88 93.83 58.98C93.93 59.07 93.99 59.17 94.04 59.27C94.1 59.37 94.12 59.48 94.12 59.6C94.12 59.72 94.08 59.83 94.04 59.93C93.98 60.03 93.9 60.1 93.83 60.17C93.73 60.24 93.64 60.29 93.54 60.32C93.42 60.36 93.33 60.37 93.23 60.37C93.09 60.37 92.94 60.33 92.74 60.25C92.54 60.17 92.41 60.08 92.31 59.98C92.27 59.93 92.23 59.86 92.19 59.8C92.17 59.74 92.13 59.67 92.11 59.59C92.05 59.52 92.11 59.49 91.97 59.44C91.89 59.44 91.83 59.5 91.81 59.56C91.79 59.61 91.79 59.68 91.79 59.73C91.79 59.79 91.79 59.86 91.79 59.93C91.81 59.99 91.81 60.07 91.83 60.15V60.19C91.83 60.29 91.85 60.38 91.87 60.46C91.91 60.55 91.99 60.6 92.08 60.62C92.1 60.62 92.1 60.62 92.12 60.63C92.14 60.64 92.18 60.65 92.24 60.66C92.42 60.71 92.57 60.75 92.69 60.77V60.78C92.81 60.81 92.94 60.82 93.1 60.82C93.37 60.82 93.61 60.78 93.82 60.7C94.03 60.62 94.21 60.51 94.35 60.38C94.51 60.24 94.6 60.08 94.68 59.9C94.74 59.73 94.78 59.55 94.78 59.36C94.77 59.18 94.73 59.02 94.66 58.87Z" fill="#044857"/>
<path d="M94.77 51.08H71.94V52.57H94.77V51.08Z" fill="#D00000"/>
<path d="M49.82 51.08H27.23V52.57H49.82V51.08Z" fill="#008835"/>
<path d="M71.94 51.08H49.82V52.57H71.94V51.08Z" fill="#FFEF00"/>
</svg>
