<svg width="51" height="46" viewBox="0 0 51 46" fill="none" xmlns="http://www.w3.org/2000/svg">
<path d="M3.93005 8.68003C4.03005 9.74003 4.51005 11.15 5.37005 11.71C6.77005 11.03 5.19005 8.57003 3.93005 8.68003Z" fill="#C4860E"/>
<path d="M2.22998 11.5001C2.51998 12.5701 3.36998 14.2401 4.72998 14.4601C5.08998 13.0601 3.71998 11.5201 2.22998 11.5001Z" fill="#C4860E"/>
<path d="M6.90006 11.96C7.80006 12.2 9.60006 11.76 10.2501 11.21C9.33006 10.59 6.89006 10.64 6.90006 11.96Z" fill="#C4860E"/>
<path d="M5.41006 17.41C6.91006 17.48 7.62006 16.65 8.76006 16.21C7.76006 15.11 5.01006 16.15 5.41006 17.41Z" fill="#C4860E"/>
<path d="M6.22001 14.78C7.71001 14.93 8.51001 14.14 9.69001 13.75C8.80001 12.61 5.94001 13.51 6.22001 14.78Z" fill="#C4860E"/>
<path d="M5.32 20.2C6.69 20.2 8.12 19.28 8.44 18.36C6.61 18.16 5.15 19.02 5.32 20.2Z" fill="#C4860E"/>
<path d="M6.01998 26.7C5.42998 24.72 3.54998 24.47 1.47998 24.46C2.58998 25.71 4.02998 26.55 6.01998 26.7Z" fill="#C4860E"/>
<path d="M4.78004 23.22C4.16004 21.18 2.43004 20.93 0.540039 20.93C1.62004 22.21 2.96004 23.08 4.78004 23.22Z" fill="#C4860E"/>
<path d="M4.09 19.96C4.03 17.91 2.38 17.42 0.5 17.15C1.22 18.53 2.32 19.55 4.09 19.96Z" fill="#C4860E"/>
<path d="M3.68998 17.33C4.29998 15.38 2.83998 14.6 1.09998 14C1.32998 15.44 2.07998 16.61 3.68998 17.33Z" fill="#C4860E"/>
<path d="M2.79004 28.19C3.56004 28.84 5.75004 30.54 7.64004 29.78C6.66004 28.4 5.15004 27.76 2.79004 28.19Z" fill="#C4860E"/>
<path d="M10.1 32.25C11.33 31.56 11.79 29.81 11.73 28.75C9.99005 29.21 8.77005 30.41 10.1 32.25Z" fill="#C4860E"/>
<path d="M4.37 31.67C5.81 32.55 7.65999 33.49 9.65999 33.04C8.86999 31.38 6.43 31.03 4.37 31.67Z" fill="#C4860E"/>
<path d="M12.87 34.89C13.51 34.12 14.07 32.03 13.19 31.09C11.96 31.55 10.82 33.83 12.87 34.89Z" fill="#C4860E"/>
<path d="M15.6801 37.19C16.0101 36.27 15.9401 33.76 15.1901 32.93C13.8401 33.53 13.3501 36.46 15.6801 37.19Z" fill="#C4860E"/>
<path d="M18.7199 39.13C19.0999 37.91 18.3799 35.24 17.4899 34.63C16.3299 35.42 16.6299 38.64 18.7199 39.13Z" fill="#C4860E"/>
<path d="M9.37 38.31C10.94 38.73 13.72 39.34 14.88 38.33C13.59 36.55 10.14 37.08 9.37 38.31Z" fill="#C4860E"/>
<path d="M12.73 41.36C14.05 41.44 17.18 41.59 17.99 40.65C16.48 38.78 12.77 39.72 12.73 41.36Z" fill="#C4860E"/>
<path d="M21.24 42.38C19.31 40.79 16.46 42.22 16.26 43.68L16.84 43.88C18.8 43.9 20.59 43.47 21.24 42.38Z" fill="#C4860E"/>
<path d="M8.71005 3.31006C8.52005 4.23006 8.65005 6.01006 9.34005 6.60006C10.1401 5.84006 10.2201 3.72006 8.71005 3.31006Z" fill="#C4860E"/>
<path d="M7.30997 9.05005C8.25997 8.01005 7.12997 6.24005 6.26997 5.61005C5.71997 6.44005 6.24997 8.50005 7.30997 9.05005Z" fill="#C4860E"/>
<path d="M7.89005 29.01C9.18005 29.24 10.1 27.3601 10.3 26.1901C8.29005 26.4701 7.62005 27.4801 7.67005 28.8901C7.32005 27.8901 6.76005 27.1601 6.49005 26.0601C9.04005 25.1501 8.31005 25.1201 9.33005 23.4601C6.80005 23.5301 6.37005 24.7001 6.32005 26.0801C4.56005 21.1301 3.82004 12.1301 11.01 5.24005C8.88004 6.62005 7.54005 8.77005 6.50005 10.8701C2.98005 17.6601 4.96005 24.1601 6.47005 27.5401C10.05 35.6701 19.85 42.0801 28.44 45.3901L30.28 45.4401C17.94 41.0301 10.46 34.1 7.89005 29.01Z" fill="#C4860E"/>
<path d="M8.13 9.30006C8.74 9.75006 11.81 9.44006 11.39 8.81006C10.82 8.69006 8.55 8.00006 8.13 9.30006Z" fill="#C4860E"/>
<path d="M10 6.90002C10.61 7.34002 13.66 6.98002 13.25 6.35002C12.68 6.23002 10.41 5.57002 10 6.90002Z" fill="#C4860E"/>
<path d="M5.84998 23.2C7.40998 22.77 8.01998 21.82 8.83998 20.98C6.66998 20.92 5.18998 21.48 5.84998 23.2Z" fill="#C4860E"/>
<path d="M6.68005 35.18C7.86005 35.59 9.84006 36.53 12.0801 35.89C11.4301 34.07 7.63005 34.09 6.68005 35.18Z" fill="#C4860E"/>
<path d="M11.15 5.05004C12.68 5.19004 13.94 3.59004 13.45 2.85004C12.5 3.51004 11.21 4.02004 11.15 5.05004Z" fill="#C4860E"/>
<path d="M21.96 40.86C22.75 39.96 21.03 37.33 20.21 36.25C18.88 37.33 20.25 40.8 21.96 40.86Z" fill="#C4860E"/>
<path d="M16.85 43.89L16.27 43.69C16.26 43.75 16.25 43.81 16.25 43.87C16.45 43.88 16.65 43.89 16.85 43.89Z" fill="#C4860E"/>
<path d="M47.07 8.68003C46.97 9.74003 46.5 11.15 45.63 11.71C44.23 11.03 45.81 8.57003 47.07 8.68003Z" fill="#C4860E"/>
<path d="M48.7701 11.5001C48.4801 12.5701 47.6301 14.2401 46.2701 14.4601C45.9101 13.0601 47.2801 11.5201 48.7701 11.5001Z" fill="#C4860E"/>
<path d="M44.1 11.96C43.2 12.2 41.4 11.76 40.76 11.21C41.67 10.59 44.11 10.64 44.1 11.96Z" fill="#C4860E"/>
<path d="M45.59 17.41C44.09 17.48 43.38 16.65 42.24 16.21C43.24 15.11 46 16.15 45.59 17.41Z" fill="#C4860E"/>
<path d="M44.7801 14.78C43.3001 14.93 42.5001 14.14 41.3101 13.75C42.2101 12.61 45.0601 13.51 44.7801 14.78Z" fill="#C4860E"/>
<path d="M45.6801 20.2C44.3101 20.2 42.8801 19.28 42.5601 18.36C44.3901 18.16 45.8501 19.02 45.6801 20.2Z" fill="#C4860E"/>
<path d="M44.98 26.7C45.57 24.72 47.45 24.47 49.53 24.46C48.41 25.71 46.97 26.55 44.98 26.7Z" fill="#C4860E"/>
<path d="M46.22 23.22C46.84 21.18 48.57 20.93 50.46 20.93C49.39 22.21 48.04 23.08 46.22 23.22Z" fill="#C4860E"/>
<path d="M46.91 19.96C46.97 17.91 48.62 17.42 50.5 17.15C49.78 18.53 48.68 19.55 46.91 19.96Z" fill="#C4860E"/>
<path d="M47.31 17.33C46.7 15.38 48.16 14.6 49.9 14C49.67 15.44 48.92 16.61 47.31 17.33Z" fill="#C4860E"/>
<path d="M48.21 28.19C47.44 28.84 45.25 30.54 43.37 29.78C44.34 28.4 45.85 27.76 48.21 28.19Z" fill="#C4860E"/>
<path d="M40.9 32.25C39.67 31.56 39.21 29.81 39.27 28.75C41.01 29.21 42.24 30.41 40.9 32.25Z" fill="#C4860E"/>
<path d="M46.63 31.67C45.19 32.55 43.34 33.49 41.34 33.04C42.13 31.38 44.57 31.03 46.63 31.67Z" fill="#C4860E"/>
<path d="M38.1299 34.89C37.4899 34.12 36.9399 32.03 37.8199 31.09C39.0499 31.55 40.1799 33.83 38.1299 34.89Z" fill="#C4860E"/>
<path d="M35.32 37.19C34.99 36.27 35.07 33.76 35.81 32.93C37.16 33.53 37.65 36.46 35.32 37.19Z" fill="#C4860E"/>
<path d="M32.28 39.13C31.9 37.91 32.62 35.24 33.51 34.63C34.67 35.42 34.37 38.64 32.28 39.13Z" fill="#C4860E"/>
<path d="M41.63 38.31C40.06 38.73 37.28 39.34 36.12 38.33C37.41 36.55 40.87 37.08 41.63 38.31Z" fill="#C4860E"/>
<path d="M38.28 41.36C36.95 41.44 33.82 41.59 33.02 40.65C34.52 38.78 38.23 39.72 38.28 41.36Z" fill="#C4860E"/>
<path d="M29.76 42.38C31.7 40.79 34.54 42.22 34.74 43.68L34.16 43.88C32.2 43.9 30.41 43.47 29.76 42.38Z" fill="#C4860E"/>
<path d="M42.29 3.31006C42.49 4.23006 42.35 6.01006 41.66 6.60006C40.86 5.84006 40.78 3.72006 42.29 3.31006Z" fill="#C4860E"/>
<path d="M43.69 9.05005C42.74 8.01005 43.88 6.24005 44.73 5.61005C45.28 6.44005 44.76 8.50005 43.69 9.05005Z" fill="#C4860E"/>
<path d="M43.11 29.01C41.82 29.24 40.9 27.3601 40.7 26.1901C42.71 26.4701 43.38 27.4801 43.33 28.8901C43.68 27.8901 44.24 27.1601 44.51 26.0601C41.96 25.1501 42.69 25.1201 41.67 23.4601C44.2 23.5301 44.63 24.7001 44.68 26.0801C46.44 21.1301 47.18 12.1301 39.99 5.24005C42.12 6.62005 43.46 8.77005 44.5 10.8701C48.03 17.6601 46.04 24.1601 44.53 27.5401C40.95 35.6701 31.15 42.0801 22.56 45.3901L20.72 45.4401C33.06 41.0301 40.54 34.1 43.11 29.01Z" fill="#C4860E"/>
<path d="M42.87 9.30006C42.26 9.75006 39.19 9.44006 39.61 8.81006C40.18 8.69006 42.46 8.00006 42.87 9.30006Z" fill="#C4860E"/>
<path d="M41 6.90002C40.4 7.34002 37.34 6.98002 37.76 6.35002C38.32 6.23002 40.59 5.57002 41 6.90002Z" fill="#C4860E"/>
<path d="M45.15 23.2C43.59 22.77 42.99 21.82 42.16 20.98C44.33 20.92 45.81 21.48 45.15 23.2Z" fill="#C4860E"/>
<path d="M44.33 35.18C43.14 35.59 41.16 36.53 38.92 35.89C39.58 34.07 43.37 34.09 44.33 35.18Z" fill="#C4860E"/>
<path d="M39.85 5.05004C38.32 5.19004 37.06 3.59004 37.55 2.85004C38.5 3.51004 39.79 4.02004 39.85 5.05004Z" fill="#C4860E"/>
<path d="M29.04 40.86C28.25 39.96 29.97 37.33 30.79 36.25C32.12 37.33 30.75 40.8 29.04 40.86Z" fill="#C4860E"/>
<path d="M34.15 43.89L34.73 43.69C34.74 43.75 34.75 43.81 34.75 43.87C34.55 43.88 34.35 43.89 34.15 43.89Z" fill="#C4860E"/>
<path d="M25.5001 0.340027C25.9901 1.40003 26.5301 2.47003 27.0701 3.53003C28.2401 3.72003 29.4101 3.92003 30.6001 4.11003C29.7801 4.84003 28.9201 5.65003 28.0501 6.47003C28.2301 7.61003 28.3601 8.73003 28.4401 9.85003C27.5101 9.41003 26.5301 8.89003 25.5101 8.34003C24.5001 8.89003 23.5001 9.41003 22.5901 9.85003C22.6601 8.74003 22.8001 7.61003 22.9701 6.47003C22.1101 5.65003 21.2401 4.84003 20.4301 4.11003C21.6101 3.91003 22.7801 3.71003 23.9501 3.53003C24.4701 2.47003 25.0101 1.40003 25.5001 0.340027Z" fill="#C4860E"/>
<path d="M11.48 15.95V15.78H39.51V15.95H11.48Z" fill="#C4860E"/>
<path d="M11.48 26.84V26.67H39.51V26.84H11.48Z" fill="#C4860E"/>
<path d="M14.47 17.47C14.3 17.35 14.11 17.25 13.89 17.18C13.66 17.11 13.43 17.08 13.19 17.08C13.08 17.08 12.97 17.08 12.89 17.09C12.8 17.09 12.7 17.1 12.58 17.1C12.48 17.11 12.39 17.11 12.31 17.11C12.25 17.11 12.17 17.11 12.08 17.11C12.01 17.11 11.91 17.11 11.81 17.1C11.7 17.09 11.59 17.09 11.48 17.08V17.12C11.69 17.24 11.8 17.38 11.81 17.52C11.82 17.7 11.83 17.89 11.83 18.08C11.84 18.27 11.84 18.46 11.84 18.65V19.17C11.84 19.39 11.84 19.56 11.83 19.69C11.83 19.76 11.8 19.84 11.73 19.91C11.67 19.98 11.6 20.04 11.53 20.07V20.13C11.63 20.12 11.73 20.11 11.83 20.11C11.93 20.11 12.02 20.1 12.09 20.1C12.19 20.1 12.33 20.11 12.53 20.12C12.74 20.13 12.89 20.14 12.98 20.14C13.28 20.14 13.55 20.09 13.8 20.01C14.04 19.93 14.26 19.81 14.44 19.65C14.62 19.5 14.75 19.32 14.85 19.12C14.95 18.92 14.99 18.7 14.99 18.46C14.99 18.26 14.94 18.07 14.85 17.9C14.77 17.74 14.63 17.59 14.47 17.47ZM14.33 19.12C14.27 19.28 14.18 19.42 14.06 19.54C13.95 19.66 13.82 19.75 13.67 19.82C13.52 19.89 13.36 19.92 13.19 19.92C12.96 19.92 12.8 19.91 12.67 19.9C12.55 19.88 12.45 19.85 12.4 19.81V19.77C12.39 19.75 12.39 19.74 12.39 19.74C12.37 19.36 12.36 19 12.36 18.66V18.22C12.36 18.07 12.36 17.94 12.36 17.84C12.36 17.74 12.37 17.64 12.38 17.55C12.38 17.54 12.38 17.52 12.38 17.5C12.39 17.44 12.39 17.39 12.4 17.35C12.43 17.33 12.52 17.32 12.67 17.31H12.66C12.8 17.3 12.98 17.3 13.2 17.3C13.38 17.3 13.54 17.32 13.68 17.37C13.82 17.42 13.95 17.5 14.07 17.61C14.18 17.72 14.27 17.87 14.34 18.05C14.4 18.23 14.44 18.43 14.44 18.61C14.42 18.79 14.39 18.96 14.33 19.12Z" fill="white"/>
<path d="M19.34 17.53C19.19 17.39 19 17.28 18.78 17.2C18.56 17.12 18.31 17.08 18.04 17.08C17.8 17.08 17.57 17.12 17.36 17.2C17.14 17.28 16.96 17.39 16.8 17.54C16.64 17.68 16.51 17.85 16.42 18.04C16.32 18.23 16.28 18.42 16.28 18.63C16.28 18.84 16.32 19.03 16.42 19.22C16.51 19.41 16.64 19.57 16.8 19.72C16.96 19.86 17.15 19.98 17.36 20.06C17.58 20.14 17.8 20.18 18.04 20.18C18.28 20.18 18.51 20.14 18.72 20.06C18.93 19.98 19.12 19.88 19.28 19.73C19.44 19.59 19.57 19.42 19.66 19.23C19.76 19.04 19.8 18.83 19.8 18.62C19.8 18.41 19.76 18.21 19.68 18.02C19.61 17.84 19.5 17.67 19.34 17.53ZM19.17 19.25C19.11 19.4 19.03 19.53 18.91 19.63C18.8 19.74 18.67 19.82 18.52 19.87C18.37 19.93 18.21 19.95 18.04 19.95C17.88 19.95 17.72 19.91 17.57 19.84C17.43 19.77 17.3 19.66 17.19 19.53C17.09 19.39 17 19.24 16.94 19.07C16.88 18.9 16.85 18.72 16.85 18.53C16.85 18.34 16.87 18.17 16.94 18.02C17 17.87 17.08 17.74 17.18 17.63C17.29 17.52 17.41 17.44 17.56 17.38C17.7 17.32 17.87 17.29 18.04 17.29C18.21 17.29 18.37 17.32 18.52 17.39C18.66 17.46 18.79 17.55 18.91 17.68C19.02 17.81 19.1 17.96 19.17 18.14C19.23 18.32 19.26 18.53 19.26 18.76C19.26 18.94 19.23 19.11 19.17 19.25Z" fill="white"/>
<path d="M23.5399 17.12C23.5199 17.12 23.4699 17.12 23.3999 17.11C23.3099 17.1 23.2299 17.1 23.1599 17.09V17.13C23.2699 17.18 23.3399 17.23 23.3699 17.29C23.3999 17.34 23.4199 17.43 23.4299 17.54C23.4299 17.64 23.4399 17.79 23.4399 17.99V18.34C23.4399 18.53 23.4299 18.64 23.4299 18.67V18.85C23.4299 18.95 23.4299 19.03 23.4299 19.1C23.4199 19.29 23.3999 19.44 23.3699 19.55C23.3299 19.66 23.2799 19.75 23.2199 19.81C23.1599 19.87 23.0699 19.91 22.9799 19.93C22.8799 19.95 22.7499 19.96 22.5999 19.96C22.4999 19.96 22.3999 19.95 22.3199 19.93C22.2399 19.91 22.1699 19.88 22.0999 19.83C22.0399 19.78 21.9799 19.7 21.9399 19.6C21.8999 19.5 21.8799 19.36 21.8799 19.19C21.8699 19.06 21.8599 18.96 21.8599 18.89C21.8599 18.82 21.8599 18.74 21.8599 18.67V18.23C21.8599 18.08 21.8599 17.95 21.8599 17.85C21.8599 17.75 21.8699 17.65 21.8799 17.56C21.8899 17.46 21.9099 17.38 21.9399 17.3C21.9699 17.22 22.0199 17.17 22.0899 17.13V17.09C22.0399 17.09 21.9599 17.1 21.8499 17.11C21.7299 17.12 21.6399 17.12 21.5899 17.12C21.5199 17.12 21.4499 17.12 21.3699 17.11C21.2999 17.11 21.1999 17.1 21.0699 17.09V17.13C21.1599 17.18 21.2199 17.24 21.2599 17.31C21.2799 17.38 21.3099 17.45 21.3099 17.55C21.3199 17.69 21.3199 17.8 21.3199 17.88C21.3199 17.98 21.3199 18.12 21.3199 18.3C21.3099 18.49 21.3099 18.62 21.3099 18.69C21.3099 18.74 21.3099 18.84 21.3199 19V19.26C21.3299 19.46 21.3699 19.62 21.4499 19.75C21.5199 19.88 21.6299 19.97 21.7499 20.03C21.8699 20.09 21.9999 20.13 22.1399 20.15C22.2799 20.17 22.4199 20.18 22.5699 20.18C22.7799 20.18 22.9499 20.17 23.0899 20.14C23.2299 20.12 23.3599 20.06 23.4799 19.99C23.5899 19.91 23.6799 19.79 23.7399 19.63C23.7999 19.47 23.8399 19.25 23.8399 18.99C23.8399 18.97 23.8399 18.92 23.8499 18.83V18.67C23.8499 18.43 23.8499 18.22 23.8499 18.05C23.8499 17.88 23.8599 17.71 23.8699 17.56C23.8699 17.43 23.8899 17.34 23.9199 17.28C23.9499 17.22 24.0099 17.17 24.0899 17.14V17.1C24.0299 17.1 23.9499 17.11 23.8499 17.12C23.6799 17.11 23.5999 17.12 23.5399 17.12Z" fill="white"/>
<path d="M27.85 19.72L26.88 17.54L26.68 17.1H26.51C26.34 17.1 26.15 17.09 25.94 17.07L25.96 17.11C26.06 17.17 26.13 17.23 26.19 17.31C26.25 17.38 26.27 17.45 26.27 17.53C26.27 17.55 26.27 17.57 26.26 17.58L25.29 19.7C25.24 19.8 25.18 19.89 25.11 19.95C25.04 20.01 24.95 20.06 24.85 20.09L24.79 20.15C24.9 20.14 24.98 20.13 25.06 20.12C25.12 20.12 25.19 20.11 25.25 20.11C25.31 20.11 25.36 20.11 25.43 20.12C25.49 20.12 25.57 20.13 25.66 20.14V20.1C25.61 20.06 25.6 20.01 25.6 19.95C25.6 19.92 25.6 19.9 25.61 19.88C25.61 19.86 25.63 19.83 25.64 19.79L25.99 18.95C26.13 18.94 26.29 18.93 26.47 18.93C26.6 18.93 26.75 18.94 26.92 18.95L27.23 19.72C27.24 19.73 27.25 19.75 27.25 19.78C27.26 19.81 27.27 19.83 27.27 19.86C27.27 19.9 27.24 19.94 27.19 20.01C27.16 20.05 27.14 20.08 27.14 20.1V20.15C27.25 20.13 27.36 20.12 27.44 20.12C27.53 20.11 27.61 20.11 27.7 20.11C27.76 20.11 27.84 20.11 27.93 20.12C28.01 20.13 28.12 20.14 28.22 20.16V20.1C28.14 20.07 28.07 20.02 28 19.96C27.94 19.89 27.89 19.82 27.85 19.72ZM26.83 18.76C26.66 18.76 26.54 18.77 26.46 18.77C26.38 18.77 26.26 18.77 26.09 18.76V18.75L26.48 17.9L26.83 18.75V18.76Z" fill="white"/>
<path d="M31.9599 17.1C31.9399 17.1 31.8999 17.1 31.8499 17.09C31.7599 17.08 31.68 17.07 31.61 17.06V17.11C31.7 17.16 31.7499 17.22 31.7799 17.28C31.7999 17.34 31.82 17.42 31.82 17.52C31.84 17.7 31.8399 17.89 31.8499 18.08C31.8499 18.27 31.86 18.46 31.86 18.65V19.34L29.75 17.09C29.68 17.09 29.61 17.08 29.54 17.08C29.48 17.08 29.3799 17.07 29.2599 17.06C29.2399 17.06 29.22 17.06 29.2 17.06L29.22 17.11C29.31 17.16 29.36 17.22 29.41 17.29C29.44 17.35 29.47 17.43 29.47 17.51V17.54C29.47 17.62 29.4799 17.75 29.4799 17.91C29.4799 18 29.47 18.13 29.47 18.3C29.47 18.47 29.47 18.59 29.47 18.67C29.47 19.16 29.4599 19.52 29.4599 19.77C29.4499 19.85 29.4399 19.91 29.3899 19.97C29.3499 20.02 29.2999 20.07 29.2299 20.1V20.15C29.3499 20.14 29.4199 20.13 29.4599 20.13C29.4999 20.13 29.54 20.13 29.58 20.13C29.65 20.13 29.72 20.13 29.81 20.14C29.89 20.14 29.9999 20.15 30.1199 20.16V20.11C29.9699 20.05 29.8899 19.93 29.8899 19.76C29.8699 19.38 29.86 19.01 29.86 18.68V17.9L31.9599 20.09C31.9799 20.12 32.01 20.15 32.04 20.17C32.08 20.19 32.1099 20.21 32.1399 20.21C32.1899 20.21 32.2099 20.2 32.2299 20.18C32.2499 20.16 32.25 20.13 32.25 20.09C32.25 20.07 32.25 20.04 32.25 19.99L32.24 19.95C32.24 19.87 32.2299 19.73 32.2299 19.54C32.2299 19.45 32.24 19.29 32.24 19.06C32.24 18.89 32.24 18.76 32.24 18.67V18.23C32.24 18.08 32.25 17.95 32.25 17.85C32.25 17.75 32.2499 17.65 32.2599 17.56C32.2699 17.46 32.29 17.38 32.32 17.3C32.35 17.22 32.4 17.17 32.4799 17.13V17.09C32.42 17.09 32.3399 17.1 32.2299 17.11C32.0999 17.1 32.0099 17.1 31.9599 17.1Z" fill="white"/>
<path d="M36.4499 19.5C36.4299 19.49 36.3999 19.48 36.3699 19.48C36.3299 19.48 36.2999 19.49 36.2699 19.52C36.2399 19.55 36.1999 19.59 36.1399 19.64C36.0699 19.72 36.0099 19.77 35.9699 19.8C35.8999 19.85 35.8299 19.89 35.7399 19.9C35.6699 19.91 35.5699 19.92 35.4599 19.92C35.3799 19.92 35.3099 19.92 35.2299 19.91C35.1699 19.9 35.0999 19.89 35.0399 19.87C34.9799 19.85 34.9399 19.82 34.8999 19.78C34.8599 19.74 34.8399 19.69 34.8399 19.63C34.8199 19.43 34.8199 19.26 34.8199 19.12C34.8099 18.98 34.8099 18.83 34.8099 18.66C35.0699 18.66 35.2599 18.66 35.3799 18.68C35.4799 18.69 35.5599 18.7 35.6299 18.73C35.6899 18.76 35.7499 18.81 35.7899 18.88H35.9699C35.9599 18.8 35.9599 18.75 35.9599 18.73V18.59C35.9599 18.53 35.9599 18.46 35.9799 18.38C35.9799 18.34 35.9899 18.3 35.9899 18.27H35.7999C35.7399 18.36 35.6799 18.41 35.6199 18.44C35.5599 18.46 35.4799 18.48 35.3899 18.48C35.3499 18.48 35.2899 18.48 35.2099 18.48C35.1199 18.48 34.9799 18.48 34.7799 18.47V18.21C34.7799 17.91 34.7899 17.69 34.7999 17.56C34.7999 17.54 34.8099 17.51 34.8099 17.48C34.8099 17.4 34.8199 17.35 34.8299 17.32L34.9599 17.31C35.0999 17.3 35.1899 17.3 35.2499 17.3C35.4399 17.3 35.5799 17.32 35.6699 17.35C35.7599 17.38 35.8199 17.43 35.8699 17.49C35.8699 17.49 35.8799 17.5 35.8899 17.51C35.9099 17.54 35.9099 17.56 35.9399 17.57C35.9599 17.58 35.9799 17.59 36.0199 17.59C36.0499 17.59 36.0799 17.58 36.0999 17.57C36.1199 17.56 36.1199 17.55 36.1199 17.54C36.1199 17.51 36.1199 17.47 36.1099 17.41C36.0899 17.33 36.0899 17.27 36.0899 17.2C36.0899 17.18 36.0699 17.16 36.0399 17.15C36.0099 17.14 35.9699 17.13 35.9199 17.12C35.8699 17.11 35.8199 17.11 35.7799 17.11C35.7399 17.11 35.6799 17.11 35.6199 17.11C35.5399 17.11 35.3899 17.12 35.1999 17.13C35.1699 17.13 35.1299 17.13 35.0799 17.14C34.9799 17.14 34.8899 17.15 34.8099 17.15C34.7399 17.15 34.6799 17.15 34.6299 17.15C34.5699 17.15 34.4899 17.15 34.3899 17.14C34.2899 17.13 34.1599 17.12 33.9999 17.11H33.9399L33.9599 17.17C34.0599 17.22 34.1399 17.27 34.1899 17.34C34.2399 17.41 34.2599 17.48 34.2699 17.56C34.2799 17.74 34.2899 17.93 34.2899 18.12C34.2999 18.31 34.2999 18.5 34.2999 18.69V19.2C34.2999 19.32 34.2999 19.47 34.2899 19.66C34.2899 19.74 34.2499 19.82 34.1899 19.91C34.1699 19.95 34.1299 19.99 34.0999 20.02C34.0599 20.05 34.0299 20.08 33.9999 20.09V20.17C34.0299 20.17 34.0599 20.17 34.0599 20.17C34.1899 20.16 34.2899 20.15 34.3599 20.14H34.3699C34.4399 20.14 34.5099 20.13 34.5599 20.13H34.9199C35.0499 20.13 35.1899 20.13 35.3599 20.13H35.9599C36.0799 20.13 36.1599 20.12 36.1899 20.09C36.2299 20.06 36.2499 20.03 36.2699 19.98V19.97C36.2899 19.91 36.3299 19.83 36.3999 19.73C36.4599 19.64 36.4899 19.58 36.4899 19.55C36.4799 19.53 36.4599 19.51 36.4499 19.5Z" fill="white"/>
<path d="M39.45 19.01C39.4 18.92 39.35 18.84 39.27 18.77C39.2 18.7 39.12 18.63 39.04 18.58C38.96 18.52 38.85 18.46 38.73 18.38C38.51 18.24 38.35 18.12 38.25 18.02C38.15 17.92 38.1 17.81 38.1 17.68C38.1 17.58 38.14 17.48 38.23 17.4C38.32 17.32 38.42 17.28 38.52 17.28C38.6 17.28 38.69 17.29 38.78 17.32C38.87 17.35 38.95 17.39 39.03 17.45C39.05 17.47 39.07 17.5 39.11 17.56C39.14 17.62 39.18 17.67 39.21 17.7C39.24 17.73 39.27 17.75 39.31 17.75C39.35 17.75 39.38 17.74 39.4 17.72C39.42 17.7 39.42 17.68 39.42 17.67C39.42 17.62 39.41 17.54 39.4 17.43C39.38 17.31 39.38 17.22 39.38 17.16C39.38 17.15 39.37 17.14 39.36 17.13C39.35 17.12 39.32 17.11 39.29 17.11C39.24 17.11 39.2 17.11 39.18 17.12C39.16 17.13 39.13 17.13 39.11 17.14C39.1 17.14 39.1 17.15 39.09 17.15C39.05 17.15 38.98 17.14 38.87 17.12C38.74 17.1 38.64 17.09 38.57 17.09C38.42 17.09 38.28 17.11 38.16 17.16C38.04 17.21 37.94 17.27 37.86 17.34C37.79 17.41 37.73 17.5 37.69 17.59C37.65 17.68 37.63 17.77 37.63 17.86C37.63 17.95 37.65 18.04 37.69 18.12C37.73 18.2 37.79 18.27 37.85 18.34C37.91 18.41 37.99 18.47 38.06 18.52C38.14 18.57 38.24 18.64 38.35 18.71C38.46 18.78 38.56 18.84 38.62 18.89C38.69 18.94 38.76 18.99 38.82 19.05C38.88 19.11 38.92 19.17 38.96 19.24C38.99 19.31 39.01 19.38 39.01 19.46C39.01 19.54 38.99 19.62 38.96 19.68C38.93 19.75 38.88 19.8 38.82 19.84C38.76 19.88 38.7 19.91 38.64 19.94C38.58 19.96 38.51 19.97 38.45 19.97C38.37 19.97 38.27 19.95 38.16 19.9C38.05 19.85 37.96 19.79 37.89 19.72C37.86 19.69 37.83 19.63 37.79 19.54C37.76 19.49 37.74 19.45 37.73 19.42C37.71 19.4 37.69 19.39 37.67 19.39C37.61 19.39 37.57 19.41 37.55 19.44C37.53 19.47 37.52 19.5 37.52 19.54C37.52 19.58 37.52 19.62 37.53 19.67C37.54 19.72 37.55 19.76 37.55 19.79C37.55 19.81 37.55 19.82 37.55 19.83C37.55 19.9 37.57 19.95 37.58 19.99C37.6 20.03 37.65 20.06 37.72 20.08C37.74 20.08 37.78 20.09 37.82 20.11C37.94 20.14 38.04 20.16 38.12 20.18C38.2 20.19 38.3 20.2 38.39 20.2C38.58 20.2 38.74 20.18 38.88 20.12C39.02 20.07 39.14 20 39.23 19.92C39.32 19.84 39.39 19.74 39.44 19.64C39.48 19.54 39.5 19.43 39.5 19.32C39.52 19.19 39.49 19.1 39.45 19.01Z" fill="white"/>
<path d="M12.56 24.38C12.52 24.33 12.46 24.29 12.41 24.25C12.35 24.21 12.29 24.17 12.21 24.11C12.14 24.06 12.08 24.02 12.04 23.99C12 23.96 11.97 23.93 11.93 23.89C11.9 23.85 11.87 23.82 11.85 23.78C11.83 23.74 11.82 23.7 11.82 23.66C11.82 23.63 11.83 23.6 11.85 23.57C11.87 23.54 11.88 23.52 11.91 23.49C11.93 23.47 11.97 23.45 12 23.44C12.04 23.43 12.07 23.42 12.11 23.42C12.17 23.42 12.22 23.43 12.29 23.45C12.35 23.47 12.4 23.49 12.45 23.53C12.46 23.54 12.47 23.56 12.48 23.57C12.5 23.59 12.51 23.61 12.52 23.64C12.56 23.69 12.56 23.72 12.62 23.73C12.64 23.73 12.65 23.71 12.66 23.7C12.67 23.69 12.67 23.67 12.67 23.66C12.67 23.62 12.67 23.57 12.66 23.49C12.65 23.41 12.64 23.36 12.64 23.32C12.64 23.3 12.62 23.27 12.59 23.27C12.57 23.27 12.54 23.28 12.52 23.29C12.5 23.3 12.48 23.3 12.47 23.3C12.44 23.3 12.38 23.29 12.31 23.28C12.24 23.27 12.18 23.26 12.14 23.26C12.04 23.26 11.96 23.27 11.89 23.31C11.82 23.34 11.75 23.38 11.7 23.44C11.65 23.49 11.61 23.55 11.59 23.61C11.57 23.67 11.56 23.74 11.56 23.81C11.56 23.87 11.58 23.94 11.6 23.99C11.62 24.05 11.66 24.09 11.71 24.14C11.76 24.18 11.81 24.22 11.85 24.26C11.9 24.3 11.96 24.34 12.04 24.38C12.1 24.43 12.16 24.46 12.21 24.5C12.26 24.53 12.3 24.57 12.33 24.61C12.37 24.65 12.39 24.69 12.42 24.73C12.44 24.77 12.45 24.82 12.45 24.87C12.45 24.92 12.44 24.96 12.42 25.01C12.4 25.05 12.37 25.08 12.33 25.11C12.3 25.14 12.25 25.16 12.21 25.17C12.16 25.19 12.12 25.19 12.08 25.19C12.02 25.19 11.96 25.18 11.88 25.14C11.8 25.11 11.74 25.07 11.71 25.03C11.69 25.01 11.67 24.98 11.65 24.96C11.64 24.93 11.63 24.9 11.62 24.87C11.6 24.84 11.63 24.83 11.56 24.81C11.54 24.81 11.51 24.83 11.5 24.86C11.48 24.88 11.48 24.91 11.48 24.93C11.48 24.96 11.48 24.99 11.49 25.01C11.49 25.04 11.49 25.07 11.5 25.1V25.12C11.5 25.16 11.51 25.2 11.52 25.23C11.53 25.26 11.56 25.29 11.6 25.3C11.61 25.3 11.61 25.3 11.62 25.3C11.64 25.3 11.65 25.31 11.67 25.31C11.74 25.33 11.81 25.35 11.86 25.36C11.92 25.37 11.97 25.38 12.03 25.38C12.14 25.38 12.24 25.36 12.33 25.33C12.42 25.3 12.49 25.25 12.56 25.2C12.62 25.14 12.66 25.08 12.69 25C12.72 24.93 12.74 24.85 12.74 24.77C12.73 24.7 12.72 24.63 12.69 24.57C12.65 24.48 12.61 24.43 12.56 24.38Z" fill="white"/>
<path d="M15.34 24.85C15.29 24.86 15.29 24.88 15.24 24.92C15.18 24.99 15.13 25.04 15.09 25.07C15.05 25.1 15 25.12 14.94 25.13C14.89 25.14 14.83 25.14 14.75 25.14C14.7 25.14 14.65 25.14 14.6 25.13C14.55 25.12 14.5 25.11 14.46 25.1C14.42 25.09 14.39 25.07 14.36 25.04C14.34 25.02 14.33 24.99 14.32 24.96C14.31 24.82 14.31 24.71 14.3 24.62C14.3 24.54 14.3 24.44 14.3 24.34C14.48 24.34 14.6 24.34 14.68 24.35C14.74 24.35 14.81 24.37 14.86 24.38C14.91 24.4 14.94 24.42 14.96 24.46L14.97 24.48H15.05L15.04 24.44C15.04 24.4 15.04 24.36 15.04 24.35V24.26C15.04 24.24 15.04 24.21 15.04 24.2C15.04 24.18 15.04 24.16 15.05 24.13C15.05 24.11 15.06 24.08 15.06 24.06V24.02H15L14.99 24.03C14.96 24.08 14.92 24.11 14.88 24.13C14.84 24.15 14.79 24.16 14.73 24.16H14.69C14.67 24.16 14.65 24.16 14.63 24.16C14.6 24.16 14.54 24.16 14.46 24.16C14.4 24.16 14.35 24.16 14.32 24.16C14.32 23.99 14.32 23.87 14.32 23.79C14.32 23.71 14.32 23.64 14.33 23.57V23.53C14.33 23.49 14.34 23.46 14.34 23.43C14.37 23.43 14.42 23.42 14.47 23.42C14.54 23.41 14.6 23.41 14.63 23.41C14.76 23.41 14.86 23.42 14.92 23.44C14.98 23.46 15.03 23.49 15.04 23.52C15.05 23.53 15.05 23.53 15.06 23.55C15.08 23.58 15.09 23.6 15.12 23.61C15.15 23.61 15.17 23.57 15.17 23.55C15.17 23.53 15.17 23.49 15.16 23.45C15.15 23.4 15.14 23.36 15.14 23.32C15.14 23.27 15.09 23.25 15.04 23.24C14.99 23.23 14.93 23.23 14.85 23.23C14.79 23.23 14.7 23.23 14.57 23.24H14.5C14.44 23.24 14.37 23.25 14.33 23.25C14.28 23.25 14.24 23.25 14.22 23.25C14.19 23.25 14.13 23.25 14.07 23.24C14 23.24 13.92 23.23 13.84 23.22H13.82L13.77 23.21L13.79 23.29L13.8 23.31L13.82 23.32C13.88 23.35 13.93 23.39 13.95 23.42C13.98 23.46 13.99 23.5 14 23.55C14.01 23.67 14.01 23.79 14.02 23.92C14.02 24.05 14.02 24.17 14.02 24.3V24.64C14.02 24.72 14.02 24.82 14.02 24.95C14.02 24.97 14.01 24.99 14 25.02C13.98 25.05 13.98 25.07 13.95 25.1C13.93 25.13 13.92 25.15 13.89 25.17C13.87 25.19 13.86 25.2 13.84 25.21L13.82 25.22V25.28V25.32L13.88 25.31C13.94 25.31 13.99 25.3 14.04 25.3C14.08 25.3 14.12 25.3 14.15 25.3H14.38C14.46 25.3 14.56 25.3 14.66 25.3H15.05C15.11 25.3 15.16 25.29 15.19 25.27C15.21 25.25 15.23 25.22 15.24 25.19V25.17C15.25 25.16 15.27 25.1 15.31 25.04C15.33 25.01 15.34 24.98 15.36 24.96C15.37 24.94 15.38 24.92 15.38 24.9C15.39 24.87 15.36 24.85 15.34 24.85Z" fill="white"/>
<path d="M18.2399 23.25C18.1599 23.25 18.0999 23.26 18.0599 23.26C18.0399 23.26 18.0099 23.26 17.9599 23.25C17.9299 23.25 17.8999 23.24 17.8899 23.24L17.8499 23.23V23.31L17.8699 23.32C17.9299 23.35 17.9499 23.39 17.9699 23.42C17.9799 23.46 17.9899 23.51 17.9899 23.57C17.9999 23.69 17.9999 23.82 18.0099 23.94C18.0099 24.07 18.0199 24.19 18.0199 24.32C18.0199 24.52 18.0099 24.68 18.0099 24.8L16.6199 23.26H16.6099C16.5699 23.26 16.5399 23.26 16.4999 23.25C16.4599 23.25 16.4099 23.24 16.3499 23.24H16.2999L16.3199 23.31V23.32L16.3399 23.33C16.3899 23.36 16.4199 23.4 16.4399 23.43C16.4599 23.47 16.4699 23.51 16.4799 23.56V23.57C16.4799 23.64 16.4799 23.72 16.4799 23.82C16.4799 23.89 16.4799 23.97 16.4799 24.08C16.4799 24.2 16.4799 24.29 16.4799 24.33C16.4799 24.66 16.4799 24.9 16.4699 25.06C16.4699 25.1 16.4599 25.14 16.4399 25.17C16.4199 25.2 16.3799 25.23 16.3399 25.25L16.3199 25.26V25.34H16.3499C16.3699 25.34 16.3899 25.34 16.3999 25.34C16.4199 25.34 16.4399 25.34 16.4599 25.34C16.4699 25.34 16.4899 25.34 16.5299 25.34C16.6099 25.34 16.7099 25.34 16.8099 25.35H16.8499V25.27L16.8299 25.26C16.7899 25.24 16.7599 25.22 16.7399 25.18C16.7199 25.15 16.6999 25.1 16.6999 25.06C16.6799 24.8 16.6799 24.56 16.6799 24.34V24.18C16.6799 24.1 16.6799 24.04 16.6799 24C16.6799 23.93 16.6799 23.87 16.6799 23.81L18.0599 25.31C18.1099 25.36 18.1199 25.38 18.1699 25.39C18.2099 25.39 18.2199 25.34 18.2199 25.31C18.2199 25.3 18.2199 25.27 18.2199 25.23C18.2199 25.22 18.2199 25.2 18.2199 25.19C18.2099 25.12 18.2099 25.03 18.2099 24.91C18.2099 24.84 18.2099 24.73 18.2199 24.59C18.2199 24.46 18.2199 24.37 18.2199 24.33C18.2199 24.08 18.2199 23.92 18.2199 23.85C18.2199 23.78 18.2199 23.74 18.2199 23.7C18.2299 23.67 18.2299 23.63 18.2299 23.6C18.2399 23.54 18.2499 23.49 18.2699 23.44C18.2899 23.4 18.3099 23.37 18.3499 23.35L18.3699 23.34V23.27H18.3299C18.3099 23.25 18.2799 23.25 18.2399 23.25Z" fill="white"/>
<path d="M20.85 24.85C20.81 24.86 20.8 24.88 20.76 24.92C20.7 24.99 20.65 25.04 20.61 25.07C20.57 25.1 20.52 25.12 20.47 25.13C20.41 25.14 20.35 25.14 20.28 25.14C20.22 25.14 20.17 25.14 20.13 25.13C20.08 25.12 20.04 25.11 19.99 25.1C19.96 25.09 19.92 25.07 19.89 25.04C19.87 25.02 19.86 24.99 19.86 24.96C19.85 24.82 19.84 24.71 19.84 24.62C19.84 24.54 19.83 24.44 19.83 24.34C20.01 24.34 20.14 24.34 20.22 24.35C20.28 24.35 20.34 24.37 20.4 24.38C20.45 24.4 20.47 24.42 20.5 24.46L20.51 24.48H20.58V24.44C20.57 24.4 20.57 24.37 20.57 24.35V24.26C20.57 24.23 20.57 24.21 20.57 24.19C20.58 24.17 20.58 24.15 20.58 24.12C20.59 24.1 20.59 24.07 20.59 24.05L20.6 24.01H20.53L20.52 24.02C20.49 24.07 20.45 24.1 20.41 24.12C20.37 24.14 20.31 24.15 20.26 24.15H20.2C20.18 24.15 20.17 24.15 20.15 24.15C20.12 24.15 20.06 24.15 19.98 24.15C19.92 24.15 19.87 24.15 19.83 24.15C19.83 23.98 19.84 23.86 19.84 23.78C19.84 23.7 19.84 23.63 19.85 23.56V23.52C19.85 23.48 19.86 23.45 19.86 23.42C19.89 23.42 19.94 23.41 19.99 23.41C20.07 23.41 20.12 23.4 20.15 23.4C20.28 23.4 20.38 23.41 20.44 23.43C20.5 23.45 20.55 23.48 20.56 23.51C20.57 23.51 20.57 23.52 20.58 23.54C20.6 23.57 20.6 23.59 20.64 23.59C20.67 23.59 20.69 23.55 20.69 23.53C20.69 23.51 20.69 23.47 20.68 23.43C20.67 23.38 20.66 23.34 20.66 23.3C20.66 23.24 20.61 23.23 20.56 23.22C20.51 23.21 20.45 23.21 20.37 23.21C20.31 23.21 20.22 23.21 20.09 23.22H20.02C19.96 23.22 19.89 23.23 19.85 23.23C19.8 23.23 19.76 23.23 19.74 23.23C19.7 23.23 19.65 23.23 19.59 23.22C19.52 23.22 19.44 23.21 19.36 23.2H19.34L19.29 23.19L19.31 23.26L19.32 23.28L19.33 23.29C19.39 23.32 19.44 23.36 19.47 23.39C19.49 23.43 19.51 23.47 19.52 23.52C19.52 23.64 19.53 23.76 19.53 23.89C19.54 24.02 19.54 24.14 19.54 24.27V24.61C19.54 24.69 19.54 24.79 19.53 24.92C19.53 24.94 19.53 24.96 19.52 24.99C19.5 25.02 19.49 25.04 19.47 25.07C19.45 25.09 19.44 25.12 19.41 25.14C19.39 25.16 19.37 25.17 19.35 25.18L19.33 25.19V25.25H19.32V25.29L19.38 25.28C19.44 25.28 19.49 25.27 19.54 25.27C19.58 25.27 19.62 25.27 19.65 25.27H19.88C19.96 25.27 20.06 25.27 20.16 25.27H20.55C20.61 25.27 20.66 25.26 20.69 25.24C20.71 25.22 20.73 25.19 20.74 25.16V25.15C20.75 25.14 20.77 25.09 20.81 25.02C20.83 24.99 20.85 24.96 20.86 24.94C20.87 24.92 20.88 24.9 20.88 24.88C20.91 24.87 20.88 24.85 20.85 24.85Z" fill="white"/>
<path d="M23.55 24.3C23.49 24.3 23.44 24.31 23.41 24.31C23.34 24.31 23.25 24.31 23.13 24.3H23.09V24.37L23.11 24.38C23.17 24.42 23.21 24.45 23.22 24.47C23.24 24.5 23.24 24.55 23.25 24.62C23.25 24.66 23.26 24.74 23.26 24.85C23.26 24.88 23.26 24.91 23.26 24.93C23.26 24.97 23.25 25 23.25 25.02C23.24 25.03 23.23 25.04 23.22 25.05C23.11 25.08 23.03 25.11 22.95 25.13C22.87 25.15 22.8 25.16 22.75 25.16C22.64 25.16 22.54 25.13 22.44 25.08C22.33 25.03 22.25 24.96 22.17 24.87C22.1 24.78 22.04 24.68 22 24.57C21.96 24.46 21.94 24.34 21.94 24.22C21.94 24.1 21.96 23.99 22 23.89C22.04 23.79 22.1 23.7 22.17 23.63C22.25 23.56 22.34 23.5 22.45 23.46C22.56 23.42 22.68 23.4 22.81 23.4C22.96 23.4 23.09 23.43 23.21 23.48C23.25 23.5 23.29 23.53 23.32 23.56C23.35 23.59 23.38 23.63 23.42 23.68C23.44 23.71 23.44 23.73 23.49 23.74C23.53 23.73 23.53 23.7 23.53 23.68C23.54 23.66 23.54 23.64 23.54 23.62C23.54 23.6 23.54 23.58 23.54 23.53C23.53 23.48 23.53 23.45 23.53 23.42C23.53 23.41 23.53 23.39 23.53 23.37V23.34C23.53 23.33 23.53 23.32 23.52 23.31C23.51 23.3 23.5 23.29 23.49 23.29C23.49 23.29 23.47 23.29 23.46 23.29C23.44 23.29 23.42 23.29 23.4 23.29C23.38 23.29 23.35 23.28 23.3 23.26C23.26 23.25 23.24 23.24 23.22 23.23C23.13 23.22 23.06 23.2 22.98 23.2C22.9 23.19 22.83 23.19 22.77 23.19C22.6 23.19 22.45 23.22 22.31 23.27C22.16 23.33 22.04 23.4 21.94 23.5C21.83 23.6 21.75 23.72 21.7 23.85C21.64 23.98 21.62 24.12 21.62 24.27C21.62 24.41 21.64 24.55 21.71 24.68C21.77 24.81 21.85 24.92 21.94 25.02C22.05 25.12 22.17 25.19 22.3 25.25H22.29C22.43 25.3 22.57 25.33 22.72 25.33C22.84 25.33 22.95 25.32 23.04 25.31C23.13 25.3 23.23 25.27 23.32 25.24C23.34 25.23 23.37 25.22 23.41 25.21C23.47 25.19 23.5 25.18 23.52 25.17C23.54 25.16 23.55 25.14 23.56 25.11C23.56 25.09 23.57 25.07 23.57 25.06C23.57 24.95 23.57 24.87 23.57 24.81C23.57 24.75 23.57 24.69 23.58 24.61V24.6C23.59 24.54 23.6 24.49 23.6 24.45C23.61 24.42 23.63 24.4 23.66 24.38L23.68 24.37L23.69 24.34L23.7 24.3H23.65C23.62 24.3 23.59 24.3 23.55 24.3Z" fill="white"/>
<path d="M26.16 25.02L25.54 23.56L25.42 23.26H25.32C25.27 23.26 25.22 23.26 25.17 23.26C25.11 23.26 25.06 23.26 25.02 23.25H24.98L25 23.31V23.32V23.33C25.05 23.36 25.1 23.4 25.13 23.45C25.16 23.49 25.18 23.53 25.18 23.57C25.18 23.58 25.18 23.59 25.17 23.6L24.55 25.01C24.49 25.13 24.41 25.21 24.29 25.25H24.28L24.26 25.27L24.21 25.34L24.29 25.33C24.36 25.32 24.44 25.31 24.52 25.31C24.58 25.31 24.66 25.31 24.72 25.33H24.76V25.26L24.74 25.25C24.72 25.23 24.71 25.21 24.71 25.18C24.71 25.16 24.72 25.13 24.74 25.08L24.96 24.54C25.07 24.53 25.17 24.52 25.29 24.52C25.38 24.52 25.48 24.52 25.61 24.54L25.8 25.04C25.81 25.05 25.81 25.06 25.82 25.08C25.82 25.1 25.83 25.11 25.83 25.12C25.83 25.12 25.81 25.15 25.79 25.19C25.77 25.22 25.75 25.24 25.74 25.28V25.33H25.78C25.88 25.32 25.98 25.31 26.08 25.31C26.18 25.31 26.27 25.32 26.36 25.33L26.4 25.34V25.26L26.38 25.25C26.28 25.21 26.2 25.14 26.16 25.02ZM25.53 24.36C25.45 24.36 25.37 24.37 25.29 24.37C25.2 24.37 25.12 24.37 25.04 24.36L25.3 23.78L25.53 24.36Z" fill="white"/>
<path d="M28.58 24.82C28.53 24.83 28.52 24.86 28.49 24.9C28.47 24.93 28.44 24.97 28.43 24.99C28.41 25.01 28.38 25.04 28.36 25.06C28.32 25.09 28.25 25.12 28.18 25.14C28.11 25.16 28.04 25.17 27.97 25.17C27.93 25.17 27.88 25.17 27.84 25.16C27.8 25.15 27.77 25.14 27.74 25.13C27.71 25.12 27.68 25.1 27.67 25.07C27.65 25.05 27.65 25.02 27.64 24.98C27.64 24.84 27.63 24.73 27.62 24.64C27.62 24.55 27.62 24.45 27.62 24.33C27.62 24.08 27.62 23.92 27.62 23.85C27.62 23.79 27.62 23.74 27.62 23.7C27.63 23.67 27.63 23.63 27.63 23.6C27.64 23.54 27.65 23.49 27.67 23.44C27.69 23.4 27.71 23.37 27.75 23.35L27.77 23.34V23.26H27.73C27.71 23.26 27.68 23.26 27.63 23.26C27.56 23.27 27.5 23.27 27.46 23.27C27.39 23.27 27.3 23.26 27.18 23.25H27.15V23.32L27.16 23.33C27.22 23.36 27.25 23.4 27.27 23.43C27.29 23.47 27.3 23.52 27.3 23.57C27.31 23.69 27.31 23.81 27.32 23.94C27.32 24.07 27.33 24.2 27.33 24.32V24.66C27.33 24.74 27.32 24.84 27.32 24.97C27.32 24.99 27.31 25.01 27.3 25.04C27.29 25.07 27.28 25.1 27.26 25.13C27.24 25.16 27.23 25.18 27.2 25.2C27.18 25.22 27.17 25.23 27.15 25.24L27.13 25.25L27.14 25.3V25.33H27.17C27.23 25.33 27.28 25.32 27.33 25.32C27.38 25.32 27.43 25.32 27.47 25.32C27.53 25.32 27.62 25.32 27.73 25.33C27.78 25.33 27.84 25.34 27.88 25.34C27.93 25.34 27.98 25.34 28.03 25.34C28.08 25.34 28.16 25.34 28.26 25.33C28.32 25.33 28.36 25.33 28.36 25.33C28.4 25.33 28.43 25.32 28.46 25.29C28.48 25.27 28.49 25.24 28.5 25.21C28.51 25.19 28.53 25.14 28.56 25.07C28.58 25.03 28.59 25 28.6 24.98C28.61 24.95 28.62 24.93 28.62 24.91C28.62 24.9 28.62 24.88 28.61 24.88C28.62 24.83 28.6 24.82 28.58 24.82Z" fill="white"/>
<path d="M31.09 25.02L30.47 23.56L30.35 23.26H30.25C30.21 23.26 30.15 23.26 30.1 23.26C30.04 23.26 29.99 23.26 29.95 23.25H29.9L29.92 23.31V23.32L29.94 23.33C29.99 23.36 30.04 23.4 30.07 23.45C30.1 23.49 30.12 23.53 30.12 23.57C30.12 23.58 30.12 23.59 30.11 23.6L29.49 25.01C29.44 25.13 29.35 25.21 29.23 25.25H29.22L29.2 25.27L29.14 25.34L29.23 25.33C29.3 25.32 29.38 25.31 29.46 25.31C29.52 25.31 29.6 25.31 29.66 25.33L29.7 25.34V25.27L29.68 25.26C29.66 25.24 29.65 25.22 29.65 25.19C29.65 25.17 29.66 25.14 29.67 25.09L29.9 24.55C30 24.54 30.11 24.53 30.23 24.53C30.32 24.53 30.42 24.53 30.55 24.55L30.74 25.05C30.75 25.06 30.75 25.07 30.75 25.09C30.76 25.11 30.76 25.12 30.76 25.13C30.76 25.13 30.75 25.16 30.72 25.2C30.7 25.23 30.68 25.25 30.68 25.29V25.34L30.72 25.33C30.82 25.32 30.91 25.31 31.02 25.31C31.11 25.31 31.21 25.31 31.3 25.33L31.34 25.34V25.26L31.32 25.25C31.21 25.21 31.14 25.14 31.09 25.02ZM30.47 24.37C30.39 24.37 30.31 24.38 30.23 24.38C30.15 24.38 30.06 24.38 29.99 24.37L30.24 23.79L30.47 24.37Z" fill="white"/>
<path d="M32.6899 25.17C32.6699 25.14 32.6599 25.1 32.6599 25.05C32.6399 24.79 32.6399 24.55 32.6399 24.33C32.6399 24.08 32.6399 23.92 32.6399 23.85C32.6399 23.79 32.6499 23.74 32.6499 23.7C32.6499 23.66 32.6499 23.63 32.6499 23.6C32.6599 23.54 32.6699 23.49 32.6899 23.44C32.7099 23.4 32.7299 23.37 32.7799 23.35L32.7999 23.34V23.27H32.7699C32.7499 23.27 32.7099 23.27 32.6699 23.27C32.5899 23.28 32.5299 23.28 32.4899 23.28C32.4299 23.28 32.3299 23.28 32.2099 23.27H32.1799V23.34L32.1999 23.35C32.2499 23.38 32.2799 23.42 32.2999 23.46C32.3199 23.5 32.3299 23.55 32.3299 23.6C32.3399 23.72 32.3499 23.85 32.3499 23.97C32.3599 24.1 32.3599 24.22 32.3599 24.35C32.3599 24.67 32.3599 24.92 32.3499 25.08C32.3499 25.12 32.3299 25.16 32.3199 25.19C32.2999 25.22 32.2599 25.25 32.2199 25.27L32.1999 25.28V25.32V25.36H32.2299C32.3299 25.35 32.4199 25.35 32.4999 25.35C32.5799 25.35 32.6699 25.35 32.7799 25.36H32.8199V25.28L32.7999 25.27C32.7499 25.23 32.7199 25.2 32.6899 25.17Z" fill="white"/>
<path d="M34.8799 24.38C34.8299 24.33 34.7799 24.29 34.7299 24.25C34.6799 24.21 34.6199 24.17 34.5399 24.11C34.4699 24.06 34.4099 24.02 34.3699 23.99C34.3299 23.96 34.2899 23.93 34.2599 23.89C34.2199 23.85 34.1999 23.82 34.1699 23.78C34.1499 23.74 34.1499 23.7 34.1499 23.66C34.1499 23.63 34.1599 23.6 34.1699 23.57C34.1899 23.54 34.2099 23.52 34.2299 23.49C34.2599 23.47 34.2899 23.45 34.3299 23.44C34.3599 23.43 34.3899 23.42 34.4399 23.42C34.4899 23.42 34.5499 23.43 34.6099 23.45C34.6699 23.47 34.7199 23.49 34.7699 23.53C34.7799 23.54 34.7899 23.55 34.7999 23.57C34.8199 23.59 34.8299 23.61 34.8499 23.64C34.8799 23.69 34.8899 23.72 34.9399 23.73C34.9599 23.73 34.9799 23.71 34.9799 23.7C34.9899 23.69 34.9999 23.67 34.9999 23.66C34.9999 23.62 34.9899 23.57 34.9799 23.49C34.9699 23.41 34.9699 23.36 34.9699 23.32C34.9699 23.3 34.9499 23.27 34.9199 23.27C34.8999 23.27 34.8699 23.28 34.8399 23.29C34.8199 23.3 34.8099 23.3 34.7999 23.3C34.7699 23.3 34.7099 23.29 34.6399 23.28C34.5599 23.27 34.4999 23.26 34.4699 23.26C34.3699 23.26 34.2799 23.27 34.2099 23.31C34.1399 23.34 34.0699 23.38 34.0199 23.44C33.9699 23.49 33.9399 23.55 33.9099 23.61C33.8899 23.67 33.8699 23.74 33.8699 23.81C33.8699 23.87 33.8899 23.94 33.9099 23.99C33.9399 24.04 33.9699 24.09 34.0199 24.14C34.0599 24.18 34.1099 24.22 34.1599 24.26C34.2099 24.3 34.2699 24.34 34.3499 24.38C34.4099 24.43 34.4799 24.46 34.5199 24.5C34.5699 24.53 34.6099 24.57 34.6499 24.61C34.6799 24.65 34.7099 24.69 34.7299 24.73C34.7499 24.77 34.7599 24.82 34.7599 24.87C34.7599 24.92 34.7499 24.97 34.7299 25.01C34.7099 25.05 34.6799 25.08 34.6399 25.11C34.6099 25.14 34.5699 25.16 34.5199 25.17C34.4799 25.18 34.4299 25.19 34.3899 25.19C34.3399 25.19 34.2699 25.18 34.1899 25.14C34.1099 25.11 34.0499 25.07 34.0199 25.03C33.9999 25.01 33.9799 24.98 33.9699 24.96C33.9499 24.93 33.9499 24.9 33.9299 24.87C33.9099 24.84 33.9399 24.83 33.8799 24.81C33.8499 24.81 33.8199 24.84 33.8199 24.86C33.8099 24.88 33.7999 24.91 33.7999 24.93C33.7999 24.96 33.7999 24.98 33.8099 25.01C33.8099 25.04 33.8199 25.07 33.8199 25.1L33.8299 25.12C33.8299 25.16 33.8299 25.2 33.8499 25.23C33.8699 25.26 33.8999 25.29 33.9299 25.3C33.9399 25.3 33.9599 25.31 33.9999 25.32C34.0699 25.34 34.1399 25.36 34.1899 25.37C34.2399 25.38 34.2999 25.39 34.3499 25.39C34.4599 25.39 34.5699 25.37 34.6599 25.34C34.7499 25.31 34.8199 25.26 34.8799 25.21C34.9399 25.15 34.9899 25.09 35.0099 25.01C35.0399 24.94 35.0599 24.86 35.0599 24.78C35.0599 24.71 35.0399 24.64 35.0099 24.58C34.9599 24.48 34.9299 24.43 34.8799 24.38Z" fill="white"/>
<path d="M37.4899 24.85C37.4499 24.86 37.4399 24.88 37.3999 24.92C37.3399 24.99 37.2899 25.04 37.2499 25.07C37.2099 25.1 37.1599 25.12 37.1099 25.13C37.0499 25.14 36.9899 25.14 36.9099 25.14C36.8599 25.14 36.8099 25.14 36.7599 25.13C36.7099 25.12 36.6699 25.11 36.6199 25.1C36.5799 25.09 36.5499 25.07 36.5199 25.04C36.4999 25.02 36.4899 24.99 36.4799 24.96C36.4799 24.82 36.4699 24.71 36.4599 24.62C36.4599 24.54 36.4599 24.44 36.4599 24.34C36.6399 24.34 36.7699 24.34 36.8499 24.35C36.9099 24.35 36.9699 24.37 37.0199 24.38C37.0699 24.4 37.0999 24.42 37.1299 24.46L37.1399 24.48H37.2099V24.44C37.1999 24.4 37.1999 24.37 37.1999 24.35V24.26C37.1999 24.23 37.1999 24.21 37.1999 24.2C37.2099 24.18 37.2099 24.16 37.2099 24.13C37.2199 24.11 37.2199 24.08 37.2199 24.06V24.02H37.1599L37.1399 24.03C37.1099 24.08 37.0799 24.11 37.0299 24.13C36.9899 24.15 36.9399 24.16 36.8799 24.16H36.8299C36.8099 24.16 36.7899 24.16 36.7699 24.16C36.7499 24.16 36.6899 24.16 36.6099 24.16C36.5499 24.16 36.4999 24.16 36.4599 24.16C36.4599 23.99 36.4599 23.87 36.4599 23.79C36.4599 23.71 36.4699 23.64 36.4699 23.58V23.54C36.4799 23.5 36.4799 23.46 36.4899 23.44C36.5199 23.44 36.5599 23.43 36.6199 23.43C36.6899 23.43 36.7499 23.42 36.7799 23.42C36.8999 23.42 36.9999 23.43 37.0599 23.45C37.1199 23.47 37.1699 23.5 37.1899 23.53C37.1899 23.53 37.1999 23.54 37.2099 23.56C37.2199 23.59 37.2299 23.61 37.2699 23.61C37.2999 23.61 37.3199 23.57 37.3199 23.55C37.3199 23.53 37.3199 23.49 37.3199 23.45C37.3099 23.4 37.2999 23.36 37.2999 23.32C37.2899 23.26 37.2499 23.25 37.1999 23.24C37.1499 23.23 37.0899 23.23 37.0099 23.23C36.9499 23.23 36.8599 23.23 36.7299 23.24H36.6599C36.5899 23.24 36.5299 23.25 36.4799 23.25C36.4299 23.25 36.3999 23.25 36.3699 23.25C36.3399 23.25 36.2899 23.25 36.2199 23.24C36.1599 23.24 36.0799 23.23 35.9999 23.22H35.9799L35.9299 23.21L35.9499 23.29V23.31L35.9699 23.32C36.0299 23.35 36.0799 23.39 36.1099 23.42C36.1299 23.46 36.1499 23.5 36.1499 23.55C36.1599 23.67 36.1699 23.79 36.1699 23.92C36.1799 24.05 36.1799 24.17 36.1799 24.3V24.64C36.1799 24.72 36.1799 24.82 36.1699 24.95C36.1699 24.97 36.1699 24.99 36.1499 25.02C36.1399 25.05 36.1299 25.07 36.1099 25.1C36.0899 25.12 36.0699 25.15 36.0499 25.17C36.0299 25.19 36.0099 25.2 35.9899 25.21L35.9699 25.22V25.28H35.9599V25.32L36.0199 25.31C36.0799 25.31 36.1299 25.3 36.1799 25.3C36.2199 25.3 36.2599 25.3 36.2899 25.3H36.5199C36.5999 25.3 36.6999 25.3 36.7999 25.3H37.1899C37.2499 25.3 37.2999 25.29 37.3299 25.27C37.3499 25.25 37.3699 25.22 37.3799 25.19L37.3899 25.17C37.3899 25.15 37.4099 25.11 37.4499 25.04C37.4699 25.01 37.4899 24.98 37.4999 24.96C37.5099 24.94 37.5199 24.92 37.5199 24.9C37.5499 24.88 37.5199 24.85 37.4899 24.85Z" fill="white"/>
<path d="M39.4699 24.54C39.4499 24.48 39.4099 24.43 39.3599 24.37C39.3099 24.32 39.2599 24.28 39.2099 24.24C39.1499 24.2 39.0899 24.16 39.0099 24.1C38.9399 24.05 38.8799 24.01 38.8399 23.98C38.7999 23.95 38.7699 23.92 38.7299 23.88C38.6999 23.85 38.6699 23.81 38.6499 23.77C38.6299 23.73 38.6199 23.7 38.6199 23.65C38.6199 23.62 38.6299 23.59 38.6399 23.56C38.6599 23.53 38.6799 23.51 38.7099 23.48C38.7299 23.46 38.7699 23.44 38.7999 23.43C38.8399 23.42 38.8699 23.41 38.9099 23.41C38.9699 23.41 39.0199 23.42 39.0899 23.44C39.1499 23.46 39.1999 23.48 39.2399 23.52C39.2599 23.53 39.2599 23.55 39.2799 23.56C39.2899 23.58 39.2999 23.6 39.3199 23.63C39.3599 23.68 39.3599 23.71 39.4099 23.72C39.4399 23.72 39.4499 23.7 39.4599 23.69C39.4699 23.68 39.4699 23.66 39.4699 23.65C39.4699 23.61 39.4699 23.56 39.4599 23.48C39.4499 23.4 39.4399 23.35 39.4399 23.31C39.4399 23.29 39.4199 23.26 39.3899 23.26C39.3699 23.26 39.3399 23.27 39.3099 23.28C39.2899 23.29 39.2799 23.29 39.2699 23.29C39.2399 23.29 39.1799 23.28 39.1099 23.27C39.0399 23.26 38.9799 23.25 38.9399 23.25C38.8399 23.25 38.7599 23.26 38.6799 23.3C38.6099 23.33 38.5499 23.37 38.4999 23.43C38.4499 23.48 38.4099 23.54 38.3899 23.6C38.3699 23.66 38.3599 23.73 38.3599 23.8C38.3599 23.86 38.3799 23.93 38.3999 23.98C38.4199 24.03 38.4599 24.08 38.5099 24.13C38.5499 24.17 38.5999 24.21 38.6499 24.25C38.6999 24.29 38.7599 24.33 38.8399 24.37C38.9099 24.42 38.9699 24.45 39.0199 24.49C39.0599 24.52 39.0999 24.56 39.1399 24.6C39.1799 24.64 39.1999 24.68 39.2299 24.72C39.2499 24.76 39.2599 24.81 39.2599 24.86C39.2599 24.91 39.2399 24.95 39.2299 25C39.2099 25.04 39.1699 25.07 39.1399 25.1C39.0999 25.13 39.0599 25.15 39.0199 25.16C38.9699 25.17 38.9299 25.18 38.8899 25.18C38.8299 25.18 38.7699 25.17 38.6899 25.13C38.6099 25.1 38.5499 25.06 38.5099 25.02C38.4899 25 38.4799 24.97 38.4599 24.95C38.4499 24.92 38.4399 24.89 38.4299 24.86C38.4099 24.83 38.4299 24.82 38.3699 24.8C38.3399 24.8 38.3099 24.82 38.3099 24.85C38.2999 24.87 38.2999 24.9 38.2999 24.92C38.2999 24.95 38.2999 24.98 38.2999 25C38.3099 25.03 38.3099 25.06 38.3199 25.09V25.11C38.3199 25.15 38.3299 25.19 38.3399 25.22C38.3599 25.26 38.3899 25.28 38.4299 25.29C38.4399 25.29 38.4399 25.29 38.4499 25.29C38.4599 25.29 38.4699 25.3 38.4999 25.3C38.5699 25.32 38.6399 25.34 38.6899 25.35C38.7399 25.36 38.7999 25.37 38.8599 25.37C38.9699 25.37 39.0699 25.35 39.1599 25.32C39.2499 25.29 39.3199 25.24 39.3799 25.19C39.4399 25.13 39.4899 25.07 39.5199 24.99C39.5399 24.92 39.5599 24.84 39.5599 24.76C39.5199 24.67 39.4999 24.61 39.4699 24.54Z" fill="white"/>
<path d="M39.5199 21.31H30.0499V21.93H39.5199V21.31Z" fill="#D00000"/>
<path d="M20.86 21.31H11.48V21.93H20.86V21.31Z" fill="#008835"/>
<path d="M30.04 21.31H20.86V21.93H30.04V21.31Z" fill="#FFEF00"/>
</svg>
